<svg width="65" height="50" viewBox="0 0 65 50" fill="none" xmlns="http://www.w3.org/2000/svg">
<path d="M1.33185 22.4077C0.644456 23.0953 0.2583 24.0278 0.2583 25C0.2583 25.9723 0.644456 26.9048 1.33185 27.5924L22.0742 48.3347C22.4124 48.6849 22.817 48.9642 23.2644 49.1564C23.7117 49.3486 24.1929 49.4497 24.6797 49.454C25.1666 49.4582 25.6494 49.3654 26.1 49.1811C26.5506 48.9967 26.96 48.7244 27.3043 48.3802C27.6486 48.0359 27.9208 47.6265 28.1052 47.1759C28.2896 46.7253 28.3823 46.2424 28.3781 45.7556C28.3739 45.2687 28.2727 44.7876 28.0806 44.3402C27.8884 43.8929 27.6091 43.4883 27.2588 43.15L12.7755 28.6667L61.3332 28.6667C62.3056 28.6667 63.2383 28.2804 63.9259 27.5928C64.6135 26.9051 64.9998 25.9725 64.9998 25C64.9998 24.0276 64.6135 23.095 63.9259 22.4073C63.2383 21.7197 62.3056 21.3334 61.3332 21.3334L12.7755 21.3334L27.2588 6.85004C27.9268 6.1585 28.2963 5.23229 28.288 4.27091C28.2796 3.30952 27.894 2.38987 27.2142 1.71004C26.5344 1.03021 25.6147 0.644589 24.6533 0.636235C23.6919 0.627881 22.7657 0.99746 22.0742 1.66537L1.33185 22.4077Z" fill="#464646"/>
</svg>
