<svg width="1080" height="742" viewBox="0 0 1080 742" fill="none" xmlns="http://www.w3.org/2000/svg">
<g opacity="0.2">
<path d="M140.188 505.995L138.407 502.819C131.9 490.812 119.351 483.298 105.64 483.298H8.9644C0.0560398 483.298 -8.54247 480.122 -15.2818 474.39L-21.0916 469.432C-23.7254 484.408 -25.7911 499.591 -27.2888 514.981C-29.0704 533.262 -30 551.854 -30 570.6C-30 570.858 -30 571.116 -30 571.375L79.3792 529.389C85.6538 529.389 91.8509 530.861 97.3508 533.96L180.547 580.128L140.188 505.995Z" fill="#81B2C6"/>
<path d="M839.224 84.3583C815.055 69.4852 789.802 56.3938 763.387 45.1615C694.986 16.1125 619.613 0 540.6 0C377.306 0 230.047 68.6331 126.013 178.632H186.435H415.96C419.214 178.632 422.467 178.167 425.566 177.315L720.549 99.1539C731.859 96.2103 744.021 98.6892 753.239 105.971L831.865 167.942C837.442 172.28 844.104 174.991 851.076 175.766L963.554 187.695C927.3 147.646 885.47 112.788 839.224 84.3583Z" fill="#81B2C6"/>
<path d="M831.865 167.942L753.239 105.971C744.021 98.6892 731.859 96.2104 720.549 99.154L425.566 177.315C422.467 178.167 419.214 178.632 415.96 178.632H186.435H126.013C51.3372 257.568 -1.1059 357.884 -21.0916 469.432L-15.2818 474.39C-8.54244 480.122 0.0560646 483.298 8.96443 483.298H105.64C119.351 483.298 131.9 490.812 138.407 502.819L140.188 505.995L317.426 437.827C318.562 437.465 319.673 437.104 320.757 436.742L623.796 351.764C630.303 349.983 637.12 349.905 643.627 351.687L709.549 369.426C718.303 371.75 727.598 370.82 735.809 366.87L801.034 334.645C808.548 330.926 817.069 329.842 825.203 331.546L958.209 359.278C963.863 360.44 969.751 360.285 975.328 358.813L1060.93 336.271C1036.29 281.582 1003.29 231.54 963.554 187.695L851.076 175.766C844.104 174.991 837.442 172.28 831.865 167.942Z" fill="#508CAE"/>
<path d="M958.208 359.278L825.203 331.546C817.069 329.842 808.548 330.926 801.034 334.645L735.809 366.87C727.598 370.82 718.302 371.75 709.549 369.426L643.627 351.687C637.12 349.905 630.303 349.982 623.796 351.764L320.757 436.742C319.673 437.104 318.562 437.465 317.426 437.827L140.188 505.995L180.547 580.128L228.033 606.466C234.462 610.029 241.744 611.578 249.025 611.036L316.342 605.769C324.708 605.149 333.074 607.318 340.123 612.043L367.623 630.48C376.918 636.754 388.616 638.536 399.383 635.205L466.312 614.755C472.432 612.895 478.939 612.586 485.136 613.98L562.91 630.79L568.642 617.853C572.747 608.79 580.339 601.663 589.79 598.177L670.352 568.199C678.563 565.178 685.458 559.368 689.796 551.776L746.654 452.235C756.105 435.658 776.478 428.918 793.907 436.51L822.879 448.982C837.132 455.179 853.709 451.925 864.477 440.77L909.561 394.447C916.61 387.165 926.216 383.06 936.364 383.06H1059.38C1065.88 383.06 1072.24 381.278 1077.81 378.102C1072.78 363.849 1067.12 349.905 1060.93 336.271L975.328 358.813C969.751 360.285 963.863 360.44 958.208 359.278Z" fill="white"/>
<path d="M936.364 383.06C926.216 383.06 916.61 387.165 909.561 394.447L864.477 440.77C853.71 451.925 837.132 455.179 822.879 448.981L793.907 436.51C776.478 428.918 756.105 435.658 746.654 452.235L689.796 551.776C685.458 559.368 678.563 565.177 670.352 568.199L589.79 598.177C580.339 601.663 572.748 608.79 568.642 617.853L562.91 630.789L726.514 666.268C727.546 666.423 728.605 666.604 729.69 666.81L815.752 677.733C819.471 678.197 823.266 678.12 826.985 677.5L882.371 667.74C886.787 666.965 891.28 666.965 895.695 667.817L991.208 685.557C999.652 687.106 1008.41 685.711 1016 681.606L1107.95 631.099C1110.04 611.269 1111.2 591.05 1111.2 570.6C1111.2 503.051 1099.43 438.214 1077.81 378.102C1072.24 381.278 1065.88 383.06 1059.38 383.06H936.364Z" fill="#81B2C6"/>
<path d="M911.343 971.476L757.189 775.337C747.197 762.556 730.852 756.514 714.972 759.69L592.423 783.936C579.874 786.415 566.86 783.161 556.945 775.105L535.797 749.697C531.072 744.042 522.473 742.803 517.051 747.838C516.199 748.612 503.727 764.105 503.495 764.88C503.495 764.88 489.319 788.274 469.178 785.021C466.932 784.711 464.608 784.168 462.206 783.084L366.771 729.789C362.82 727.62 358.56 725.296 354.144 722.972C333.694 712.282 310.532 708.099 287.525 710.113C286.389 710.216 285.33 710.294 284.349 710.345C251.194 712.514 218.66 720.493 188.216 733.739L152.66 749.232C140.498 752.641 127.562 750.549 117.104 743.577L84.1046 721.5C74.7314 715.225 63.4217 712.901 52.3443 714.916L-2.34529 724.986C-5.67625 725.606 -7.76777 728.937 -6.76074 732.19C11.8306 795.401 41.112 854.041 78.9919 906.019C79.4567 906.716 80.1539 907.259 80.9285 907.723L220.441 984.103C224.702 986.427 229.272 987.976 234.075 988.751L408.524 1017.64C411.777 1018.19 415.031 1019.12 418.052 1020.43L639.754 1113C654.627 1119.2 671.824 1116.57 684.141 1106.11L743.478 1055.76C746.654 1053.12 750.063 1050.95 753.858 1049.25L909.174 980.152C912.582 978.681 913.589 974.343 911.343 971.476Z" fill="#FEFEFE"/>
<path d="M1098.26 636.444L1017.78 680.599C1009.03 685.402 998.955 687.028 989.194 685.169L896.702 667.972C891.667 667.043 886.477 667.043 881.364 667.895L827.759 677.345C823.576 678.12 819.161 678.197 814.9 677.655L729.922 666.81C728.683 666.604 727.469 666.397 726.281 666.191L562.91 630.79L486.608 614.29C479.403 612.74 471.967 613.05 464.918 615.142L401.939 634.43C389.545 638.226 376.066 636.212 365.376 629.008L341.75 613.128C333.694 607.705 324.011 605.149 314.405 605.924L250.73 610.881C242.364 611.578 233.92 609.719 226.483 605.614L180.547 580.128L97.3509 533.959C92.2382 531.093 86.5059 529.622 80.6186 529.389C79.7924 529.337 78.9919 529.467 78.2172 529.776C67.992 533.727 -8.61993 563.163 -26.3592 569.98C-28.6056 570.832 -30 573.001 -30 575.403C-29.5352 625.754 -22.6409 674.557 -9.93682 721.035C-9.16218 723.901 -6.29601 725.683 -3.35237 725.141L-2.34534 724.986L52.3443 714.915C63.4216 712.901 74.7314 715.225 84.1045 721.5L117.104 743.577C127.562 750.549 140.498 752.64 152.66 749.232L188.216 733.739C218.66 720.493 251.194 712.514 284.349 710.345C285.33 710.293 286.389 710.216 287.525 710.113C310.532 708.099 333.694 712.282 354.144 722.972C358.56 725.296 362.82 727.62 366.771 729.789L462.206 783.084C464.608 784.168 466.932 784.633 469.178 785.02C489.319 788.274 503.495 764.88 503.495 764.88C503.727 764.105 516.199 748.612 517.051 747.838C522.473 742.803 531.072 744.042 535.797 749.697L556.945 775.105C566.86 783.161 579.874 786.415 592.423 783.936L714.972 759.69C730.852 756.514 747.197 762.556 757.189 775.337L913.125 973.723C914.751 975.737 917.54 976.434 919.864 975.35L927.068 972.174C933.033 969.54 939.462 968.61 945.659 969.152C947.441 969.385 949.223 968.843 950.462 967.526C1034.28 880.998 1090.98 767.901 1106.71 642.177C1107.25 637.606 1102.29 634.275 1098.26 636.444Z" fill="#508CAE"/>
</g>
</svg>
