<?xml version="1.0" encoding="UTF-8"?>
<svg xmlns:xlink="http://www.w3.org/1999/xlink" height="126px" version="1.1" viewBox="0 0 126 126"
    width="126px" xmlns="http://www.w3.org/2000/svg">
    <title>Group 4@0.0x</title>
    <defs>
        <circle cx="63" cy="63" id="path-1" r="63"></circle>
    </defs>
    <g fill="none" fill-rule="evenodd" id="Autenticazione" stroke="none" stroke-width="1">
        <g id="32:-05_04-(1)" transform="translate(-125.000000, -315.000000)">
            <g id="Group-4" transform="translate(125.000000, 315.000000)">
                <mask fill="white" id="mask-2">
                    <use xlink:href="#path-1"></use>
                </mask>
                <use fill="#646868" id="Mask" xlink:href="#path-1"></use>
                <path
                    d="M120.178014,127 C120.178014,127 117.382366,110.444572 110.612663,108.219585 C103.843984,105.994598 86.7744718,103.472671 82.2122363,98.578319 C77.6510239,93.6839666 78.2392044,87.3059459 78.2392044,87.3059459 C78.2392044,87.3059459 84.4197036,79.8896667 85.1551851,69.5070821 C85.1551851,69.5070821 87.0445234,70.2195315 87.115105,67.751219 C87.1846638,65.2829064 87.1846638,59.9926341 87.7452254,58.7935333 C88.3047642,57.5944324 89.790048,51.5679967 86.9268872,52.0711448 C86.9268872,52.0711448 88.1646238,37.8087523 86.5555663,33.1536014 C84.9454859,28.4984505 76.827571,20.0336024 66.05108,19.6108756 C65.2255813,19.5624166 64.3540512,19.5356096 63.4385353,19.5384615 C62.6058762,19.5407648 61.8079965,19.5665408 61.0500107,19.6108756 C52.0881846,20.1707309 43.3636766,25.0021899 40.5455244,33.1536014 C38.936467,37.8087523 40.1742035,52.0711448 40.1742035,52.0711448 C37.3110427,51.5679967 38.7963265,57.5944324 39.3558653,58.7935333 C39.9164269,59.9926341 39.9164269,65.2829064 39.9859857,67.751219 C40.0555444,70.2195315 41.9459057,69.5070821 41.9459057,69.5070821 C42.6813871,79.8896667 48.8618863,87.3059459 48.8618863,87.3059459 C48.8618863,87.3059459 49.4500669,93.6839666 44.8888544,98.578319 C40.326619,103.472671 23.2571072,105.994598 16.4884275,108.219585 C9.71872477,110.444572 6.92307692,127 6.92307692,127 L120.178014,127 Z"
                    fill="#BEBCBC" id="Fill-3" mask="url(#mask-2)"></path>
            </g>
        </g>
    </g>
</svg>