<svg width="126" height="126" viewBox="0 0 126 126" fill="none" xmlns="http://www.w3.org/2000/svg">
<g clip-path="url(#clip0_320_8)">
<path d="M63 126C97.7939 126 126 97.7939 126 63C126 28.2061 97.7939 0 63 0C28.2061 0 0 28.2061 0 63C0 97.7939 28.2061 126 63 126Z" fill="#508CAE"/>
<mask id="mask0_320_8" style="mask-type:luminance" maskUnits="userSpaceOnUse" x="0" y="0" width="126" height="126">
<path d="M63 126C97.7939 126 126 97.7939 126 63C126 28.2061 97.7939 0 63 0C28.2061 0 0 28.2061 0 63C0 97.7939 28.2061 126 63 126Z" fill="#BEBCBC"/>
</mask>
<g mask="url(#mask0_320_8)">
<path fill-rule="evenodd" clip-rule="evenodd" d="M120.178 127C120.178 127 117.382 110.445 110.612 108.22C103.844 105.995 86.7742 103.473 82.212 98.5783C77.6508 93.684 78.239 87.3059 78.239 87.3059C78.239 87.3059 84.4195 79.8897 85.155 69.5071C85.155 69.5071 87.0443 70.2195 87.1149 67.7512C87.1844 65.2829 87.1844 59.9926 87.745 58.7935C88.3045 57.5944 89.7898 51.568 86.9267 52.0711C86.9267 52.0711 88.1644 37.8088 86.5553 33.1536C84.9453 28.4985 76.8273 20.0336 66.0509 19.6109C65.2254 19.5624 64.3538 19.5356 63.4383 19.5385C62.6056 19.5408 61.8078 19.5665 61.0498 19.6109C52.088 20.1707 43.3635 25.0022 40.5453 33.1536C38.9362 37.8088 40.174 52.0711 40.174 52.0711C37.3108 51.568 38.7961 57.5944 39.3556 58.7935C39.9162 59.9926 39.9162 65.2829 39.9858 67.7512C40.0553 70.2195 41.9457 69.5071 41.9457 69.5071C42.6812 79.8897 48.8617 87.3059 48.8617 87.3059C48.8617 87.3059 49.4498 93.684 44.8886 98.5783C40.3264 103.473 23.2569 105.995 16.4882 108.22C9.7185 110.445 6.92285 127 6.92285 127H120.178Z" fill="#EFEFEF"/>
</g>
</g>
<defs>
<clipPath id="clip0_320_8">
<rect width="126" height="126" fill="white"/>
</clipPath>
</defs>
</svg>
