<svg width="1080" height="1789" viewBox="0 0 1080 1789" fill="none" xmlns="http://www.w3.org/2000/svg">
<g filter="url(#filter0_d_46_3)">
<circle cx="553" cy="1439" r="284" fill="white"/>
</g>
<path d="M305.951 1410.78C300.455 1410.23 295.535 1414.24 295.199 1419.75C293.066 1454.75 298.063 1489.84 309.928 1522.91C322.919 1559.11 343.818 1591.96 371.102 1619.07C398.387 1646.18 431.372 1666.87 467.658 1679.63C500.796 1691.28 535.925 1696.05 570.903 1693.69C576.413 1693.32 580.392 1688.38 579.808 1682.89L573.732 1625.75C573.148 1620.26 568.222 1616.31 562.706 1616.59C539.187 1617.79 515.627 1614.39 493.351 1606.56C467.926 1597.62 444.813 1583.12 425.695 1564.13C406.576 1545.13 391.933 1522.11 382.83 1496.74C374.854 1474.52 371.307 1450.98 372.352 1427.46C372.597 1421.94 368.616 1417.04 363.121 1416.49L305.951 1410.78Z" fill="#229C78"/>
<path d="M607.288 1678.4C608.483 1683.79 613.828 1687.21 619.17 1685.81C648.763 1678.05 676.771 1665.09 701.88 1647.52C729.722 1628.03 753.454 1603.25 771.72 1574.59C789.986 1545.94 802.429 1513.96 808.338 1480.5C813.667 1450.32 813.588 1419.46 808.132 1389.35C807.147 1383.92 801.788 1380.52 796.396 1381.71L740.4 1394.11C735.008 1395.31 731.634 1400.64 732.529 1406.09C735.842 1426.26 735.727 1446.87 732.164 1467.05C728.022 1490.51 719.298 1512.93 706.492 1533.02C693.686 1553.11 677.048 1570.48 657.528 1584.14C640.742 1595.89 622.108 1604.69 602.426 1610.21C597.107 1611.7 593.694 1617.01 594.888 1622.4L607.288 1678.4Z" fill="#A58227"/>
<path d="M790.76 1360.67C796.027 1359.01 798.969 1353.39 797.106 1348.19C784.516 1313.06 764.463 1281.03 738.285 1254.33C712.107 1227.63 680.482 1206.95 645.612 1193.67C640.451 1191.7 634.769 1194.53 633.004 1199.77L614.706 1254.02C612.941 1259.25 615.766 1264.9 620.894 1266.95C644.255 1276.29 665.455 1290.4 683.119 1308.42C700.783 1326.44 714.472 1347.91 723.349 1371.45C725.297 1376.62 730.887 1379.56 736.154 1377.89L790.76 1360.67Z" fill="#81B2C6"/>
<path d="M601.922 1191.48C602.997 1186.06 599.477 1180.78 594.023 1179.91C529.778 1169.72 463.902 1184.1 409.63 1220.4C355.359 1256.7 316.919 1312.09 301.805 1375.36C300.521 1380.73 304.061 1386 309.478 1387.08L363.663 1397.83C369.081 1398.9 374.317 1395.37 375.685 1390.02C386.858 1346.33 413.779 1308.14 451.462 1282.94C489.144 1257.74 534.715 1247.44 579.366 1253.79C584.833 1254.57 590.095 1251.08 591.17 1245.66L601.922 1191.48Z" fill="#227793"/>
<path d="M517.28 1415.72C512.693 1415.72 509.12 1414.76 506.56 1412.84C504.053 1410.92 502.293 1408.33 501.28 1405.08C500.32 1401.83 499.84 1398.2 499.84 1394.2V1371.32C499.84 1366.95 500.32 1363.13 501.28 1359.88C502.293 1356.63 504.053 1354.12 506.56 1352.36C509.12 1350.55 512.693 1349.64 517.28 1349.64C521.333 1349.64 524.533 1350.39 526.88 1351.88C529.28 1353.37 530.987 1355.51 532 1358.28C533.067 1361.05 533.6 1364.39 533.6 1368.28V1373.4H525.04V1368.84C525.04 1366.44 524.907 1364.33 524.64 1362.52C524.427 1360.65 523.787 1359.21 522.72 1358.2C521.653 1357.19 519.867 1356.68 517.36 1356.68C514.8 1356.68 512.933 1357.24 511.76 1358.36C510.587 1359.43 509.813 1360.97 509.44 1363C509.12 1364.97 508.96 1367.29 508.96 1369.96V1395.64C508.96 1398.89 509.227 1401.48 509.76 1403.4C510.293 1405.27 511.173 1406.6 512.4 1407.4C513.627 1408.2 515.28 1408.6 517.36 1408.6C519.813 1408.6 521.573 1408.07 522.64 1407C523.707 1405.88 524.373 1404.36 524.64 1402.44C524.907 1400.52 525.04 1398.28 525.04 1395.72V1390.92H533.6V1395.72C533.6 1399.67 533.12 1403.16 532.16 1406.2C531.2 1409.19 529.547 1411.53 527.2 1413.24C524.853 1414.89 521.547 1415.72 517.28 1415.72ZM558.772 1415.72C554.399 1415.72 550.905 1414.87 548.292 1413.16C545.679 1411.45 543.812 1409.03 542.692 1405.88C541.572 1402.68 541.012 1398.95 541.012 1394.68V1370.12C541.012 1365.85 541.572 1362.2 542.692 1359.16C543.865 1356.07 545.732 1353.72 548.292 1352.12C550.905 1350.47 554.399 1349.64 558.772 1349.64C563.145 1349.64 566.612 1350.47 569.172 1352.12C571.732 1353.77 573.572 1356.12 574.692 1359.16C575.865 1362.2 576.452 1365.85 576.452 1370.12V1394.76C576.452 1398.97 575.865 1402.65 574.692 1405.8C573.572 1408.95 571.732 1411.4 569.172 1413.16C566.612 1414.87 563.145 1415.72 558.772 1415.72ZM558.772 1408.6C561.172 1408.6 562.985 1408.12 564.212 1407.16C565.439 1406.15 566.265 1404.76 566.692 1403C567.119 1401.19 567.332 1399.08 567.332 1396.68V1368.28C567.332 1365.88 567.119 1363.83 566.692 1362.12C566.265 1360.36 565.439 1359.03 564.212 1358.12C562.985 1357.16 561.172 1356.68 558.772 1356.68C556.372 1356.68 554.532 1357.16 553.252 1358.12C552.025 1359.03 551.199 1360.36 550.772 1362.12C550.345 1363.83 550.132 1365.88 550.132 1368.28V1396.68C550.132 1399.08 550.345 1401.19 550.772 1403C551.199 1404.76 552.025 1406.15 553.252 1407.16C554.532 1408.12 556.372 1408.6 558.772 1408.6ZM583.577 1415V1408.92L600.057 1383.24C601.284 1381.32 602.404 1379.53 603.417 1377.88C604.484 1376.23 605.337 1374.49 605.977 1372.68C606.67 1370.81 607.017 1368.68 607.017 1366.28C607.017 1363.29 606.537 1360.95 605.577 1359.24C604.617 1357.53 602.937 1356.68 600.537 1356.68C598.51 1356.68 596.937 1357.24 595.817 1358.36C594.697 1359.48 593.924 1360.95 593.497 1362.76C593.07 1364.57 592.857 1366.52 592.857 1368.6V1370.76H584.297V1368.52C584.297 1364.63 584.804 1361.29 585.817 1358.52C586.884 1355.69 588.564 1353.51 590.857 1351.96C593.204 1350.41 596.297 1349.64 600.137 1349.64C605.364 1349.64 609.257 1351.13 611.817 1354.12C614.377 1357.05 615.657 1361.13 615.657 1366.36C615.657 1369.13 615.31 1371.56 614.617 1373.64C613.977 1375.72 613.124 1377.67 612.057 1379.48C610.99 1381.29 609.817 1383.16 608.537 1385.08L593.657 1407.8H614.137V1415H583.577Z" fill="#464646"/>
<path d="M422.84 1485L429.64 1457.32H420.8V1452.6H435.68V1456.68L428.84 1485H422.84ZM447.989 1485.56C446.043 1485.56 444.429 1485.16 443.149 1484.36C441.869 1483.56 440.909 1482.47 440.269 1481.08C439.629 1479.67 439.309 1478.04 439.309 1476.2V1461.68C439.309 1459.79 439.616 1458.13 440.229 1456.72C440.843 1455.28 441.789 1454.16 443.069 1453.36C444.349 1452.56 445.989 1452.16 447.989 1452.16C449.963 1452.16 451.576 1452.56 452.829 1453.36C454.109 1454.16 455.056 1455.28 455.669 1456.72C456.283 1458.13 456.589 1459.79 456.589 1461.68V1476.2C456.589 1478.04 456.269 1479.67 455.629 1481.08C454.989 1482.47 454.029 1483.56 452.749 1484.36C451.469 1485.16 449.883 1485.56 447.989 1485.56ZM447.989 1480.12C448.709 1480.12 449.229 1479.89 449.549 1479.44C449.869 1478.99 450.083 1478.45 450.189 1477.84C450.296 1477.2 450.349 1476.61 450.349 1476.08V1461.8C450.349 1461.21 450.296 1460.6 450.189 1459.96C450.109 1459.32 449.909 1458.77 449.589 1458.32C449.269 1457.84 448.736 1457.6 447.989 1457.6C447.243 1457.6 446.696 1457.84 446.349 1458.32C446.029 1458.77 445.816 1459.32 445.709 1459.96C445.629 1460.6 445.589 1461.21 445.589 1461.8V1476.08C445.589 1476.61 445.643 1477.2 445.749 1477.84C445.856 1478.45 446.083 1478.99 446.429 1479.44C446.776 1479.89 447.296 1480.12 447.989 1480.12ZM460.708 1485V1479.12H466.468V1485H460.708ZM478.445 1485.48C476.312 1485.48 474.605 1485.07 473.325 1484.24C472.045 1483.39 471.125 1482.2 470.565 1480.68C470.032 1479.16 469.765 1477.43 469.765 1475.48C469.765 1474.6 469.845 1473.77 470.005 1473C470.165 1472.23 470.405 1471.52 470.725 1470.88C471.045 1470.24 471.432 1469.68 471.885 1469.2C472.365 1468.69 472.925 1468.28 473.565 1467.96C472.685 1467.32 471.912 1466.43 471.245 1465.28C470.605 1464.11 470.272 1462.63 470.245 1460.84C470.218 1459.05 470.512 1457.52 471.125 1456.24C471.738 1454.93 472.658 1453.93 473.885 1453.24C475.112 1452.55 476.632 1452.2 478.445 1452.2C480.285 1452.2 481.805 1452.55 483.005 1453.24C484.232 1453.93 485.138 1454.93 485.725 1456.24C486.312 1457.52 486.592 1459.05 486.565 1460.84C486.538 1462.65 486.205 1464.15 485.565 1465.32C484.952 1466.47 484.192 1467.35 483.285 1467.96C483.925 1468.28 484.472 1468.69 484.925 1469.2C485.405 1469.68 485.805 1470.24 486.125 1470.88C486.445 1471.52 486.685 1472.23 486.845 1473C487.032 1473.77 487.125 1474.6 487.125 1475.48C487.178 1477.43 486.912 1479.16 486.325 1480.68C485.765 1482.2 484.845 1483.39 483.565 1484.24C482.312 1485.07 480.605 1485.48 478.445 1485.48ZM478.445 1480.88C479.218 1480.88 479.792 1480.61 480.165 1480.08C480.538 1479.55 480.778 1478.89 480.885 1478.12C480.992 1477.35 481.045 1476.6 481.045 1475.88C481.072 1475.03 481.018 1474.2 480.885 1473.4C480.778 1472.6 480.538 1471.95 480.165 1471.44C479.792 1470.93 479.218 1470.68 478.445 1470.68C477.698 1470.68 477.125 1470.93 476.725 1471.44C476.352 1471.95 476.098 1472.6 475.965 1473.4C475.858 1474.17 475.805 1475 475.805 1475.88C475.805 1476.6 475.858 1477.36 475.965 1478.16C476.072 1478.93 476.312 1479.59 476.685 1480.12C477.085 1480.63 477.672 1480.88 478.445 1480.88ZM478.445 1465.64C478.978 1465.64 479.405 1465.44 479.725 1465.04C480.072 1464.64 480.325 1464.07 480.485 1463.32C480.645 1462.57 480.725 1461.69 480.725 1460.68C480.725 1459.53 480.538 1458.61 480.165 1457.92C479.818 1457.2 479.245 1456.84 478.445 1456.84C477.645 1456.84 477.045 1457.2 476.645 1457.92C476.272 1458.61 476.085 1459.52 476.085 1460.64C476.085 1461.65 476.152 1462.55 476.285 1463.32C476.445 1464.07 476.698 1464.64 477.045 1465.04C477.418 1465.44 477.885 1465.64 478.445 1465.64ZM498.99 1485.56C496.83 1485.56 495.11 1485.16 493.83 1484.36C492.577 1483.53 491.67 1482.39 491.11 1480.92C490.55 1479.43 490.27 1477.72 490.27 1475.8V1474.64H496.43C496.43 1474.69 496.43 1474.84 496.43 1475.08C496.43 1475.29 496.43 1475.51 496.43 1475.72C496.457 1476.76 496.537 1477.63 496.67 1478.32C496.83 1478.99 497.097 1479.49 497.47 1479.84C497.843 1480.19 498.377 1480.36 499.07 1480.36C499.79 1480.36 500.323 1480.19 500.67 1479.84C501.017 1479.47 501.257 1478.93 501.39 1478.24C501.523 1477.55 501.59 1476.69 501.59 1475.68C501.59 1474.05 501.35 1472.8 500.87 1471.92C500.39 1471.01 499.43 1470.55 497.99 1470.52C497.963 1470.52 497.83 1470.52 497.59 1470.52C497.35 1470.52 497.123 1470.52 496.91 1470.52V1465.96C497.07 1465.96 497.23 1465.96 497.39 1465.96C497.577 1465.96 497.737 1465.96 497.87 1465.96C499.31 1465.96 500.283 1465.57 500.79 1464.8C501.323 1464.03 501.59 1462.81 501.59 1461.16C501.59 1459.88 501.403 1458.88 501.03 1458.16C500.657 1457.44 499.963 1457.08 498.95 1457.08C497.937 1457.08 497.27 1457.48 496.95 1458.28C496.63 1459.08 496.457 1460.11 496.43 1461.36C496.43 1461.57 496.43 1461.81 496.43 1462.08C496.43 1462.32 496.43 1462.56 496.43 1462.8H490.27V1461.04C490.27 1459.15 490.617 1457.55 491.31 1456.24C492.003 1454.91 492.99 1453.89 494.27 1453.2C495.55 1452.51 497.11 1452.16 498.95 1452.16C500.79 1452.16 502.363 1452.49 503.67 1453.16C504.977 1453.83 505.963 1454.8 506.63 1456.08C507.323 1457.36 507.67 1458.95 507.67 1460.84C507.67 1462.73 507.27 1464.31 506.47 1465.56C505.697 1466.81 504.737 1467.61 503.59 1467.96C504.39 1468.23 505.097 1468.67 505.71 1469.28C506.323 1469.89 506.803 1470.72 507.15 1471.76C507.497 1472.77 507.67 1474.04 507.67 1475.56C507.67 1477.51 507.39 1479.24 506.83 1480.76C506.27 1482.25 505.35 1483.43 504.07 1484.28C502.79 1485.13 501.097 1485.56 498.99 1485.56ZM519.944 1485V1477.44H510.104V1472.6L518.544 1452.6H525.744V1472.72H528.864V1477.44H525.744V1485H519.944ZM514.984 1472.72H519.944V1458.96L514.984 1472.72ZM534.703 1485V1459C534.463 1459.13 534.129 1459.28 533.703 1459.44C533.303 1459.57 532.863 1459.73 532.383 1459.92C531.903 1460.08 531.449 1460.24 531.023 1460.4C530.596 1460.53 530.262 1460.65 530.023 1460.76V1456.2C530.343 1456.04 530.769 1455.83 531.303 1455.56C531.863 1455.29 532.449 1455 533.063 1454.68C533.676 1454.36 534.249 1454.01 534.783 1453.64C535.343 1453.27 535.769 1452.92 536.063 1452.6H540.863V1485H534.703ZM554.888 1485.56C552.728 1485.56 551.008 1485.16 549.728 1484.36C548.475 1483.53 547.568 1482.39 547.008 1480.92C546.448 1479.43 546.168 1477.72 546.168 1475.8V1474.64H552.328C552.328 1474.69 552.328 1474.84 552.328 1475.08C552.328 1475.29 552.328 1475.51 552.328 1475.72C552.355 1476.76 552.435 1477.63 552.568 1478.32C552.728 1478.99 552.995 1479.49 553.368 1479.84C553.742 1480.19 554.275 1480.36 554.968 1480.36C555.688 1480.36 556.222 1480.19 556.568 1479.84C556.915 1479.47 557.155 1478.93 557.288 1478.24C557.422 1477.55 557.488 1476.69 557.488 1475.68C557.488 1474.05 557.248 1472.8 556.768 1471.92C556.288 1471.01 555.328 1470.55 553.888 1470.52C553.862 1470.52 553.728 1470.52 553.488 1470.52C553.248 1470.52 553.022 1470.52 552.808 1470.52V1465.96C552.968 1465.96 553.128 1465.96 553.288 1465.96C553.475 1465.96 553.635 1465.96 553.768 1465.96C555.208 1465.96 556.182 1465.57 556.688 1464.8C557.222 1464.03 557.488 1462.81 557.488 1461.16C557.488 1459.88 557.302 1458.88 556.928 1458.16C556.555 1457.44 555.862 1457.08 554.848 1457.08C553.835 1457.08 553.168 1457.48 552.848 1458.28C552.528 1459.08 552.355 1460.11 552.328 1461.36C552.328 1461.57 552.328 1461.81 552.328 1462.08C552.328 1462.32 552.328 1462.56 552.328 1462.8H546.168V1461.04C546.168 1459.15 546.515 1457.55 547.208 1456.24C547.902 1454.91 548.888 1453.89 550.168 1453.2C551.448 1452.51 553.008 1452.16 554.848 1452.16C556.688 1452.16 558.262 1452.49 559.568 1453.16C560.875 1453.83 561.862 1454.8 562.528 1456.08C563.222 1457.36 563.568 1458.95 563.568 1460.84C563.568 1462.73 563.168 1464.31 562.368 1465.56C561.595 1466.81 560.635 1467.61 559.488 1467.96C560.288 1468.23 560.995 1468.67 561.608 1469.28C562.222 1469.89 562.702 1470.72 563.048 1471.76C563.395 1472.77 563.568 1474.04 563.568 1475.56C563.568 1477.51 563.288 1479.24 562.728 1480.76C562.168 1482.25 561.248 1483.43 559.968 1484.28C558.688 1485.13 556.995 1485.56 554.888 1485.56ZM575.203 1485.48C573.069 1485.48 571.363 1485.07 570.083 1484.24C568.803 1483.39 567.883 1482.2 567.323 1480.68C566.789 1479.16 566.523 1477.43 566.523 1475.48C566.523 1474.6 566.603 1473.77 566.763 1473C566.923 1472.23 567.163 1471.52 567.483 1470.88C567.803 1470.24 568.189 1469.68 568.643 1469.2C569.123 1468.69 569.683 1468.28 570.323 1467.96C569.443 1467.32 568.669 1466.43 568.003 1465.28C567.363 1464.11 567.029 1462.63 567.003 1460.84C566.976 1459.05 567.269 1457.52 567.883 1456.24C568.496 1454.93 569.416 1453.93 570.643 1453.24C571.869 1452.55 573.389 1452.2 575.203 1452.2C577.043 1452.2 578.563 1452.55 579.763 1453.24C580.989 1453.93 581.896 1454.93 582.483 1456.24C583.069 1457.52 583.349 1459.05 583.323 1460.84C583.296 1462.65 582.963 1464.15 582.323 1465.32C581.709 1466.47 580.949 1467.35 580.043 1467.96C580.683 1468.28 581.229 1468.69 581.683 1469.2C582.163 1469.68 582.563 1470.24 582.883 1470.88C583.203 1471.52 583.443 1472.23 583.603 1473C583.789 1473.77 583.883 1474.6 583.883 1475.48C583.936 1477.43 583.669 1479.16 583.083 1480.68C582.523 1482.2 581.603 1483.39 580.323 1484.24C579.069 1485.07 577.363 1485.48 575.203 1485.48ZM575.203 1480.88C575.976 1480.88 576.549 1480.61 576.923 1480.08C577.296 1479.55 577.536 1478.89 577.643 1478.12C577.749 1477.35 577.803 1476.6 577.803 1475.88C577.829 1475.03 577.776 1474.2 577.643 1473.4C577.536 1472.6 577.296 1471.95 576.923 1471.44C576.549 1470.93 575.976 1470.68 575.203 1470.68C574.456 1470.68 573.883 1470.93 573.483 1471.44C573.109 1471.95 572.856 1472.6 572.723 1473.4C572.616 1474.17 572.563 1475 572.563 1475.88C572.563 1476.6 572.616 1477.36 572.723 1478.16C572.829 1478.93 573.069 1479.59 573.443 1480.12C573.843 1480.63 574.429 1480.88 575.203 1480.88ZM575.203 1465.64C575.736 1465.64 576.163 1465.44 576.483 1465.04C576.829 1464.64 577.083 1464.07 577.243 1463.32C577.403 1462.57 577.483 1461.69 577.483 1460.68C577.483 1459.53 577.296 1458.61 576.923 1457.92C576.576 1457.2 576.003 1456.84 575.203 1456.84C574.403 1456.84 573.803 1457.2 573.403 1457.92C573.029 1458.61 572.843 1459.52 572.843 1460.64C572.843 1461.65 572.909 1462.55 573.043 1463.32C573.203 1464.07 573.456 1464.64 573.803 1465.04C574.176 1465.44 574.643 1465.64 575.203 1465.64ZM587.148 1485V1480.64L595.028 1468.52C595.614 1467.61 596.161 1466.75 596.668 1465.92C597.201 1465.09 597.628 1464.25 597.948 1463.4C598.294 1462.52 598.468 1461.59 598.468 1460.6C598.468 1459.56 598.268 1458.77 597.868 1458.24C597.468 1457.68 596.894 1457.4 596.148 1457.4C595.348 1457.4 594.734 1457.63 594.308 1458.08C593.881 1458.51 593.588 1459.08 593.428 1459.8C593.268 1460.52 593.188 1461.31 593.188 1462.16V1463.68H587.148V1462.08C587.148 1460.16 587.441 1458.45 588.028 1456.96C588.641 1455.47 589.588 1454.31 590.868 1453.48C592.174 1452.63 593.881 1452.2 595.988 1452.2C598.841 1452.2 600.988 1452.95 602.428 1454.44C603.868 1455.93 604.588 1458.03 604.588 1460.72C604.588 1462.03 604.388 1463.24 603.988 1464.36C603.588 1465.45 603.054 1466.52 602.388 1467.56C601.748 1468.57 601.054 1469.63 600.308 1470.72L594.068 1480.12H603.708V1485H587.148ZM621.222 1485V1457.52H616.222V1452.6H632.782V1457.52H627.862V1485H621.222ZM642.134 1485.4C640.481 1485.4 639.068 1485.11 637.894 1484.52C636.721 1483.91 635.828 1483.03 635.214 1481.88C634.628 1480.73 634.334 1479.31 634.334 1477.6V1469.28C634.334 1467.57 634.628 1466.15 635.214 1465C635.828 1463.85 636.721 1462.99 637.894 1462.4C639.068 1461.79 640.481 1461.48 642.134 1461.48C643.788 1461.48 645.201 1461.79 646.374 1462.4C647.548 1462.99 648.441 1463.85 649.054 1465C649.668 1466.15 649.974 1467.57 649.974 1469.28V1477.6C649.974 1479.31 649.668 1480.73 649.054 1481.88C648.441 1483.03 647.548 1483.91 646.374 1484.52C645.201 1485.11 643.788 1485.4 642.134 1485.4ZM642.174 1481.32C642.681 1481.32 643.068 1481.19 643.334 1480.92C643.601 1480.63 643.774 1480.24 643.854 1479.76C643.934 1479.25 643.974 1478.68 643.974 1478.04V1468.88C643.974 1468.21 643.934 1467.64 643.854 1467.16C643.774 1466.68 643.601 1466.29 643.334 1466C643.068 1465.71 642.681 1465.56 642.174 1465.56C641.668 1465.56 641.281 1465.71 641.014 1466C640.748 1466.29 640.561 1466.68 640.454 1467.16C640.374 1467.64 640.334 1468.21 640.334 1468.88V1478.04C640.334 1478.68 640.374 1479.25 640.454 1479.76C640.561 1480.24 640.748 1480.63 641.014 1480.92C641.281 1481.19 641.668 1481.32 642.174 1481.32ZM653.643 1485V1461.88H659.683V1464.2C660.509 1463.37 661.376 1462.72 662.283 1462.24C663.216 1461.73 664.203 1461.48 665.243 1461.48C666.203 1461.48 666.976 1461.72 667.563 1462.2C668.176 1462.68 668.629 1463.32 668.923 1464.12C669.216 1464.89 669.363 1465.77 669.363 1466.76V1485H663.363V1467.76C663.363 1467.12 663.256 1466.64 663.043 1466.32C662.856 1466 662.483 1465.84 661.923 1465.84C661.603 1465.84 661.243 1465.93 660.843 1466.12C660.469 1466.28 660.083 1466.51 659.683 1466.8V1485H653.643ZM680.089 1485.4C678.089 1485.4 676.436 1484.92 675.129 1483.96C673.849 1482.97 672.849 1481.47 672.129 1479.44L676.369 1477.68C676.769 1478.8 677.249 1479.68 677.809 1480.32C678.369 1480.93 679.022 1481.24 679.769 1481.24C680.329 1481.24 680.742 1481.12 681.009 1480.88C681.302 1480.61 681.449 1480.25 681.449 1479.8C681.449 1479.16 681.236 1478.59 680.809 1478.08C680.382 1477.57 679.622 1476.87 678.529 1475.96L676.369 1474.12C675.249 1473.16 674.342 1472.21 673.649 1471.28C672.982 1470.32 672.649 1469.13 672.649 1467.72C672.649 1466.47 672.956 1465.37 673.569 1464.44C674.209 1463.51 675.049 1462.79 676.089 1462.28C677.156 1461.75 678.302 1461.48 679.529 1461.48C681.422 1461.48 682.969 1462.03 684.169 1463.12C685.396 1464.19 686.222 1465.64 686.649 1467.48L682.729 1469.24C682.569 1468.65 682.356 1468.11 682.089 1467.6C681.822 1467.07 681.476 1466.63 681.049 1466.28C680.649 1465.93 680.196 1465.76 679.689 1465.76C679.209 1465.76 678.822 1465.91 678.529 1466.2C678.236 1466.49 678.089 1466.87 678.089 1467.32C678.089 1467.8 678.329 1468.31 678.809 1468.84C679.316 1469.37 680.009 1470.01 680.889 1470.76L683.049 1472.68C683.689 1473.24 684.316 1473.84 684.929 1474.48C685.542 1475.09 686.049 1475.79 686.449 1476.56C686.849 1477.31 687.049 1478.17 687.049 1479.16C687.049 1480.49 686.729 1481.63 686.089 1482.56C685.449 1483.49 684.596 1484.2 683.529 1484.68C682.489 1485.16 681.342 1485.4 680.089 1485.4Z" fill="#0576A4"/>
<g filter="url(#filter1_d_46_3)">
<rect x="50" y="50" width="980" height="756" rx="20" fill="white"/>
</g>
<path d="M219.521 694.435C217.297 694.435 215.46 693.936 214.01 692.936C212.592 691.937 211.528 690.568 210.819 688.827C210.142 687.087 209.804 685.105 209.804 682.881V666.01C209.804 663.722 210.142 661.724 210.819 660.016C211.496 658.275 212.543 656.922 213.961 655.955C215.411 654.988 217.265 654.505 219.521 654.505C221.776 654.505 223.613 654.988 225.032 655.955C226.45 656.922 227.497 658.275 228.174 660.016C228.851 661.724 229.189 663.722 229.189 666.01V682.881C229.189 685.137 228.834 687.135 228.125 688.876C227.449 690.616 226.401 691.986 224.983 692.985C223.565 693.952 221.744 694.435 219.521 694.435ZM219.521 690.181C220.745 690.181 221.664 689.826 222.276 689.117C222.921 688.408 223.356 687.506 223.581 686.41C223.839 685.282 223.968 684.122 223.968 682.93V665.962C223.968 664.705 223.855 663.529 223.63 662.433C223.404 661.305 222.969 660.402 222.324 659.726C221.712 659.049 220.777 658.71 219.521 658.71C218.264 658.71 217.313 659.049 216.668 659.726C216.024 660.402 215.589 661.305 215.363 662.433C215.138 663.529 215.025 664.705 215.025 665.962V682.93C215.025 684.122 215.138 685.282 215.363 686.41C215.621 687.506 216.072 688.408 216.717 689.117C217.393 689.826 218.328 690.181 219.521 690.181Z" fill="black"/>
<path d="M412.505 694.435C410.378 694.435 408.606 694.032 407.188 693.227C405.77 692.421 404.706 691.261 403.997 689.746C403.288 688.231 402.934 686.443 402.934 684.38V683.075H408.058C408.058 683.204 408.058 683.349 408.058 683.51C408.058 683.639 408.058 683.784 408.058 683.945C408.09 685.105 408.219 686.153 408.445 687.087C408.702 688.022 409.138 688.763 409.75 689.311C410.394 689.859 411.313 690.133 412.505 690.133C413.762 690.133 414.713 689.843 415.358 689.262C416.002 688.65 416.437 687.796 416.663 686.7C416.888 685.605 417.001 684.348 417.001 682.93C417.001 680.867 416.614 679.191 415.841 677.902C415.1 676.581 413.778 675.856 411.877 675.727C411.78 675.695 411.651 675.678 411.49 675.678C411.361 675.678 411.248 675.678 411.152 675.678V670.506C411.248 670.506 411.361 670.506 411.49 670.506C411.619 670.506 411.732 670.506 411.829 670.506C413.666 670.441 414.987 669.958 415.793 669.056C416.598 668.153 417.001 666.655 417.001 664.56C417.001 662.787 416.695 661.369 416.083 660.306C415.503 659.242 414.326 658.71 412.554 658.71C410.781 658.71 409.605 659.307 409.025 660.499C408.445 661.659 408.122 663.158 408.058 664.995C408.058 665.124 408.058 665.269 408.058 665.43C408.058 665.559 408.058 665.688 408.058 665.817H402.934V664.511C402.934 662.417 403.288 660.628 403.997 659.146C404.706 657.663 405.77 656.519 407.188 655.713C408.638 654.908 410.427 654.505 412.554 654.505C414.713 654.505 416.502 654.908 417.92 655.713C419.338 656.519 420.401 657.679 421.11 659.194C421.819 660.676 422.174 662.465 422.174 664.56C422.174 666.912 421.658 668.798 420.627 670.216C419.628 671.634 418.274 672.601 416.566 673.116C417.759 673.471 418.758 674.083 419.563 674.953C420.401 675.823 421.046 676.935 421.497 678.289C421.948 679.61 422.174 681.157 422.174 682.93C422.174 685.25 421.851 687.28 421.207 689.021C420.562 690.729 419.531 692.066 418.113 693.033C416.695 693.968 414.826 694.435 412.505 694.435Z" fill="black"/>
<path d="M607.424 694.435C605.168 694.435 603.331 693.871 601.913 692.743C600.495 691.583 599.447 690.036 598.771 688.102C598.126 686.136 597.804 683.961 597.804 681.576V668.379C597.804 665.833 598.094 663.512 598.674 661.418C599.254 659.323 600.237 657.647 601.623 656.39C603.041 655.133 604.975 654.505 607.424 654.505C609.454 654.505 611.162 654.875 612.548 655.617C613.966 656.358 615.046 657.437 615.787 658.855C616.56 660.274 616.963 661.998 616.996 664.028C616.996 664.093 616.996 664.189 616.996 664.318C617.028 664.415 617.044 664.511 617.044 664.608H611.823C611.823 662.707 611.517 661.256 610.904 660.257C610.292 659.258 609.132 658.759 607.424 658.759C606.489 658.759 605.684 659.065 605.007 659.677C604.33 660.257 603.814 661.16 603.46 662.384C603.138 663.609 602.976 665.188 602.976 667.122V673.068C603.492 672.262 604.217 671.618 605.152 671.134C606.119 670.619 607.295 670.361 608.681 670.361C610.84 670.361 612.532 670.828 613.757 671.763C614.981 672.697 615.851 674.019 616.367 675.727C616.883 677.403 617.141 679.385 617.141 681.673C617.141 684.025 616.818 686.169 616.174 688.102C615.529 690.036 614.498 691.583 613.08 692.743C611.662 693.871 609.776 694.435 607.424 694.435ZM607.424 690.133C608.584 690.133 609.486 689.81 610.131 689.166C610.776 688.489 611.227 687.603 611.485 686.507C611.775 685.411 611.92 684.219 611.92 682.93C611.92 681.383 611.839 679.949 611.678 678.627C611.549 677.306 611.178 676.259 610.566 675.485C609.954 674.679 608.906 674.277 607.424 674.277C606.715 674.277 606.07 674.405 605.49 674.663C604.91 674.921 604.411 675.259 603.992 675.678C603.573 676.065 603.234 676.484 602.976 676.935V682.785C602.976 684.106 603.105 685.331 603.363 686.459C603.653 687.587 604.12 688.489 604.765 689.166C605.41 689.81 606.296 690.133 607.424 690.133Z" fill="black"/>
<path d="M800.844 694.435C798.813 694.435 797.073 694.064 795.623 693.323C794.205 692.55 793.125 691.438 792.384 689.988C791.643 688.537 791.256 686.781 791.224 684.718C791.224 684.654 791.224 684.589 791.224 684.525C791.224 684.428 791.224 684.348 791.224 684.283H796.396C796.396 686.153 796.702 687.603 797.315 688.634C797.927 689.633 799.12 690.133 800.892 690.133C801.859 690.133 802.665 689.843 803.309 689.262C803.954 688.65 804.437 687.732 804.759 686.507C805.082 685.25 805.243 683.671 805.243 681.77V675.823C804.759 676.629 804.034 677.29 803.067 677.805C802.133 678.289 800.957 678.531 799.539 678.531C797.379 678.531 795.687 678.063 794.463 677.129C793.238 676.162 792.368 674.841 791.852 673.165C791.369 671.457 791.127 669.475 791.127 667.219C791.127 664.834 791.449 662.691 792.094 660.789C792.738 658.855 793.77 657.325 795.188 656.197C796.638 655.069 798.523 654.505 800.844 654.505C803.1 654.505 804.937 655.085 806.355 656.245C807.773 657.373 808.804 658.904 809.449 660.837C810.125 662.771 810.464 664.93 810.464 667.315V680.464C810.464 682.978 810.174 685.298 809.594 687.426C809.014 689.553 808.031 691.261 806.645 692.55C805.259 693.807 803.325 694.435 800.844 694.435ZM800.844 674.615C801.972 674.615 802.89 674.341 803.599 673.793C804.308 673.213 804.856 672.585 805.243 671.908V666.107C805.243 664.753 805.114 663.529 804.856 662.433C804.598 661.305 804.147 660.419 803.503 659.774C802.858 659.097 801.972 658.759 800.844 658.759C799.716 658.759 798.813 659.097 798.137 659.774C797.492 660.451 797.025 661.337 796.735 662.433C796.477 663.496 796.348 664.673 796.348 665.962C796.348 667.509 796.412 668.943 796.541 670.264C796.702 671.585 797.089 672.649 797.702 673.455C798.346 674.228 799.393 674.615 800.844 674.615Z" fill="black"/>
<rect x="408" y="274" width="3" height="342" fill="black" fill-opacity="0.5"/>
<rect x="601" y="274" width="3" height="342" fill="black" fill-opacity="0.5"/>
<rect x="794" y="274" width="3" height="342" fill="black" fill-opacity="0.5"/>
<path d="M94.982 327V323.326L104.94 307.808C105.682 306.648 106.358 305.568 106.971 304.569C107.615 303.57 108.131 302.523 108.518 301.427C108.937 300.299 109.146 299.01 109.146 297.56C109.146 295.755 108.856 294.337 108.276 293.306C107.696 292.274 106.681 291.759 105.23 291.759C104.006 291.759 103.055 292.097 102.378 292.774C101.702 293.451 101.234 294.337 100.976 295.433C100.719 296.529 100.59 297.705 100.59 298.962V300.267H95.4171V298.913C95.4171 296.561 95.7233 294.547 96.3356 292.871C96.9801 291.163 97.9953 289.841 99.3811 288.907C100.799 287.972 102.668 287.505 104.989 287.505C108.147 287.505 110.5 288.407 112.047 290.212C113.594 291.984 114.367 294.45 114.367 297.608C114.367 299.284 114.158 300.75 113.739 302.007C113.352 303.264 112.836 304.44 112.192 305.536C111.547 306.632 110.838 307.76 110.065 308.92L101.073 322.649H113.449V327H94.982ZM128.606 327.435C126.382 327.435 124.545 326.936 123.095 325.936C121.677 324.937 120.613 323.568 119.904 321.827C119.227 320.087 118.889 318.105 118.889 315.881V299.01C118.889 296.722 119.227 294.724 119.904 293.016C120.581 291.275 121.628 289.922 123.046 288.955C124.497 287.988 126.35 287.505 128.606 287.505C130.862 287.505 132.699 287.988 134.117 288.955C135.535 289.922 136.582 291.275 137.259 293.016C137.936 294.724 138.274 296.722 138.274 299.01V315.881C138.274 318.137 137.92 320.135 137.211 321.876C136.534 323.616 135.486 324.986 134.068 325.985C132.65 326.952 130.829 327.435 128.606 327.435ZM128.606 323.181C129.83 323.181 130.749 322.826 131.361 322.117C132.006 321.408 132.441 320.506 132.666 319.41C132.924 318.282 133.053 317.122 133.053 315.93V298.962C133.053 297.705 132.94 296.529 132.715 295.433C132.489 294.305 132.054 293.402 131.409 292.726C130.797 292.049 129.863 291.71 128.606 291.71C127.349 291.71 126.398 292.049 125.753 292.726C125.109 293.402 124.674 294.305 124.448 295.433C124.223 296.529 124.11 297.705 124.11 298.962V315.93C124.11 317.122 124.223 318.282 124.448 319.41C124.706 320.506 125.157 321.408 125.802 322.117C126.479 322.826 127.413 323.181 128.606 323.181ZM143.041 327V323.326L152.999 307.808C153.74 306.648 154.417 305.568 155.029 304.569C155.674 303.57 156.19 302.523 156.576 301.427C156.995 300.299 157.205 299.01 157.205 297.56C157.205 295.755 156.915 294.337 156.335 293.306C155.755 292.274 154.739 291.759 153.289 291.759C152.064 291.759 151.114 292.097 150.437 292.774C149.76 293.451 149.293 294.337 149.035 295.433C148.777 296.529 148.648 297.705 148.648 298.962V300.267H143.476V298.913C143.476 296.561 143.782 294.547 144.394 292.871C145.039 291.163 146.054 289.841 147.44 288.907C148.858 287.972 150.727 287.505 153.047 287.505C156.206 287.505 158.558 288.407 160.105 290.212C161.652 291.984 162.426 294.45 162.426 297.608C162.426 299.284 162.216 300.75 161.797 302.007C161.411 303.264 160.895 304.44 160.25 305.536C159.606 306.632 158.897 307.76 158.123 308.92L149.132 322.649H161.507V327H143.041ZM176.664 327.435C174.441 327.435 172.604 326.936 171.153 325.936C169.735 324.937 168.672 323.568 167.963 321.827C167.286 320.087 166.948 318.105 166.948 315.881V299.01C166.948 296.722 167.286 294.724 167.963 293.016C168.639 291.275 169.687 289.922 171.105 288.955C172.555 287.988 174.408 287.505 176.664 287.505C178.92 287.505 180.757 287.988 182.175 288.955C183.593 289.922 184.641 291.275 185.317 293.016C185.994 294.724 186.333 296.722 186.333 299.01V315.881C186.333 318.137 185.978 320.135 185.269 321.876C184.592 323.616 183.545 324.986 182.127 325.985C180.709 326.952 178.888 327.435 176.664 327.435ZM176.664 323.181C177.889 323.181 178.807 322.826 179.42 322.117C180.064 321.408 180.499 320.506 180.725 319.41C180.983 318.282 181.112 317.122 181.112 315.93V298.962C181.112 297.705 180.999 296.529 180.773 295.433C180.548 294.305 180.113 293.402 179.468 292.726C178.856 292.049 177.921 291.71 176.664 291.71C175.407 291.71 174.457 292.049 173.812 292.726C173.168 293.402 172.732 294.305 172.507 295.433C172.281 296.529 172.168 297.705 172.168 298.962V315.93C172.168 317.122 172.281 318.282 172.507 319.41C172.765 320.506 173.216 321.408 173.86 322.117C174.537 322.826 175.472 323.181 176.664 323.181Z" fill="#343336"/>
<path d="M91.982 420V416.326L101.94 400.808C102.682 399.648 103.358 398.568 103.971 397.569C104.615 396.57 105.131 395.523 105.518 394.427C105.937 393.299 106.146 392.01 106.146 390.56C106.146 388.755 105.856 387.337 105.276 386.306C104.696 385.274 103.681 384.759 102.23 384.759C101.006 384.759 100.055 385.097 99.3783 385.774C98.7015 386.451 98.2342 387.337 97.9764 388.433C97.7186 389.529 97.5897 390.705 97.5897 391.962V393.267H92.4171V391.913C92.4171 389.561 92.7233 387.547 93.3356 385.871C93.9801 384.163 94.9953 382.841 96.3811 381.907C97.7992 380.972 99.6684 380.505 101.989 380.505C105.147 380.505 107.5 381.407 109.047 383.212C110.594 384.984 111.367 387.45 111.367 390.608C111.367 392.284 111.158 393.75 110.739 395.007C110.352 396.264 109.836 397.44 109.192 398.536C108.547 399.632 107.838 400.76 107.065 401.92L98.0731 415.649H110.449V420H91.982ZM125.606 420.435C123.382 420.435 121.545 419.936 120.095 418.936C118.677 417.937 117.613 416.568 116.904 414.827C116.227 413.087 115.889 411.105 115.889 408.881V392.01C115.889 389.722 116.227 387.724 116.904 386.016C117.581 384.275 118.628 382.922 120.046 381.955C121.497 380.988 123.35 380.505 125.606 380.505C127.862 380.505 129.699 380.988 131.117 381.955C132.535 382.922 133.582 384.275 134.259 386.016C134.936 387.724 135.274 389.722 135.274 392.01V408.881C135.274 411.137 134.92 413.135 134.211 414.876C133.534 416.616 132.486 417.986 131.068 418.985C129.65 419.952 127.829 420.435 125.606 420.435ZM125.606 416.181C126.83 416.181 127.749 415.826 128.361 415.117C129.006 414.408 129.441 413.506 129.666 412.41C129.924 411.282 130.053 410.122 130.053 408.93V391.962C130.053 390.705 129.94 389.529 129.715 388.433C129.489 387.305 129.054 386.402 128.409 385.726C127.797 385.049 126.863 384.71 125.606 384.71C124.349 384.71 123.398 385.049 122.753 385.726C122.109 386.402 121.674 387.305 121.448 388.433C121.223 389.529 121.11 390.705 121.11 391.962V408.93C121.11 410.122 121.223 411.282 121.448 412.41C121.706 413.506 122.157 414.408 122.802 415.117C123.479 415.826 124.413 416.181 125.606 416.181ZM140.041 420V416.326L149.999 400.808C150.74 399.648 151.417 398.568 152.029 397.569C152.674 396.57 153.19 395.523 153.576 394.427C153.995 393.299 154.205 392.01 154.205 390.56C154.205 388.755 153.915 387.337 153.335 386.306C152.755 385.274 151.739 384.759 150.289 384.759C149.064 384.759 148.114 385.097 147.437 385.774C146.76 386.451 146.293 387.337 146.035 388.433C145.777 389.529 145.648 390.705 145.648 391.962V393.267H140.476V391.913C140.476 389.561 140.782 387.547 141.394 385.871C142.039 384.163 143.054 382.841 144.44 381.907C145.858 380.972 147.727 380.505 150.047 380.505C153.206 380.505 155.558 381.407 157.105 383.212C158.652 384.984 159.426 387.45 159.426 390.608C159.426 392.284 159.216 393.75 158.797 395.007C158.411 396.264 157.895 397.44 157.25 398.536C156.606 399.632 155.897 400.76 155.123 401.92L146.132 415.649H158.507V420H140.041ZM169.41 420V387.611C169.378 387.643 169.007 387.74 168.298 387.901C167.622 388.062 166.848 388.223 165.978 388.384C165.108 388.546 164.334 388.691 163.657 388.82C162.981 388.948 162.626 389.013 162.594 389.013V385.097C163.142 384.968 163.77 384.791 164.479 384.565C165.221 384.34 165.962 384.066 166.703 383.744C167.476 383.421 168.202 383.018 168.878 382.535C169.587 382.052 170.184 381.488 170.667 380.843H174.583V420H169.41Z" fill="#343336"/>
<path d="M91.982 505V501.326L101.94 485.808C102.682 484.648 103.358 483.568 103.971 482.569C104.615 481.57 105.131 480.523 105.518 479.427C105.937 478.299 106.146 477.01 106.146 475.56C106.146 473.755 105.856 472.337 105.276 471.306C104.696 470.274 103.681 469.759 102.23 469.759C101.006 469.759 100.055 470.097 99.3783 470.774C98.7015 471.451 98.2342 472.337 97.9764 473.433C97.7186 474.529 97.5897 475.705 97.5897 476.962V478.267H92.4171V476.913C92.4171 474.561 92.7233 472.547 93.3356 470.871C93.9801 469.163 94.9953 467.841 96.3811 466.907C97.7992 465.972 99.6684 465.505 101.989 465.505C105.147 465.505 107.5 466.407 109.047 468.212C110.594 469.984 111.367 472.45 111.367 475.608C111.367 477.284 111.158 478.75 110.739 480.007C110.352 481.264 109.836 482.44 109.192 483.536C108.547 484.632 107.838 485.76 107.065 486.92L98.0731 500.649H110.449V505H91.982ZM125.606 505.435C123.382 505.435 121.545 504.936 120.095 503.936C118.677 502.937 117.613 501.568 116.904 499.827C116.227 498.087 115.889 496.105 115.889 493.881V477.01C115.889 474.722 116.227 472.724 116.904 471.016C117.581 469.275 118.628 467.922 120.046 466.955C121.497 465.988 123.35 465.505 125.606 465.505C127.862 465.505 129.699 465.988 131.117 466.955C132.535 467.922 133.582 469.275 134.259 471.016C134.936 472.724 135.274 474.722 135.274 477.01V493.881C135.274 496.137 134.92 498.135 134.211 499.876C133.534 501.616 132.486 502.986 131.068 503.985C129.65 504.952 127.829 505.435 125.606 505.435ZM125.606 501.181C126.83 501.181 127.749 500.826 128.361 500.117C129.006 499.408 129.441 498.506 129.666 497.41C129.924 496.282 130.053 495.122 130.053 493.93V476.962C130.053 475.705 129.94 474.529 129.715 473.433C129.489 472.305 129.054 471.402 128.409 470.726C127.797 470.049 126.863 469.71 125.606 469.71C124.349 469.71 123.398 470.049 122.753 470.726C122.109 471.402 121.674 472.305 121.448 473.433C121.223 474.529 121.11 475.705 121.11 476.962V493.93C121.11 495.122 121.223 496.282 121.448 497.41C121.706 498.506 122.157 499.408 122.802 500.117C123.479 500.826 124.413 501.181 125.606 501.181ZM140.041 505V501.326L149.999 485.808C150.74 484.648 151.417 483.568 152.029 482.569C152.674 481.57 153.19 480.523 153.576 479.427C153.995 478.299 154.205 477.01 154.205 475.56C154.205 473.755 153.915 472.337 153.335 471.306C152.755 470.274 151.739 469.759 150.289 469.759C149.064 469.759 148.114 470.097 147.437 470.774C146.76 471.451 146.293 472.337 146.035 473.433C145.777 474.529 145.648 475.705 145.648 476.962V478.267H140.476V476.913C140.476 474.561 140.782 472.547 141.394 470.871C142.039 469.163 143.054 467.841 144.44 466.907C145.858 465.972 147.727 465.505 150.047 465.505C153.206 465.505 155.558 466.407 157.105 468.212C158.652 469.984 159.426 472.45 159.426 475.608C159.426 477.284 159.216 478.75 158.797 480.007C158.411 481.264 157.895 482.44 157.25 483.536C156.606 484.632 155.897 485.76 155.123 486.92L146.132 500.649H158.507V505H140.041ZM163.126 505V501.326L173.084 485.808C173.825 484.648 174.502 483.568 175.114 482.569C175.759 481.57 176.275 480.523 176.661 479.427C177.08 478.299 177.29 477.01 177.29 475.56C177.29 473.755 177 472.337 176.42 471.306C175.84 470.274 174.824 469.759 173.374 469.759C172.15 469.759 171.199 470.097 170.522 470.774C169.845 471.451 169.378 472.337 169.12 473.433C168.862 474.529 168.733 475.705 168.733 476.962V478.267H163.561V476.913C163.561 474.561 163.867 472.547 164.479 470.871C165.124 469.163 166.139 467.841 167.525 466.907C168.943 465.972 170.812 465.505 173.132 465.505C176.291 465.505 178.643 466.407 180.19 468.212C181.737 469.984 182.511 472.45 182.511 475.608C182.511 477.284 182.301 478.75 181.882 480.007C181.496 481.264 180.98 482.44 180.335 483.536C179.691 484.632 178.982 485.76 178.208 486.92L169.217 500.649H181.592V505H163.126Z" fill="#343336"/>
<path d="M94.982 604V600.326L104.94 584.808C105.682 583.648 106.358 582.568 106.971 581.569C107.615 580.57 108.131 579.523 108.518 578.427C108.937 577.299 109.146 576.01 109.146 574.56C109.146 572.755 108.856 571.337 108.276 570.306C107.696 569.274 106.681 568.759 105.23 568.759C104.006 568.759 103.055 569.097 102.378 569.774C101.702 570.451 101.234 571.337 100.976 572.433C100.719 573.529 100.59 574.705 100.59 575.962V577.267H95.4171V575.913C95.4171 573.561 95.7233 571.547 96.3356 569.871C96.9801 568.163 97.9953 566.841 99.3811 565.907C100.799 564.972 102.668 564.505 104.989 564.505C108.147 564.505 110.5 565.407 112.047 567.212C113.594 568.984 114.367 571.45 114.367 574.608C114.367 576.284 114.158 577.75 113.739 579.007C113.352 580.264 112.836 581.44 112.192 582.536C111.547 583.632 110.838 584.76 110.065 585.92L101.073 599.649H113.449V604H94.982ZM128.606 604.435C126.382 604.435 124.545 603.936 123.095 602.936C121.677 601.937 120.613 600.568 119.904 598.827C119.227 597.087 118.889 595.105 118.889 592.881V576.01C118.889 573.722 119.227 571.724 119.904 570.016C120.581 568.275 121.628 566.922 123.046 565.955C124.497 564.988 126.35 564.505 128.606 564.505C130.862 564.505 132.699 564.988 134.117 565.955C135.535 566.922 136.582 568.275 137.259 570.016C137.936 571.724 138.274 573.722 138.274 576.01V592.881C138.274 595.137 137.92 597.135 137.211 598.876C136.534 600.616 135.486 601.986 134.068 602.985C132.65 603.952 130.829 604.435 128.606 604.435ZM128.606 600.181C129.83 600.181 130.749 599.826 131.361 599.117C132.006 598.408 132.441 597.506 132.666 596.41C132.924 595.282 133.053 594.122 133.053 592.93V575.962C133.053 574.705 132.94 573.529 132.715 572.433C132.489 571.305 132.054 570.402 131.409 569.726C130.797 569.049 129.863 568.71 128.606 568.71C127.349 568.71 126.398 569.049 125.753 569.726C125.109 570.402 124.674 571.305 124.448 572.433C124.223 573.529 124.11 574.705 124.11 575.962V592.93C124.11 594.122 124.223 595.282 124.448 596.41C124.706 597.506 125.157 598.408 125.802 599.117C126.479 599.826 127.413 600.181 128.606 600.181ZM143.041 604V600.326L152.999 584.808C153.74 583.648 154.417 582.568 155.029 581.569C155.674 580.57 156.19 579.523 156.576 578.427C156.995 577.299 157.205 576.01 157.205 574.56C157.205 572.755 156.915 571.337 156.335 570.306C155.755 569.274 154.739 568.759 153.289 568.759C152.064 568.759 151.114 569.097 150.437 569.774C149.76 570.451 149.293 571.337 149.035 572.433C148.777 573.529 148.648 574.705 148.648 575.962V577.267H143.476V575.913C143.476 573.561 143.782 571.547 144.394 569.871C145.039 568.163 146.054 566.841 147.44 565.907C148.858 564.972 150.727 564.505 153.047 564.505C156.206 564.505 158.558 565.407 160.105 567.212C161.652 568.984 162.426 571.45 162.426 574.608C162.426 576.284 162.216 577.75 161.797 579.007C161.411 580.264 160.895 581.44 160.25 582.536C159.606 583.632 158.897 584.76 158.123 585.92L149.132 599.649H161.507V604H143.041ZM175.649 604.435C173.522 604.435 171.749 604.032 170.331 603.227C168.913 602.421 167.85 601.261 167.141 599.746C166.432 598.231 166.077 596.443 166.077 594.38V593.075H171.202C171.202 593.204 171.202 593.349 171.202 593.51C171.202 593.639 171.202 593.784 171.202 593.945C171.234 595.105 171.363 596.153 171.588 597.087C171.846 598.022 172.281 598.763 172.894 599.311C173.538 599.859 174.457 600.133 175.649 600.133C176.906 600.133 177.857 599.843 178.501 599.262C179.146 598.65 179.581 597.796 179.806 596.7C180.032 595.605 180.145 594.348 180.145 592.93C180.145 590.867 179.758 589.191 178.985 587.902C178.243 586.581 176.922 585.856 175.021 585.727C174.924 585.695 174.795 585.678 174.634 585.678C174.505 585.678 174.392 585.678 174.295 585.678V580.506C174.392 580.506 174.505 580.506 174.634 580.506C174.763 580.506 174.876 580.506 174.972 580.506C176.809 580.441 178.131 579.958 178.936 579.056C179.742 578.153 180.145 576.655 180.145 574.56C180.145 572.787 179.839 571.369 179.226 570.306C178.646 569.242 177.47 568.71 175.697 568.71C173.925 568.71 172.749 569.307 172.168 570.499C171.588 571.659 171.266 573.158 171.202 574.995C171.202 575.124 171.202 575.269 171.202 575.43C171.202 575.559 171.202 575.688 171.202 575.817H166.077V574.511C166.077 572.417 166.432 570.628 167.141 569.146C167.85 567.663 168.913 566.519 170.331 565.713C171.782 564.908 173.57 564.505 175.697 564.505C177.857 564.505 179.645 564.908 181.063 565.713C182.481 566.519 183.545 567.679 184.254 569.194C184.963 570.676 185.317 572.465 185.317 574.56C185.317 576.912 184.802 578.798 183.77 580.216C182.771 581.634 181.418 582.601 179.71 583.116C180.902 583.471 181.901 584.083 182.707 584.953C183.545 585.823 184.189 586.935 184.641 588.289C185.092 589.61 185.317 591.157 185.317 592.93C185.317 595.25 184.995 597.28 184.351 599.021C183.706 600.729 182.675 602.066 181.257 603.033C179.839 603.968 177.969 604.435 175.649 604.435Z" fill="#343336"/>
<rect x="878" y="295" width="22.2372" height="660" rx="11.1186" transform="rotate(90 878 295)" fill="#D9D9D9"/>
<path d="M366.5 295L366.5 317.237L229.119 317.237C222.978 317.237 218 312.259 218 306.119C218 299.978 222.978 295 229.119 295L366.5 295Z" fill="#81B2C6"/>
<path d="M573.928 295L573.928 317.237L366.499 317.237L366.499 295L573.928 295Z" fill="#954FAD"/>
<path d="M710.643 295L710.643 317.237L573.928 317.237L573.928 295L710.643 295Z" fill="#D8CA4D"/>
<path d="M866.881 295C873.022 295 878 299.978 878 306.119C878 312.259 873.022 317.237 866.881 317.237L710.643 317.237L710.643 295L866.881 295Z" fill="#8184C6"/>
<rect x="989.39" y="387" width="22.2372" height="770.577" rx="11.1186" transform="rotate(90 989.39 387)" fill="#D9D9D9"/>
<path d="M392.192 387L392.192 409.237L229.931 409.237C223.791 409.237 218.813 404.259 218.813 398.119C218.813 391.978 223.791 387 229.931 387L392.192 387Z" fill="#81B2C6"/>
<path d="M634.373 387L634.373 409.237L392.192 409.237L392.192 387L634.373 387Z" fill="#954FAD"/>
<path d="M877.932 387L877.932 409.237L634.374 409.237L634.374 387L877.932 387Z" fill="#D8CA4D"/>
<path d="M978.271 387C984.412 387 989.39 391.978 989.39 398.119C989.39 404.259 984.412 409.237 978.271 409.237L877.931 409.237L877.931 387L978.271 387Z" fill="#8184C6"/>
<rect x="903" y="479" width="22.2372" height="685" rx="11.1186" transform="rotate(90 903 479)" fill="#D9D9D9"/>
<path d="M372.125 479L372.125 501.237L229.119 501.237C222.978 501.237 218 496.259 218 490.119C218 483.978 222.978 479 229.119 479L372.125 479Z" fill="#81B2C6"/>
<path d="M474.875 479L474.875 501.237L372.125 501.237L372.125 479L474.875 479Z" fill="#954FAD"/>
<path d="M729.304 479L729.304 501.237L474.875 501.237L474.875 479L729.304 479Z" fill="#D8CA4D"/>
<path d="M891.881 479C898.022 479 903 483.978 903 490.119C903 496.259 898.022 501.237 891.881 501.237L729.304 501.237L729.304 479L891.881 479Z" fill="#8184C6"/>
<rect x="872" y="571" width="22.2372" height="652.577" rx="11.1186" transform="rotate(90 872 571)" fill="#D9D9D9"/>
<path d="M366.253 571L366.253 593.237L230.542 593.237C224.401 593.237 219.423 588.259 219.423 582.119C219.423 575.978 224.401 571 230.542 571L366.253 571Z" fill="#81B2C6"/>
<path d="M706.525 571L706.525 593.237L571.349 593.237L571.349 571L706.525 571Z" fill="#D8CA4D"/>
<path d="M628.448 571L628.448 593.237L366.252 593.237L366.252 571L628.448 571Z" fill="#954FAD"/>
<path d="M860.881 571C867.022 571 872 575.978 872 582.119C872 588.259 867.022 593.237 860.881 593.237L706.525 593.237L706.525 571L860.881 571Z" fill="#8184C6"/>
<rect x="215" y="274" width="3" height="342" fill="black"/>
<rect x="105.867" y="116" width="61.8776" height="61.8776" rx="14.5026" fill="#81B2C6"/>
<rect x="329.207" y="116" width="61.8776" height="61.8776" rx="14.5026" fill="#954FAD"/>
<rect x="584.451" y="116" width="61.8776" height="61.8776" rx="14.5026" fill="#D8CA4D"/>
<rect x="779.753" y="116" width="61.8776" height="61.8776" rx="14.5026" fill="#8184C6"/>
<path d="M191.094 162.901V123.744H196.557V140.663H206.612V123.744H212.075V162.901H206.612V144.579H196.557V162.901H191.094ZM225.444 163.287C223.381 163.287 221.753 162.868 220.561 162.03C219.369 161.192 218.515 160 217.999 158.453C217.515 156.906 217.274 155.085 217.274 152.99V144.869C217.274 142.774 217.515 140.953 217.999 139.406C218.515 137.859 219.369 136.667 220.561 135.829C221.753 134.991 223.381 134.572 225.444 134.572C227.506 134.572 229.117 134.991 230.278 135.829C231.47 136.667 232.308 137.859 232.791 139.406C233.307 140.953 233.565 142.774 233.565 144.869V152.99C233.565 155.085 233.307 156.906 232.791 158.453C232.308 160 231.47 161.192 230.278 162.03C229.117 162.868 227.506 163.287 225.444 163.287ZM225.444 159.468C226.443 159.468 227.135 159.178 227.522 158.598C227.941 158.018 228.183 157.261 228.247 156.326C228.344 155.359 228.392 154.36 228.392 153.329V144.579C228.392 143.515 228.344 142.516 228.247 141.582C228.183 140.647 227.941 139.89 227.522 139.31C227.135 138.697 226.443 138.391 225.444 138.391C224.444 138.391 223.735 138.697 223.316 139.31C222.898 139.89 222.64 140.647 222.543 141.582C222.479 142.516 222.446 143.515 222.446 144.579V153.329C222.446 154.36 222.479 155.359 222.543 156.326C222.64 157.261 222.898 158.018 223.316 158.598C223.735 159.178 224.444 159.468 225.444 159.468ZM238.293 162.901V134.959H243.079V137.618C244.013 136.554 245.045 135.765 246.173 135.249C247.301 134.733 248.461 134.476 249.653 134.476C250.685 134.476 251.603 134.733 252.409 135.249C253.247 135.765 253.843 136.683 254.197 138.004C255.197 136.78 256.276 135.894 257.436 135.346C258.629 134.766 259.87 134.476 261.159 134.476C262.061 134.476 262.883 134.701 263.624 135.152C264.365 135.571 264.962 136.264 265.413 137.231C265.864 138.166 266.09 139.406 266.09 140.953V162.901H261.352V141.292C261.352 139.938 261.126 139.036 260.675 138.585C260.256 138.101 259.676 137.859 258.935 137.859C258.226 137.859 257.485 138.069 256.711 138.488C255.938 138.875 255.229 139.422 254.584 140.132C254.584 140.26 254.584 140.389 254.584 140.518C254.584 140.647 254.584 140.792 254.584 140.953V162.901H249.847V141.292C249.847 139.938 249.621 139.036 249.17 138.585C248.751 138.101 248.171 137.859 247.43 137.859C246.721 137.859 245.979 138.069 245.206 138.488C244.465 138.875 243.756 139.422 243.079 140.132V162.901H238.293ZM278.885 163.287C276.694 163.287 275.002 162.868 273.809 162.03C272.617 161.16 271.779 159.903 271.295 158.26C270.844 156.584 270.619 154.537 270.619 152.12V145.739C270.619 143.258 270.86 141.195 271.344 139.551C271.827 137.908 272.665 136.667 273.857 135.829C275.082 134.991 276.758 134.572 278.885 134.572C281.238 134.572 282.962 135.056 284.058 136.022C285.186 136.989 285.927 138.391 286.281 140.228C286.636 142.033 286.813 144.208 286.813 146.754V149.026H275.791V154.634C275.791 155.762 275.888 156.681 276.081 157.39C276.307 158.099 276.645 158.63 277.096 158.985C277.58 159.307 278.192 159.468 278.933 159.468C279.707 159.468 280.287 159.291 280.674 158.936C281.093 158.55 281.367 158.018 281.495 157.341C281.657 156.632 281.737 155.81 281.737 154.876V153.184H286.765V154.247C286.765 157.051 286.169 159.259 284.976 160.87C283.784 162.482 281.753 163.287 278.885 163.287ZM275.791 146.223H281.737V143.709C281.737 142.549 281.673 141.582 281.544 140.808C281.415 140.003 281.141 139.406 280.722 139.02C280.335 138.601 279.707 138.391 278.837 138.391C277.999 138.391 277.354 138.585 276.903 138.971C276.484 139.358 276.194 140.019 276.033 140.953C275.872 141.856 275.791 143.113 275.791 144.724V146.223Z" fill="#A7A7A7"/>
<path d="M414.337 162.901L415.062 123.744H420.428L427.341 155.504L434.302 123.744H439.619L440.344 162.901H435.945L435.51 134.476L428.887 162.901H425.794L419.219 134.476L418.784 162.901H414.337ZM453.598 163.287C451.535 163.287 449.908 162.868 448.715 162.03C447.523 161.192 446.669 160 446.153 158.453C445.67 156.906 445.428 155.085 445.428 152.99V144.869C445.428 142.774 445.67 140.953 446.153 139.406C446.669 137.859 447.523 136.667 448.715 135.829C449.908 134.991 451.535 134.572 453.598 134.572C455.66 134.572 457.272 134.991 458.432 135.829C459.624 136.667 460.462 137.859 460.946 139.406C461.461 140.953 461.719 142.774 461.719 144.869V152.99C461.719 155.085 461.461 156.906 460.946 158.453C460.462 160 459.624 161.192 458.432 162.03C457.272 162.868 455.66 163.287 453.598 163.287ZM453.598 159.468C454.597 159.468 455.29 159.178 455.676 158.598C456.095 158.018 456.337 157.261 456.402 156.326C456.498 155.359 456.547 154.36 456.547 153.329V144.579C456.547 143.515 456.498 142.516 456.402 141.582C456.337 140.647 456.095 139.89 455.676 139.31C455.29 138.697 454.597 138.391 453.598 138.391C452.599 138.391 451.89 138.697 451.471 139.31C451.052 139.89 450.794 140.647 450.697 141.582C450.633 142.516 450.6 143.515 450.6 144.579V153.329C450.6 154.36 450.633 155.359 450.697 156.326C450.794 157.261 451.052 158.018 451.471 158.598C451.89 159.178 452.599 159.468 453.598 159.468ZM476.454 163.287C475.455 163.287 474.552 163.046 473.747 162.562C472.973 162.046 472.297 161.482 471.716 160.87V162.901H466.544V123.744H471.716V137.183C472.329 136.474 473.054 135.861 473.892 135.346C474.762 134.83 475.793 134.572 476.986 134.572C478.436 134.572 479.58 134.959 480.418 135.732C481.288 136.474 481.933 137.424 482.352 138.585C482.771 139.713 483.045 140.873 483.173 142.065C483.302 143.225 483.367 144.224 483.367 145.062V151.83C483.367 153.796 483.173 155.665 482.787 157.438C482.4 159.178 481.707 160.596 480.708 161.692C479.709 162.755 478.291 163.287 476.454 163.287ZM475.39 159.227C476.293 159.227 476.937 158.904 477.324 158.26C477.711 157.583 477.953 156.681 478.049 155.553C478.146 154.425 478.194 153.184 478.194 151.83V145.062C478.194 143.902 478.13 142.839 478.001 141.872C477.872 140.873 477.598 140.083 477.179 139.503C476.76 138.923 476.099 138.633 475.197 138.633C474.52 138.633 473.876 138.778 473.263 139.068C472.683 139.358 472.168 139.68 471.716 140.035V157.97C472.168 158.324 472.699 158.63 473.312 158.888C473.956 159.114 474.649 159.227 475.39 159.227ZM488.407 162.901V134.959H493.58V162.901H488.407ZM488.407 130.802V125.387H493.58V130.802H488.407ZM499.599 162.901V123.744H504.772V162.901H499.599ZM510.501 162.901V134.959H515.674V162.901H510.501ZM510.501 130.802V125.387H515.674V130.802H510.501ZM528.654 163.287C527.204 163.287 526.027 163.013 525.125 162.465C524.255 161.918 523.61 161.144 523.191 160.145C522.805 159.146 522.611 157.97 522.611 156.616V138.391H519.662V134.959H522.611V126.789H527.784V134.959H532.28V138.391H527.784V156.278C527.784 157.373 527.961 158.163 528.316 158.646C528.67 159.098 529.347 159.323 530.346 159.323C530.604 159.323 530.894 159.307 531.216 159.275C531.571 159.243 531.909 159.21 532.231 159.178V162.997C531.587 163.094 530.991 163.158 530.443 163.191C529.895 163.255 529.299 163.287 528.654 163.287ZM535.645 169.91V165.946C536.902 165.946 537.901 165.882 538.642 165.753C539.384 165.656 539.915 165.447 540.238 165.124C540.56 164.834 540.721 164.415 540.721 163.867C540.721 163.577 540.608 162.933 540.383 161.934C540.157 160.935 539.915 159.871 539.657 158.743L534.05 134.959H539.271L543.041 155.843L546.667 134.959H551.888L545.217 164.447C544.927 165.801 544.395 166.865 543.622 167.638C542.848 168.444 541.849 169.024 540.624 169.378C539.432 169.733 537.982 169.91 536.274 169.91H535.645Z" fill="#A7A7A7"/>
<path d="M679.008 163.384C676.559 163.384 674.593 162.868 673.111 161.837C671.66 160.773 670.597 159.243 669.92 157.245C669.275 155.246 668.953 152.845 668.953 150.042V136.941C668.953 134.073 669.243 131.639 669.823 129.641C670.436 127.611 671.499 126.064 673.014 125.001C674.561 123.937 676.704 123.405 679.443 123.405C681.893 123.405 683.859 123.824 685.341 124.662C686.856 125.468 687.952 126.725 688.628 128.433C689.305 130.109 689.644 132.236 689.644 134.814V136.264H684.519V135.056C684.519 133.348 684.406 131.962 684.181 130.898C683.955 129.802 683.488 128.997 682.779 128.481C682.102 127.933 681.023 127.659 679.54 127.659C677.929 127.659 676.752 128.03 676.011 128.771C675.302 129.512 674.851 130.528 674.658 131.817C674.496 133.074 674.416 134.508 674.416 136.119V150.622C674.416 152.491 674.545 154.054 674.803 155.311C675.093 156.568 675.624 157.502 676.398 158.115C677.171 158.727 678.267 159.033 679.685 159.033C681.103 159.033 682.199 158.695 682.972 158.018C683.746 157.341 684.278 156.342 684.568 155.021C684.858 153.699 685.003 152.056 685.003 150.09V147.383H680.024V143.515H689.934V162.901H686.501L685.97 158.405C685.454 159.855 684.648 161.047 683.552 161.982C682.457 162.917 680.942 163.384 679.008 163.384ZM702.848 163.287C700.657 163.287 698.965 162.868 697.773 162.03C696.58 161.16 695.742 159.903 695.259 158.26C694.808 156.584 694.582 154.537 694.582 152.12V145.739C694.582 143.258 694.824 141.195 695.307 139.551C695.79 137.908 696.628 136.667 697.821 135.829C699.046 134.991 700.721 134.572 702.848 134.572C705.201 134.572 706.925 135.056 708.021 136.022C709.149 136.989 709.89 138.391 710.245 140.228C710.599 142.033 710.776 144.208 710.776 146.754V149.026H699.755V154.634C699.755 155.762 699.851 156.681 700.045 157.39C700.27 158.099 700.609 158.63 701.06 158.985C701.543 159.307 702.156 159.468 702.897 159.468C703.67 159.468 704.25 159.291 704.637 158.936C705.056 158.55 705.33 158.018 705.459 157.341C705.62 156.632 705.701 155.81 705.701 154.876V153.184H710.728V154.247C710.728 157.051 710.132 159.259 708.939 160.87C707.747 162.482 705.717 163.287 702.848 163.287ZM699.755 146.223H705.701V143.709C705.701 142.549 705.636 141.582 705.507 140.808C705.378 140.003 705.104 139.406 704.685 139.02C704.299 138.601 703.67 138.391 702.8 138.391C701.962 138.391 701.318 138.585 700.866 138.971C700.447 139.358 700.157 140.019 699.996 140.953C699.835 141.856 699.755 143.113 699.755 144.724V146.223ZM720.488 163.287C719.393 163.287 718.426 162.981 717.588 162.369C716.75 161.724 716.089 160.918 715.606 159.952C715.122 158.953 714.881 157.905 714.881 156.809C714.881 155.069 715.171 153.603 715.751 152.41C716.331 151.218 717.12 150.219 718.12 149.413C719.151 148.575 720.327 147.85 721.648 147.238C723.002 146.625 724.42 146.029 725.903 145.449V143.467C725.903 142.339 725.838 141.405 725.709 140.663C725.58 139.922 725.306 139.374 724.887 139.02C724.501 138.633 723.904 138.44 723.099 138.44C722.39 138.44 721.81 138.601 721.358 138.923C720.939 139.245 720.633 139.713 720.44 140.325C720.247 140.905 720.15 141.598 720.15 142.404V143.805L715.026 143.612C715.09 140.518 715.799 138.246 717.153 136.796C718.506 135.313 720.601 134.572 723.437 134.572C726.209 134.572 728.175 135.33 729.335 136.844C730.495 138.359 731.075 140.55 731.075 143.419V156.181C731.075 157.051 731.091 157.889 731.123 158.695C731.188 159.5 731.252 160.258 731.317 160.967C731.414 161.644 731.494 162.288 731.559 162.901H726.821C726.724 162.385 726.595 161.74 726.434 160.967C726.305 160.161 726.209 159.436 726.144 158.791C725.822 159.887 725.194 160.918 724.259 161.885C723.357 162.82 722.1 163.287 720.488 163.287ZM722.519 158.84C723.034 158.84 723.518 158.695 723.969 158.405C724.42 158.115 724.823 157.792 725.177 157.438C725.532 157.051 725.774 156.745 725.903 156.519V148.591C725.097 149.043 724.339 149.494 723.63 149.945C722.921 150.396 722.293 150.88 721.745 151.395C721.23 151.879 720.811 152.443 720.488 153.087C720.198 153.699 720.053 154.408 720.053 155.214C720.053 156.342 720.263 157.228 720.682 157.873C721.101 158.518 721.713 158.84 722.519 158.84ZM736.189 162.901V134.959H741.361V138.923C742.393 137.215 743.424 136.071 744.455 135.491C745.487 134.911 746.518 134.621 747.549 134.621C747.678 134.621 747.791 134.621 747.888 134.621C748.016 134.621 748.178 134.637 748.371 134.669V140.373C747.984 140.212 747.533 140.083 747.017 139.986C746.534 139.858 746.034 139.793 745.519 139.793C744.713 139.793 743.972 139.986 743.295 140.373C742.65 140.728 742.006 141.437 741.361 142.5V162.901H736.189Z" fill="#A7A7A7"/>
<path d="M874.986 163.336C872.343 163.336 870.232 162.82 868.653 161.789C867.074 160.757 865.946 159.291 865.269 157.39C864.592 155.456 864.254 153.2 864.254 150.622V135.781C864.254 133.203 864.592 130.995 865.269 129.158C865.978 127.289 867.106 125.871 868.653 124.904C870.232 123.905 872.343 123.405 874.986 123.405C877.629 123.405 879.723 123.905 881.27 124.904C882.817 125.903 883.929 127.321 884.606 129.158C885.315 130.995 885.669 133.203 885.669 135.781V150.67C885.669 153.216 885.315 155.44 884.606 157.341C883.929 159.243 882.817 160.725 881.27 161.789C879.723 162.82 877.629 163.336 874.986 163.336ZM874.986 159.033C876.436 159.033 877.532 158.743 878.273 158.163C879.014 157.551 879.514 156.713 879.772 155.649C880.03 154.553 880.158 153.28 880.158 151.83V134.669C880.158 133.219 880.03 131.978 879.772 130.947C879.514 129.883 879.014 129.077 878.273 128.529C877.532 127.949 876.436 127.659 874.986 127.659C873.536 127.659 872.424 127.949 871.65 128.529C870.909 129.077 870.41 129.883 870.152 130.947C869.894 131.978 869.765 133.219 869.765 134.669V151.83C869.765 153.28 869.894 154.553 870.152 155.649C870.41 156.713 870.909 157.551 871.65 158.163C872.424 158.743 873.536 159.033 874.986 159.033ZM898.048 163.287C896.598 163.287 895.421 163.013 894.519 162.465C893.649 161.918 893.004 161.144 892.585 160.145C892.199 159.146 892.005 157.97 892.005 156.616V138.391H889.056V134.959H892.005V126.789H897.178V134.959H901.674V138.391H897.178V156.278C897.178 157.373 897.355 158.163 897.71 158.646C898.064 159.098 898.741 159.323 899.74 159.323C899.998 159.323 900.288 159.307 900.61 159.275C900.965 159.243 901.303 159.21 901.625 159.178V162.997C900.981 163.094 900.384 163.158 899.837 163.191C899.289 163.255 898.693 163.287 898.048 163.287ZM905.619 162.901V123.744H910.792V137.859C911.726 136.957 912.774 136.184 913.934 135.539C915.094 134.894 916.383 134.572 917.801 134.572C918.897 134.572 919.735 134.862 920.315 135.442C920.927 136.022 921.346 136.748 921.572 137.618C921.83 138.488 921.959 139.374 921.959 140.277V162.901H916.786V141.775C916.786 140.776 916.641 140.003 916.351 139.455C916.061 138.907 915.465 138.633 914.562 138.633C913.95 138.633 913.305 138.81 912.629 139.165C911.984 139.519 911.372 139.954 910.792 140.47V162.901H905.619ZM934.736 163.287C932.545 163.287 930.853 162.868 929.66 162.03C928.468 161.16 927.63 159.903 927.146 158.26C926.695 156.584 926.47 154.537 926.47 152.12V145.739C926.47 143.258 926.711 141.195 927.195 139.551C927.678 137.908 928.516 136.667 929.708 135.829C930.933 134.991 932.609 134.572 934.736 134.572C937.089 134.572 938.813 135.056 939.909 136.022C941.037 136.989 941.778 138.391 942.132 140.228C942.487 142.033 942.664 144.208 942.664 146.754V149.026H931.642V154.634C931.642 155.762 931.739 156.681 931.932 157.39C932.158 158.099 932.496 158.63 932.947 158.985C933.431 159.307 934.043 159.468 934.784 159.468C935.558 159.468 936.138 159.291 936.525 158.936C936.944 158.55 937.218 158.018 937.346 157.341C937.508 156.632 937.588 155.81 937.588 154.876V153.184H942.616V154.247C942.616 157.051 942.02 159.259 940.827 160.87C939.635 162.482 937.604 163.287 934.736 163.287ZM931.642 146.223H937.588V143.709C937.588 142.549 937.524 141.582 937.395 140.808C937.266 140.003 936.992 139.406 936.573 139.02C936.186 138.601 935.558 138.391 934.688 138.391C933.85 138.391 933.205 138.585 932.754 138.971C932.335 139.358 932.045 140.019 931.884 140.953C931.723 141.856 931.642 143.113 931.642 144.724V146.223ZM947.493 162.901V134.959H952.666V138.923C953.697 137.215 954.729 136.071 955.76 135.491C956.791 134.911 957.822 134.621 958.854 134.621C958.983 134.621 959.095 134.621 959.192 134.621C959.321 134.621 959.482 134.637 959.676 134.669V140.373C959.289 140.212 958.838 140.083 958.322 139.986C957.839 139.858 957.339 139.793 956.823 139.793C956.018 139.793 955.276 139.986 954.6 140.373C953.955 140.728 953.31 141.437 952.666 142.5V162.901H947.493ZM969.358 163.287C967.07 163.287 965.233 162.578 963.847 161.16C962.461 159.71 961.671 157.809 961.478 155.456L965.781 154.151C966.038 155.923 966.473 157.261 967.086 158.163C967.698 159.033 968.6 159.468 969.793 159.468C970.728 159.468 971.437 159.21 971.92 158.695C972.403 158.147 972.645 157.422 972.645 156.519C972.645 155.714 972.468 154.989 972.113 154.344C971.759 153.699 971.179 153.039 970.373 152.362L965.587 148.253C964.62 147.415 963.799 146.48 963.122 145.449C962.477 144.418 962.155 143.08 962.155 141.437C962.155 139.954 962.445 138.713 963.025 137.714C963.637 136.683 964.475 135.91 965.539 135.394C966.635 134.846 967.908 134.572 969.358 134.572C971.582 134.572 973.274 135.297 974.434 136.748C975.626 138.166 976.303 139.89 976.464 141.92L972.983 143.225C972.855 142.259 972.661 141.421 972.403 140.712C972.146 139.97 971.791 139.406 971.34 139.02C970.889 138.601 970.292 138.391 969.551 138.391C968.713 138.391 968.036 138.681 967.521 139.261C967.037 139.809 966.796 140.47 966.796 141.243C966.796 141.727 966.892 142.21 967.086 142.694C967.311 143.145 967.682 143.596 968.198 144.047L973.129 148.591C973.805 149.204 974.434 149.864 975.014 150.573C975.626 151.282 976.126 152.088 976.512 152.99C976.899 153.893 977.093 154.94 977.093 156.133C977.093 157.712 976.77 159.033 976.126 160.097C975.481 161.16 974.579 161.966 973.419 162.514C972.258 163.029 970.905 163.287 969.358 163.287Z" fill="#A7A7A7"/>
<defs>
<filter id="filter0_d_46_3" x="223" y="1113" width="660" height="660" filterUnits="userSpaceOnUse" color-interpolation-filters="sRGB">
<feFlood flood-opacity="0" result="BackgroundImageFix"/>
<feColorMatrix in="SourceAlpha" type="matrix" values="0 0 0 0 0 0 0 0 0 0 0 0 0 0 0 0 0 0 127 0" result="hardAlpha"/>
<feOffset dy="4"/>
<feGaussianBlur stdDeviation="23"/>
<feComposite in2="hardAlpha" operator="out"/>
<feColorMatrix type="matrix" values="0 0 0 0 0.0291667 0 0 0 0 0.21558 0 0 0 0 0.291667 0 0 0 0.3 0"/>
<feBlend mode="normal" in2="BackgroundImageFix" result="effect1_dropShadow_46_3"/>
<feBlend mode="normal" in="SourceGraphic" in2="effect1_dropShadow_46_3" result="shape"/>
</filter>
<filter id="filter1_d_46_3" x="-4" y="0" width="1088" height="864" filterUnits="userSpaceOnUse" color-interpolation-filters="sRGB">
<feFlood flood-opacity="0" result="BackgroundImageFix"/>
<feColorMatrix in="SourceAlpha" type="matrix" values="0 0 0 0 0 0 0 0 0 0 0 0 0 0 0 0 0 0 127 0" result="hardAlpha"/>
<feOffset dy="4"/>
<feGaussianBlur stdDeviation="27"/>
<feComposite in2="hardAlpha" operator="out"/>
<feColorMatrix type="matrix" values="0 0 0 0 0.25125 0 0 0 0 0.469324 0 0 0 0 0.558333 0 0 0 0.3 0"/>
<feBlend mode="normal" in2="BackgroundImageFix" result="effect1_dropShadow_46_3"/>
<feBlend mode="normal" in="SourceGraphic" in2="effect1_dropShadow_46_3" result="shape"/>
</filter>
</defs>
</svg>
