<svg width="56" height="71" viewBox="0 0 56 71" fill="none" xmlns="http://www.w3.org/2000/svg">
<path d="M0.15 62.2812L0.15 62.2814C0.152478 64.4537 1.01653 66.5363 2.5526 68.0724C4.08867 69.6085 6.17131 70.4725 8.34364 70.475H47.6562C49.8287 70.4725 51.9113 69.6085 53.4474 68.0724C54.9835 66.5363 55.8475 64.4537 55.85 62.2814V62.2812V9.09375V9.09364C55.8475 6.92131 54.9835 4.83867 53.4474 3.3026C51.9113 1.76653 49.8287 0.902478 47.6564 0.9H47.6562L8.34375 0.9L8.34364 0.9C6.17131 0.902478 4.08867 1.76653 2.5526 3.3026C1.01653 4.83867 0.152478 6.92131 0.15 9.09364V9.09375L0.15 62.2812Z" fill="#508CAE" stroke="#508CAE" stroke-width="0.2"/>
<mask id="path-2-outside-1_12_53" maskUnits="userSpaceOnUse" x="3.875" y="4.625" width="48" height="62" fill="black">
<rect fill="white" x="3.875" y="4.625" width="48" height="62"/>
<path d="M31.4688 65.75H24.5312C23.6113 65.75 22.729 65.3845 22.0785 64.734C21.428 64.0835 21.0625 63.2012 21.0625 62.2812V57.6562C21.0625 56.7363 21.428 55.854 22.0785 55.2035C22.729 54.553 23.6113 54.1875 24.5312 54.1875H31.4688C32.3887 54.1875 33.271 54.553 33.9215 55.2035C34.572 55.854 34.9375 56.7363 34.9375 57.6562V62.2812C34.9375 63.2012 34.572 64.0835 33.9215 64.734C33.271 65.3845 32.3887 65.75 31.4688 65.75ZM15.2812 65.75H8.34375C7.42378 65.75 6.54149 65.3845 5.89097 64.734C5.24046 64.0835 4.875 63.2012 4.875 62.2812V57.6562C4.875 56.7363 5.24046 55.854 5.89097 55.2035C6.54149 54.553 7.42378 54.1875 8.34375 54.1875H15.2812C16.2012 54.1875 17.0835 54.553 17.734 55.2035C18.3845 55.854 18.75 56.7363 18.75 57.6562V62.2812C18.75 63.2012 18.3845 64.0835 17.734 64.734C17.0835 65.3845 16.2012 65.75 15.2812 65.75ZM47.6562 65.75H40.7188C39.7988 65.75 38.9165 65.3845 38.266 64.734C37.6155 64.0835 37.25 63.2012 37.25 62.2812V43.7812C37.25 42.8613 37.6155 41.979 38.266 41.3285C38.9165 40.678 39.7988 40.3125 40.7188 40.3125H47.6562C48.5762 40.3125 49.4585 40.678 50.109 41.3285C50.7595 41.979 51.125 42.8613 51.125 43.7812V62.2812C51.125 63.2012 50.7595 64.0835 50.109 64.734C49.4585 65.3845 48.5762 65.75 47.6562 65.75ZM31.4688 51.875H24.5312C23.6113 51.875 22.729 51.5095 22.0785 50.859C21.428 50.2085 21.0625 49.3262 21.0625 48.4062V43.7812C21.0625 42.8613 21.428 41.979 22.0785 41.3285C22.729 40.678 23.6113 40.3125 24.5312 40.3125H31.4688C32.3887 40.3125 33.271 40.678 33.9215 41.3285C34.572 41.979 34.9375 42.8613 34.9375 43.7812V48.4062C34.9375 49.3262 34.572 50.2085 33.9215 50.859C33.271 51.5095 32.3887 51.875 31.4688 51.875ZM15.2812 51.875H8.34375C7.42378 51.875 6.54149 51.5095 5.89097 50.859C5.24046 50.2085 4.875 49.3262 4.875 48.4062V43.7812C4.875 42.8613 5.24046 41.979 5.89097 41.3285C6.54149 40.678 7.42378 40.3125 8.34375 40.3125H15.2812C16.2012 40.3125 17.0835 40.678 17.734 41.3285C18.3845 41.979 18.75 42.8613 18.75 43.7812V48.4062C18.75 49.3262 18.3845 50.2085 17.734 50.859C17.0835 51.5095 16.2012 51.875 15.2812 51.875ZM31.4688 38H24.5312C23.6113 38 22.729 37.6345 22.0785 36.984C21.428 36.3335 21.0625 35.4512 21.0625 34.5312V29.9062C21.0625 28.9863 21.428 28.104 22.0785 27.4535C22.729 26.803 23.6113 26.4375 24.5312 26.4375H31.4688C32.3887 26.4375 33.271 26.803 33.9215 27.4535C34.572 28.104 34.9375 28.9863 34.9375 29.9062V34.5312C34.9375 35.4512 34.572 36.3335 33.9215 36.984C33.271 37.6345 32.3887 38 31.4688 38ZM15.2812 38H8.34375C7.42378 38 6.54149 37.6345 5.89097 36.984C5.24046 36.3335 4.875 35.4512 4.875 34.5312V29.9062C4.875 28.9863 5.24046 28.104 5.89097 27.4535C6.54149 26.803 7.42378 26.4375 8.34375 26.4375H15.2812C16.2012 26.4375 17.0835 26.803 17.734 27.4535C18.3845 28.104 18.75 28.9863 18.75 29.9062V34.5312C18.75 35.4512 18.3845 36.3335 17.734 36.984C17.0835 37.6345 16.2012 38 15.2812 38ZM47.6562 38H40.7188C39.7988 38 38.9165 37.6345 38.266 36.984C37.6155 36.3335 37.25 35.4512 37.25 34.5312V29.9062C37.25 28.9863 37.6155 28.104 38.266 27.4535C38.9165 26.803 39.7988 26.4375 40.7188 26.4375H47.6562C48.5762 26.4375 49.4585 26.803 50.109 27.4535C50.7595 28.104 51.125 28.9863 51.125 29.9062V34.5312C51.125 35.4512 50.7595 36.3335 50.109 36.984C49.4585 37.6345 48.5762 38 47.6562 38ZM47.6562 21.8125H8.34375C7.42378 21.8125 6.54149 21.447 5.89097 20.7965C5.24046 20.146 4.875 19.2637 4.875 18.3438V9.09375C4.875 8.17378 5.24046 7.29149 5.89097 6.64097C6.54149 5.99046 7.42378 5.625 8.34375 5.625H47.6562C48.5762 5.625 49.4585 5.99046 50.109 6.64097C50.7595 7.29149 51.125 8.17378 51.125 9.09375V18.3438C51.125 19.2637 50.7595 20.146 50.109 20.7965C49.4585 21.447 48.5762 21.8125 47.6562 21.8125Z"/>
</mask>
<path d="M31.4688 65.75H24.5312C23.6113 65.75 22.729 65.3845 22.0785 64.734C21.428 64.0835 21.0625 63.2012 21.0625 62.2812V57.6562C21.0625 56.7363 21.428 55.854 22.0785 55.2035C22.729 54.553 23.6113 54.1875 24.5312 54.1875H31.4688C32.3887 54.1875 33.271 54.553 33.9215 55.2035C34.572 55.854 34.9375 56.7363 34.9375 57.6562V62.2812C34.9375 63.2012 34.572 64.0835 33.9215 64.734C33.271 65.3845 32.3887 65.75 31.4688 65.75ZM15.2812 65.75H8.34375C7.42378 65.75 6.54149 65.3845 5.89097 64.734C5.24046 64.0835 4.875 63.2012 4.875 62.2812V57.6562C4.875 56.7363 5.24046 55.854 5.89097 55.2035C6.54149 54.553 7.42378 54.1875 8.34375 54.1875H15.2812C16.2012 54.1875 17.0835 54.553 17.734 55.2035C18.3845 55.854 18.75 56.7363 18.75 57.6562V62.2812C18.75 63.2012 18.3845 64.0835 17.734 64.734C17.0835 65.3845 16.2012 65.75 15.2812 65.75ZM47.6562 65.75H40.7188C39.7988 65.75 38.9165 65.3845 38.266 64.734C37.6155 64.0835 37.25 63.2012 37.25 62.2812V43.7812C37.25 42.8613 37.6155 41.979 38.266 41.3285C38.9165 40.678 39.7988 40.3125 40.7188 40.3125H47.6562C48.5762 40.3125 49.4585 40.678 50.109 41.3285C50.7595 41.979 51.125 42.8613 51.125 43.7812V62.2812C51.125 63.2012 50.7595 64.0835 50.109 64.734C49.4585 65.3845 48.5762 65.75 47.6562 65.75ZM31.4688 51.875H24.5312C23.6113 51.875 22.729 51.5095 22.0785 50.859C21.428 50.2085 21.0625 49.3262 21.0625 48.4062V43.7812C21.0625 42.8613 21.428 41.979 22.0785 41.3285C22.729 40.678 23.6113 40.3125 24.5312 40.3125H31.4688C32.3887 40.3125 33.271 40.678 33.9215 41.3285C34.572 41.979 34.9375 42.8613 34.9375 43.7812V48.4062C34.9375 49.3262 34.572 50.2085 33.9215 50.859C33.271 51.5095 32.3887 51.875 31.4688 51.875ZM15.2812 51.875H8.34375C7.42378 51.875 6.54149 51.5095 5.89097 50.859C5.24046 50.2085 4.875 49.3262 4.875 48.4062V43.7812C4.875 42.8613 5.24046 41.979 5.89097 41.3285C6.54149 40.678 7.42378 40.3125 8.34375 40.3125H15.2812C16.2012 40.3125 17.0835 40.678 17.734 41.3285C18.3845 41.979 18.75 42.8613 18.75 43.7812V48.4062C18.75 49.3262 18.3845 50.2085 17.734 50.859C17.0835 51.5095 16.2012 51.875 15.2812 51.875ZM31.4688 38H24.5312C23.6113 38 22.729 37.6345 22.0785 36.984C21.428 36.3335 21.0625 35.4512 21.0625 34.5312V29.9062C21.0625 28.9863 21.428 28.104 22.0785 27.4535C22.729 26.803 23.6113 26.4375 24.5312 26.4375H31.4688C32.3887 26.4375 33.271 26.803 33.9215 27.4535C34.572 28.104 34.9375 28.9863 34.9375 29.9062V34.5312C34.9375 35.4512 34.572 36.3335 33.9215 36.984C33.271 37.6345 32.3887 38 31.4688 38ZM15.2812 38H8.34375C7.42378 38 6.54149 37.6345 5.89097 36.984C5.24046 36.3335 4.875 35.4512 4.875 34.5312V29.9062C4.875 28.9863 5.24046 28.104 5.89097 27.4535C6.54149 26.803 7.42378 26.4375 8.34375 26.4375H15.2812C16.2012 26.4375 17.0835 26.803 17.734 27.4535C18.3845 28.104 18.75 28.9863 18.75 29.9062V34.5312C18.75 35.4512 18.3845 36.3335 17.734 36.984C17.0835 37.6345 16.2012 38 15.2812 38ZM47.6562 38H40.7188C39.7988 38 38.9165 37.6345 38.266 36.984C37.6155 36.3335 37.25 35.4512 37.25 34.5312V29.9062C37.25 28.9863 37.6155 28.104 38.266 27.4535C38.9165 26.803 39.7988 26.4375 40.7188 26.4375H47.6562C48.5762 26.4375 49.4585 26.803 50.109 27.4535C50.7595 28.104 51.125 28.9863 51.125 29.9062V34.5312C51.125 35.4512 50.7595 36.3335 50.109 36.984C49.4585 37.6345 48.5762 38 47.6562 38ZM47.6562 21.8125H8.34375C7.42378 21.8125 6.54149 21.447 5.89097 20.7965C5.24046 20.146 4.875 19.2637 4.875 18.3438V9.09375C4.875 8.17378 5.24046 7.29149 5.89097 6.64097C6.54149 5.99046 7.42378 5.625 8.34375 5.625H47.6562C48.5762 5.625 49.4585 5.99046 50.109 6.64097C50.7595 7.29149 51.125 8.17378 51.125 9.09375V18.3438C51.125 19.2637 50.7595 20.146 50.109 20.7965C49.4585 21.447 48.5762 21.8125 47.6562 21.8125Z" fill="white"/>
<path d="M31.4688 65.75H24.5312C23.6113 65.75 22.729 65.3845 22.0785 64.734C21.428 64.0835 21.0625 63.2012 21.0625 62.2812V57.6562C21.0625 56.7363 21.428 55.854 22.0785 55.2035C22.729 54.553 23.6113 54.1875 24.5312 54.1875H31.4688C32.3887 54.1875 33.271 54.553 33.9215 55.2035C34.572 55.854 34.9375 56.7363 34.9375 57.6562V62.2812C34.9375 63.2012 34.572 64.0835 33.9215 64.734C33.271 65.3845 32.3887 65.75 31.4688 65.75ZM15.2812 65.75H8.34375C7.42378 65.75 6.54149 65.3845 5.89097 64.734C5.24046 64.0835 4.875 63.2012 4.875 62.2812V57.6562C4.875 56.7363 5.24046 55.854 5.89097 55.2035C6.54149 54.553 7.42378 54.1875 8.34375 54.1875H15.2812C16.2012 54.1875 17.0835 54.553 17.734 55.2035C18.3845 55.854 18.75 56.7363 18.75 57.6562V62.2812C18.75 63.2012 18.3845 64.0835 17.734 64.734C17.0835 65.3845 16.2012 65.75 15.2812 65.75ZM47.6562 65.75H40.7188C39.7988 65.75 38.9165 65.3845 38.266 64.734C37.6155 64.0835 37.25 63.2012 37.25 62.2812V43.7812C37.25 42.8613 37.6155 41.979 38.266 41.3285C38.9165 40.678 39.7988 40.3125 40.7188 40.3125H47.6562C48.5762 40.3125 49.4585 40.678 50.109 41.3285C50.7595 41.979 51.125 42.8613 51.125 43.7812V62.2812C51.125 63.2012 50.7595 64.0835 50.109 64.734C49.4585 65.3845 48.5762 65.75 47.6562 65.75ZM31.4688 51.875H24.5312C23.6113 51.875 22.729 51.5095 22.0785 50.859C21.428 50.2085 21.0625 49.3262 21.0625 48.4062V43.7812C21.0625 42.8613 21.428 41.979 22.0785 41.3285C22.729 40.678 23.6113 40.3125 24.5312 40.3125H31.4688C32.3887 40.3125 33.271 40.678 33.9215 41.3285C34.572 41.979 34.9375 42.8613 34.9375 43.7812V48.4062C34.9375 49.3262 34.572 50.2085 33.9215 50.859C33.271 51.5095 32.3887 51.875 31.4688 51.875ZM15.2812 51.875H8.34375C7.42378 51.875 6.54149 51.5095 5.89097 50.859C5.24046 50.2085 4.875 49.3262 4.875 48.4062V43.7812C4.875 42.8613 5.24046 41.979 5.89097 41.3285C6.54149 40.678 7.42378 40.3125 8.34375 40.3125H15.2812C16.2012 40.3125 17.0835 40.678 17.734 41.3285C18.3845 41.979 18.75 42.8613 18.75 43.7812V48.4062C18.75 49.3262 18.3845 50.2085 17.734 50.859C17.0835 51.5095 16.2012 51.875 15.2812 51.875ZM31.4688 38H24.5312C23.6113 38 22.729 37.6345 22.0785 36.984C21.428 36.3335 21.0625 35.4512 21.0625 34.5312V29.9062C21.0625 28.9863 21.428 28.104 22.0785 27.4535C22.729 26.803 23.6113 26.4375 24.5312 26.4375H31.4688C32.3887 26.4375 33.271 26.803 33.9215 27.4535C34.572 28.104 34.9375 28.9863 34.9375 29.9062V34.5312C34.9375 35.4512 34.572 36.3335 33.9215 36.984C33.271 37.6345 32.3887 38 31.4688 38ZM15.2812 38H8.34375C7.42378 38 6.54149 37.6345 5.89097 36.984C5.24046 36.3335 4.875 35.4512 4.875 34.5312V29.9062C4.875 28.9863 5.24046 28.104 5.89097 27.4535C6.54149 26.803 7.42378 26.4375 8.34375 26.4375H15.2812C16.2012 26.4375 17.0835 26.803 17.734 27.4535C18.3845 28.104 18.75 28.9863 18.75 29.9062V34.5312C18.75 35.4512 18.3845 36.3335 17.734 36.984C17.0835 37.6345 16.2012 38 15.2812 38ZM47.6562 38H40.7188C39.7988 38 38.9165 37.6345 38.266 36.984C37.6155 36.3335 37.25 35.4512 37.25 34.5312V29.9062C37.25 28.9863 37.6155 28.104 38.266 27.4535C38.9165 26.803 39.7988 26.4375 40.7188 26.4375H47.6562C48.5762 26.4375 49.4585 26.803 50.109 27.4535C50.7595 28.104 51.125 28.9863 51.125 29.9062V34.5312C51.125 35.4512 50.7595 36.3335 50.109 36.984C49.4585 37.6345 48.5762 38 47.6562 38ZM47.6562 21.8125H8.34375C7.42378 21.8125 6.54149 21.447 5.89097 20.7965C5.24046 20.146 4.875 19.2637 4.875 18.3438V9.09375C4.875 8.17378 5.24046 7.29149 5.89097 6.64097C6.54149 5.99046 7.42378 5.625 8.34375 5.625H47.6562C48.5762 5.625 49.4585 5.99046 50.109 6.64097C50.7595 7.29149 51.125 8.17378 51.125 9.09375V18.3438C51.125 19.2637 50.7595 20.146 50.109 20.7965C49.4585 21.447 48.5762 21.8125 47.6562 21.8125Z" stroke="#508CAE" stroke-width="0.4" mask="url(#path-2-outside-1_12_53)"/>
<path d="M41.664 17.3985C42.3333 18.0678 43.241 18.4438 44.1875 18.4438C45.134 18.4438 46.0417 18.0678 46.711 17.3985C47.3803 16.7292 47.7562 15.8215 47.7562 14.875V12.5625C47.7562 11.616 47.3803 10.7083 46.711 10.039C46.0417 9.36974 45.134 8.99375 44.1875 8.99375C43.241 8.99375 42.3333 9.36974 41.664 10.039C40.9947 10.7083 40.6187 11.616 40.6187 12.5625V14.875C40.6187 15.8215 40.9947 16.7292 41.664 17.3985ZM43.4406 11.8156C43.6387 11.6175 43.9074 11.5062 44.1875 11.5062C44.4676 11.5062 44.7363 11.6175 44.9344 11.8156C45.1325 12.0137 45.2438 12.2824 45.2438 12.5625V14.875C45.2438 15.1551 45.1325 15.4238 44.9344 15.6219C44.7363 15.82 44.4676 15.9313 44.1875 15.9313C43.9074 15.9313 43.6387 15.82 43.4406 15.6219C43.2425 15.4238 43.1312 15.1551 43.1312 14.875V12.5625C43.1312 12.2824 43.2425 12.0137 43.4406 11.8156Z" fill="#508CAE" stroke="#508CAE" stroke-width="0.2"/>
</svg>
