<svg width="56" height="70" viewBox="0 0 56 70" fill="none" xmlns="http://www.w3.org/2000/svg">
<path d="M0.15 61.5938L0.15 61.5939C0.152478 63.7662 1.01653 65.8488 2.5526 67.3849C4.08867 68.921 6.17131 69.785 8.34364 69.7875H47.6562C49.8287 69.785 51.9113 68.921 53.4474 67.3849C54.9835 65.8488 55.8475 63.7662 55.85 61.5939V61.5938V8.40625V8.40614C55.8475 6.23381 54.9835 4.15117 53.4474 2.6151C51.9113 1.07903 49.8287 0.214978 47.6564 0.2125H47.6562L8.34375 0.2125L8.34364 0.2125C6.17131 0.214978 4.08867 1.07903 2.5526 2.6151C1.01653 4.15117 0.152478 6.23381 0.15 8.40614V8.40625L0.15 61.5938ZM4.32853 4.39103C5.3936 3.32595 6.83763 2.7268 8.34387 2.725H47.6561C49.1624 2.7268 50.6064 3.32595 51.6715 4.39103C52.7365 5.4561 53.3357 6.90013 53.3375 8.40637V61.5936C53.3357 63.0999 52.7365 64.5439 51.6715 65.609C50.6064 66.674 49.1624 67.2732 47.6562 67.275H8.34387C6.83763 67.2732 5.3936 66.674 4.32853 65.609C3.26345 64.5439 2.6643 63.0999 2.6625 61.5936V8.40637C2.6643 6.90013 3.26345 5.4561 4.32853 4.39103Z" fill="#55565A" stroke="#55565A" stroke-width="0.2"/>
<mask id="path-2-outside-1_10_18" maskUnits="userSpaceOnUse" x="3.875" y="3.9375" width="48" height="62" fill="black">
<rect fill="white" x="3.875" y="3.9375" width="48" height="62"/>
<path d="M31.4688 65.0625H24.5312C23.6113 65.0625 22.729 64.697 22.0785 64.0465C21.428 63.396 21.0625 62.5137 21.0625 61.5938V56.9688C21.0625 56.0488 21.428 55.1665 22.0785 54.516C22.729 53.8655 23.6113 53.5 24.5312 53.5H31.4688C32.3887 53.5 33.271 53.8655 33.9215 54.516C34.572 55.1665 34.9375 56.0488 34.9375 56.9688V61.5938C34.9375 62.5137 34.572 63.396 33.9215 64.0465C33.271 64.697 32.3887 65.0625 31.4688 65.0625ZM24.5312 55.8125C24.2246 55.8125 23.9305 55.9343 23.7137 56.1512C23.4968 56.368 23.375 56.6621 23.375 56.9688V61.5938C23.375 61.9004 23.4968 62.1945 23.7137 62.4113C23.9305 62.6282 24.2246 62.75 24.5312 62.75H31.4688C31.7754 62.75 32.0695 62.6282 32.2863 62.4113C32.5032 62.1945 32.625 61.9004 32.625 61.5938V56.9688C32.625 56.6621 32.5032 56.368 32.2863 56.1512C32.0695 55.9343 31.7754 55.8125 31.4688 55.8125H24.5312ZM15.2812 65.0625H8.34375C7.42378 65.0625 6.54149 64.697 5.89097 64.0465C5.24046 63.396 4.875 62.5137 4.875 61.5938V56.9688C4.875 56.0488 5.24046 55.1665 5.89097 54.516C6.54149 53.8655 7.42378 53.5 8.34375 53.5H15.2812C16.2012 53.5 17.0835 53.8655 17.734 54.516C18.3845 55.1665 18.75 56.0488 18.75 56.9688V61.5938C18.75 62.5137 18.3845 63.396 17.734 64.0465C17.0835 64.697 16.2012 65.0625 15.2812 65.0625ZM8.34375 55.8125C8.03709 55.8125 7.743 55.9343 7.52616 56.1512C7.30932 56.368 7.1875 56.6621 7.1875 56.9688V61.5938C7.1875 61.9004 7.30932 62.1945 7.52616 62.4113C7.743 62.6282 8.03709 62.75 8.34375 62.75H15.2812C15.5879 62.75 15.882 62.6282 16.0988 62.4113C16.3157 62.1945 16.4375 61.9004 16.4375 61.5938V56.9688C16.4375 56.6621 16.3157 56.368 16.0988 56.1512C15.882 55.9343 15.5879 55.8125 15.2812 55.8125H8.34375ZM47.6562 65.0625H40.7188C39.7988 65.0625 38.9165 64.697 38.266 64.0465C37.6155 63.396 37.25 62.5137 37.25 61.5938V43.0938C37.25 42.1738 37.6155 41.2915 38.266 40.641C38.9165 39.9905 39.7988 39.625 40.7188 39.625H47.6562C48.5762 39.625 49.4585 39.9905 50.109 40.641C50.7595 41.2915 51.125 42.1738 51.125 43.0938V61.5938C51.125 62.5137 50.7595 63.396 50.109 64.0465C49.4585 64.697 48.5762 65.0625 47.6562 65.0625ZM40.7188 41.9375C40.4121 41.9375 40.118 42.0593 39.9012 42.2762C39.6843 42.493 39.5625 42.7871 39.5625 43.0938V61.5938C39.5625 61.9004 39.6843 62.1945 39.9012 62.4113C40.118 62.6282 40.4121 62.75 40.7188 62.75H47.6562C47.9629 62.75 48.257 62.6282 48.4738 62.4113C48.6907 62.1945 48.8125 61.9004 48.8125 61.5938V43.0938C48.8125 42.7871 48.6907 42.493 48.4738 42.2762C48.257 42.0593 47.9629 41.9375 47.6562 41.9375H40.7188ZM31.4688 51.1875H24.5312C23.6113 51.1875 22.729 50.822 22.0785 50.1715C21.428 49.521 21.0625 48.6387 21.0625 47.7188V43.0938C21.0625 42.1738 21.428 41.2915 22.0785 40.641C22.729 39.9905 23.6113 39.625 24.5312 39.625H31.4688C32.3887 39.625 33.271 39.9905 33.9215 40.641C34.572 41.2915 34.9375 42.1738 34.9375 43.0938V47.7188C34.9375 48.6387 34.572 49.521 33.9215 50.1715C33.271 50.822 32.3887 51.1875 31.4688 51.1875ZM24.5312 41.9375C24.2246 41.9375 23.9305 42.0593 23.7137 42.2762C23.4968 42.493 23.375 42.7871 23.375 43.0938V47.7188C23.375 48.0254 23.4968 48.3195 23.7137 48.5363C23.9305 48.7532 24.2246 48.875 24.5312 48.875H31.4688C31.7754 48.875 32.0695 48.7532 32.2863 48.5363C32.5032 48.3195 32.625 48.0254 32.625 47.7188V43.0938C32.625 42.7871 32.5032 42.493 32.2863 42.2762C32.0695 42.0593 31.7754 41.9375 31.4688 41.9375H24.5312ZM15.2812 51.1875H8.34375C7.42378 51.1875 6.54149 50.822 5.89097 50.1715C5.24046 49.521 4.875 48.6387 4.875 47.7188V43.0938C4.875 42.1738 5.24046 41.2915 5.89097 40.641C6.54149 39.9905 7.42378 39.625 8.34375 39.625H15.2812C16.2012 39.625 17.0835 39.9905 17.734 40.641C18.3845 41.2915 18.75 42.1738 18.75 43.0938V47.7188C18.75 48.6387 18.3845 49.521 17.734 50.1715C17.0835 50.822 16.2012 51.1875 15.2812 51.1875ZM8.34375 41.9375C8.03709 41.9375 7.743 42.0593 7.52616 42.2762C7.30932 42.493 7.1875 42.7871 7.1875 43.0938V47.7188C7.1875 48.0254 7.30932 48.3195 7.52616 48.5363C7.743 48.7532 8.03709 48.875 8.34375 48.875H15.2812C15.5879 48.875 15.882 48.7532 16.0988 48.5363C16.3157 48.3195 16.4375 48.0254 16.4375 47.7188V43.0938C16.4375 42.7871 16.3157 42.493 16.0988 42.2762C15.882 42.0593 15.5879 41.9375 15.2812 41.9375H8.34375ZM31.4688 37.3125H24.5312C23.6113 37.3125 22.729 36.947 22.0785 36.2965C21.428 35.646 21.0625 34.7637 21.0625 33.8438V29.2188C21.0625 28.2988 21.428 27.4165 22.0785 26.766C22.729 26.1155 23.6113 25.75 24.5312 25.75H31.4688C32.3887 25.75 33.271 26.1155 33.9215 26.766C34.572 27.4165 34.9375 28.2988 34.9375 29.2188V33.8438C34.9375 34.7637 34.572 35.646 33.9215 36.2965C33.271 36.947 32.3887 37.3125 31.4688 37.3125ZM24.5312 28.0625C24.2246 28.0625 23.9305 28.1843 23.7137 28.4012C23.4968 28.618 23.375 28.9121 23.375 29.2188V33.8438C23.375 34.1504 23.4968 34.4445 23.7137 34.6613C23.9305 34.8782 24.2246 35 24.5312 35H31.4688C31.7754 35 32.0695 34.8782 32.2863 34.6613C32.5032 34.4445 32.625 34.1504 32.625 33.8438V29.2188C32.625 28.9121 32.5032 28.618 32.2863 28.4012C32.0695 28.1843 31.7754 28.0625 31.4688 28.0625H24.5312ZM15.2812 37.3125H8.34375C7.42378 37.3125 6.54149 36.947 5.89097 36.2965C5.24046 35.646 4.875 34.7637 4.875 33.8438V29.2188C4.875 28.2988 5.24046 27.4165 5.89097 26.766C6.54149 26.1155 7.42378 25.75 8.34375 25.75H15.2812C16.2012 25.75 17.0835 26.1155 17.734 26.766C18.3845 27.4165 18.75 28.2988 18.75 29.2188V33.8438C18.75 34.7637 18.3845 35.646 17.734 36.2965C17.0835 36.947 16.2012 37.3125 15.2812 37.3125ZM8.34375 28.0625C8.03709 28.0625 7.743 28.1843 7.52616 28.4012C7.30932 28.618 7.1875 28.9121 7.1875 29.2188V33.8438C7.1875 34.1504 7.30932 34.4445 7.52616 34.6613C7.743 34.8782 8.03709 35 8.34375 35H15.2812C15.5879 35 15.882 34.8782 16.0988 34.6613C16.3157 34.4445 16.4375 34.1504 16.4375 33.8438V29.2188C16.4375 28.9121 16.3157 28.618 16.0988 28.4012C15.882 28.1843 15.5879 28.0625 15.2812 28.0625H8.34375ZM47.6562 37.3125H40.7188C39.7988 37.3125 38.9165 36.947 38.266 36.2965C37.6155 35.646 37.25 34.7637 37.25 33.8438V29.2188C37.25 28.2988 37.6155 27.4165 38.266 26.766C38.9165 26.1155 39.7988 25.75 40.7188 25.75H47.6562C48.5762 25.75 49.4585 26.1155 50.109 26.766C50.7595 27.4165 51.125 28.2988 51.125 29.2188V33.8438C51.125 34.7637 50.7595 35.646 50.109 36.2965C49.4585 36.947 48.5762 37.3125 47.6562 37.3125ZM40.7188 28.0625C40.4121 28.0625 40.118 28.1843 39.9012 28.4012C39.6843 28.618 39.5625 28.9121 39.5625 29.2188V33.8438C39.5625 34.1504 39.6843 34.4445 39.9012 34.6613C40.118 34.8782 40.4121 35 40.7188 35H47.6562C47.9629 35 48.257 34.8782 48.4738 34.6613C48.6907 34.4445 48.8125 34.1504 48.8125 33.8438V29.2188C48.8125 28.9121 48.6907 28.618 48.4738 28.4012C48.257 28.1843 47.9629 28.0625 47.6562 28.0625H40.7188ZM47.6562 21.125H8.34375C7.42378 21.125 6.54149 20.7595 5.89097 20.109C5.24046 19.4585 4.875 18.5762 4.875 17.6562V8.40625C4.875 7.48628 5.24046 6.60399 5.89097 5.95347C6.54149 5.30296 7.42378 4.9375 8.34375 4.9375H47.6562C48.5762 4.9375 49.4585 5.30296 50.109 5.95347C50.7595 6.60399 51.125 7.48628 51.125 8.40625V17.6562C51.125 18.5762 50.7595 19.4585 50.109 20.109C49.4585 20.7595 48.5762 21.125 47.6562 21.125ZM8.34375 7.25C8.03709 7.25 7.743 7.37182 7.52616 7.58866C7.30932 7.8055 7.1875 8.09959 7.1875 8.40625V17.6562C7.1875 17.9629 7.30932 18.257 7.52616 18.4738C7.743 18.6907 8.03709 18.8125 8.34375 18.8125H47.6562C47.9629 18.8125 48.257 18.6907 48.4738 18.4738C48.6907 18.257 48.8125 17.9629 48.8125 17.6562V8.40625C48.8125 8.09959 48.6907 7.8055 48.4738 7.58866C48.257 7.37182 47.9629 7.25 47.6562 7.25H8.34375Z"/>
</mask>
<path d="M31.4688 65.0625H24.5312C23.6113 65.0625 22.729 64.697 22.0785 64.0465C21.428 63.396 21.0625 62.5137 21.0625 61.5938V56.9688C21.0625 56.0488 21.428 55.1665 22.0785 54.516C22.729 53.8655 23.6113 53.5 24.5312 53.5H31.4688C32.3887 53.5 33.271 53.8655 33.9215 54.516C34.572 55.1665 34.9375 56.0488 34.9375 56.9688V61.5938C34.9375 62.5137 34.572 63.396 33.9215 64.0465C33.271 64.697 32.3887 65.0625 31.4688 65.0625ZM24.5312 55.8125C24.2246 55.8125 23.9305 55.9343 23.7137 56.1512C23.4968 56.368 23.375 56.6621 23.375 56.9688V61.5938C23.375 61.9004 23.4968 62.1945 23.7137 62.4113C23.9305 62.6282 24.2246 62.75 24.5312 62.75H31.4688C31.7754 62.75 32.0695 62.6282 32.2863 62.4113C32.5032 62.1945 32.625 61.9004 32.625 61.5938V56.9688C32.625 56.6621 32.5032 56.368 32.2863 56.1512C32.0695 55.9343 31.7754 55.8125 31.4688 55.8125H24.5312ZM15.2812 65.0625H8.34375C7.42378 65.0625 6.54149 64.697 5.89097 64.0465C5.24046 63.396 4.875 62.5137 4.875 61.5938V56.9688C4.875 56.0488 5.24046 55.1665 5.89097 54.516C6.54149 53.8655 7.42378 53.5 8.34375 53.5H15.2812C16.2012 53.5 17.0835 53.8655 17.734 54.516C18.3845 55.1665 18.75 56.0488 18.75 56.9688V61.5938C18.75 62.5137 18.3845 63.396 17.734 64.0465C17.0835 64.697 16.2012 65.0625 15.2812 65.0625ZM8.34375 55.8125C8.03709 55.8125 7.743 55.9343 7.52616 56.1512C7.30932 56.368 7.1875 56.6621 7.1875 56.9688V61.5938C7.1875 61.9004 7.30932 62.1945 7.52616 62.4113C7.743 62.6282 8.03709 62.75 8.34375 62.75H15.2812C15.5879 62.75 15.882 62.6282 16.0988 62.4113C16.3157 62.1945 16.4375 61.9004 16.4375 61.5938V56.9688C16.4375 56.6621 16.3157 56.368 16.0988 56.1512C15.882 55.9343 15.5879 55.8125 15.2812 55.8125H8.34375ZM47.6562 65.0625H40.7188C39.7988 65.0625 38.9165 64.697 38.266 64.0465C37.6155 63.396 37.25 62.5137 37.25 61.5938V43.0938C37.25 42.1738 37.6155 41.2915 38.266 40.641C38.9165 39.9905 39.7988 39.625 40.7188 39.625H47.6562C48.5762 39.625 49.4585 39.9905 50.109 40.641C50.7595 41.2915 51.125 42.1738 51.125 43.0938V61.5938C51.125 62.5137 50.7595 63.396 50.109 64.0465C49.4585 64.697 48.5762 65.0625 47.6562 65.0625ZM40.7188 41.9375C40.4121 41.9375 40.118 42.0593 39.9012 42.2762C39.6843 42.493 39.5625 42.7871 39.5625 43.0938V61.5938C39.5625 61.9004 39.6843 62.1945 39.9012 62.4113C40.118 62.6282 40.4121 62.75 40.7188 62.75H47.6562C47.9629 62.75 48.257 62.6282 48.4738 62.4113C48.6907 62.1945 48.8125 61.9004 48.8125 61.5938V43.0938C48.8125 42.7871 48.6907 42.493 48.4738 42.2762C48.257 42.0593 47.9629 41.9375 47.6562 41.9375H40.7188ZM31.4688 51.1875H24.5312C23.6113 51.1875 22.729 50.822 22.0785 50.1715C21.428 49.521 21.0625 48.6387 21.0625 47.7188V43.0938C21.0625 42.1738 21.428 41.2915 22.0785 40.641C22.729 39.9905 23.6113 39.625 24.5312 39.625H31.4688C32.3887 39.625 33.271 39.9905 33.9215 40.641C34.572 41.2915 34.9375 42.1738 34.9375 43.0938V47.7188C34.9375 48.6387 34.572 49.521 33.9215 50.1715C33.271 50.822 32.3887 51.1875 31.4688 51.1875ZM24.5312 41.9375C24.2246 41.9375 23.9305 42.0593 23.7137 42.2762C23.4968 42.493 23.375 42.7871 23.375 43.0938V47.7188C23.375 48.0254 23.4968 48.3195 23.7137 48.5363C23.9305 48.7532 24.2246 48.875 24.5312 48.875H31.4688C31.7754 48.875 32.0695 48.7532 32.2863 48.5363C32.5032 48.3195 32.625 48.0254 32.625 47.7188V43.0938C32.625 42.7871 32.5032 42.493 32.2863 42.2762C32.0695 42.0593 31.7754 41.9375 31.4688 41.9375H24.5312ZM15.2812 51.1875H8.34375C7.42378 51.1875 6.54149 50.822 5.89097 50.1715C5.24046 49.521 4.875 48.6387 4.875 47.7188V43.0938C4.875 42.1738 5.24046 41.2915 5.89097 40.641C6.54149 39.9905 7.42378 39.625 8.34375 39.625H15.2812C16.2012 39.625 17.0835 39.9905 17.734 40.641C18.3845 41.2915 18.75 42.1738 18.75 43.0938V47.7188C18.75 48.6387 18.3845 49.521 17.734 50.1715C17.0835 50.822 16.2012 51.1875 15.2812 51.1875ZM8.34375 41.9375C8.03709 41.9375 7.743 42.0593 7.52616 42.2762C7.30932 42.493 7.1875 42.7871 7.1875 43.0938V47.7188C7.1875 48.0254 7.30932 48.3195 7.52616 48.5363C7.743 48.7532 8.03709 48.875 8.34375 48.875H15.2812C15.5879 48.875 15.882 48.7532 16.0988 48.5363C16.3157 48.3195 16.4375 48.0254 16.4375 47.7188V43.0938C16.4375 42.7871 16.3157 42.493 16.0988 42.2762C15.882 42.0593 15.5879 41.9375 15.2812 41.9375H8.34375ZM31.4688 37.3125H24.5312C23.6113 37.3125 22.729 36.947 22.0785 36.2965C21.428 35.646 21.0625 34.7637 21.0625 33.8438V29.2188C21.0625 28.2988 21.428 27.4165 22.0785 26.766C22.729 26.1155 23.6113 25.75 24.5312 25.75H31.4688C32.3887 25.75 33.271 26.1155 33.9215 26.766C34.572 27.4165 34.9375 28.2988 34.9375 29.2188V33.8438C34.9375 34.7637 34.572 35.646 33.9215 36.2965C33.271 36.947 32.3887 37.3125 31.4688 37.3125ZM24.5312 28.0625C24.2246 28.0625 23.9305 28.1843 23.7137 28.4012C23.4968 28.618 23.375 28.9121 23.375 29.2188V33.8438C23.375 34.1504 23.4968 34.4445 23.7137 34.6613C23.9305 34.8782 24.2246 35 24.5312 35H31.4688C31.7754 35 32.0695 34.8782 32.2863 34.6613C32.5032 34.4445 32.625 34.1504 32.625 33.8438V29.2188C32.625 28.9121 32.5032 28.618 32.2863 28.4012C32.0695 28.1843 31.7754 28.0625 31.4688 28.0625H24.5312ZM15.2812 37.3125H8.34375C7.42378 37.3125 6.54149 36.947 5.89097 36.2965C5.24046 35.646 4.875 34.7637 4.875 33.8438V29.2188C4.875 28.2988 5.24046 27.4165 5.89097 26.766C6.54149 26.1155 7.42378 25.75 8.34375 25.75H15.2812C16.2012 25.75 17.0835 26.1155 17.734 26.766C18.3845 27.4165 18.75 28.2988 18.75 29.2188V33.8438C18.75 34.7637 18.3845 35.646 17.734 36.2965C17.0835 36.947 16.2012 37.3125 15.2812 37.3125ZM8.34375 28.0625C8.03709 28.0625 7.743 28.1843 7.52616 28.4012C7.30932 28.618 7.1875 28.9121 7.1875 29.2188V33.8438C7.1875 34.1504 7.30932 34.4445 7.52616 34.6613C7.743 34.8782 8.03709 35 8.34375 35H15.2812C15.5879 35 15.882 34.8782 16.0988 34.6613C16.3157 34.4445 16.4375 34.1504 16.4375 33.8438V29.2188C16.4375 28.9121 16.3157 28.618 16.0988 28.4012C15.882 28.1843 15.5879 28.0625 15.2812 28.0625H8.34375ZM47.6562 37.3125H40.7188C39.7988 37.3125 38.9165 36.947 38.266 36.2965C37.6155 35.646 37.25 34.7637 37.25 33.8438V29.2188C37.25 28.2988 37.6155 27.4165 38.266 26.766C38.9165 26.1155 39.7988 25.75 40.7188 25.75H47.6562C48.5762 25.75 49.4585 26.1155 50.109 26.766C50.7595 27.4165 51.125 28.2988 51.125 29.2188V33.8438C51.125 34.7637 50.7595 35.646 50.109 36.2965C49.4585 36.947 48.5762 37.3125 47.6562 37.3125ZM40.7188 28.0625C40.4121 28.0625 40.118 28.1843 39.9012 28.4012C39.6843 28.618 39.5625 28.9121 39.5625 29.2188V33.8438C39.5625 34.1504 39.6843 34.4445 39.9012 34.6613C40.118 34.8782 40.4121 35 40.7188 35H47.6562C47.9629 35 48.257 34.8782 48.4738 34.6613C48.6907 34.4445 48.8125 34.1504 48.8125 33.8438V29.2188C48.8125 28.9121 48.6907 28.618 48.4738 28.4012C48.257 28.1843 47.9629 28.0625 47.6562 28.0625H40.7188ZM47.6562 21.125H8.34375C7.42378 21.125 6.54149 20.7595 5.89097 20.109C5.24046 19.4585 4.875 18.5762 4.875 17.6562V8.40625C4.875 7.48628 5.24046 6.60399 5.89097 5.95347C6.54149 5.30296 7.42378 4.9375 8.34375 4.9375H47.6562C48.5762 4.9375 49.4585 5.30296 50.109 5.95347C50.7595 6.60399 51.125 7.48628 51.125 8.40625V17.6562C51.125 18.5762 50.7595 19.4585 50.109 20.109C49.4585 20.7595 48.5762 21.125 47.6562 21.125ZM8.34375 7.25C8.03709 7.25 7.743 7.37182 7.52616 7.58866C7.30932 7.8055 7.1875 8.09959 7.1875 8.40625V17.6562C7.1875 17.9629 7.30932 18.257 7.52616 18.4738C7.743 18.6907 8.03709 18.8125 8.34375 18.8125H47.6562C47.9629 18.8125 48.257 18.6907 48.4738 18.4738C48.6907 18.257 48.8125 17.9629 48.8125 17.6562V8.40625C48.8125 8.09959 48.6907 7.8055 48.4738 7.58866C48.257 7.37182 47.9629 7.25 47.6562 7.25H8.34375Z" fill="#55565A"/>
<path d="M31.4688 65.0625H24.5312C23.6113 65.0625 22.729 64.697 22.0785 64.0465C21.428 63.396 21.0625 62.5137 21.0625 61.5938V56.9688C21.0625 56.0488 21.428 55.1665 22.0785 54.516C22.729 53.8655 23.6113 53.5 24.5312 53.5H31.4688C32.3887 53.5 33.271 53.8655 33.9215 54.516C34.572 55.1665 34.9375 56.0488 34.9375 56.9688V61.5938C34.9375 62.5137 34.572 63.396 33.9215 64.0465C33.271 64.697 32.3887 65.0625 31.4688 65.0625ZM24.5312 55.8125C24.2246 55.8125 23.9305 55.9343 23.7137 56.1512C23.4968 56.368 23.375 56.6621 23.375 56.9688V61.5938C23.375 61.9004 23.4968 62.1945 23.7137 62.4113C23.9305 62.6282 24.2246 62.75 24.5312 62.75H31.4688C31.7754 62.75 32.0695 62.6282 32.2863 62.4113C32.5032 62.1945 32.625 61.9004 32.625 61.5938V56.9688C32.625 56.6621 32.5032 56.368 32.2863 56.1512C32.0695 55.9343 31.7754 55.8125 31.4688 55.8125H24.5312ZM15.2812 65.0625H8.34375C7.42378 65.0625 6.54149 64.697 5.89097 64.0465C5.24046 63.396 4.875 62.5137 4.875 61.5938V56.9688C4.875 56.0488 5.24046 55.1665 5.89097 54.516C6.54149 53.8655 7.42378 53.5 8.34375 53.5H15.2812C16.2012 53.5 17.0835 53.8655 17.734 54.516C18.3845 55.1665 18.75 56.0488 18.75 56.9688V61.5938C18.75 62.5137 18.3845 63.396 17.734 64.0465C17.0835 64.697 16.2012 65.0625 15.2812 65.0625ZM8.34375 55.8125C8.03709 55.8125 7.743 55.9343 7.52616 56.1512C7.30932 56.368 7.1875 56.6621 7.1875 56.9688V61.5938C7.1875 61.9004 7.30932 62.1945 7.52616 62.4113C7.743 62.6282 8.03709 62.75 8.34375 62.75H15.2812C15.5879 62.75 15.882 62.6282 16.0988 62.4113C16.3157 62.1945 16.4375 61.9004 16.4375 61.5938V56.9688C16.4375 56.6621 16.3157 56.368 16.0988 56.1512C15.882 55.9343 15.5879 55.8125 15.2812 55.8125H8.34375ZM47.6562 65.0625H40.7188C39.7988 65.0625 38.9165 64.697 38.266 64.0465C37.6155 63.396 37.25 62.5137 37.25 61.5938V43.0938C37.25 42.1738 37.6155 41.2915 38.266 40.641C38.9165 39.9905 39.7988 39.625 40.7188 39.625H47.6562C48.5762 39.625 49.4585 39.9905 50.109 40.641C50.7595 41.2915 51.125 42.1738 51.125 43.0938V61.5938C51.125 62.5137 50.7595 63.396 50.109 64.0465C49.4585 64.697 48.5762 65.0625 47.6562 65.0625ZM40.7188 41.9375C40.4121 41.9375 40.118 42.0593 39.9012 42.2762C39.6843 42.493 39.5625 42.7871 39.5625 43.0938V61.5938C39.5625 61.9004 39.6843 62.1945 39.9012 62.4113C40.118 62.6282 40.4121 62.75 40.7188 62.75H47.6562C47.9629 62.75 48.257 62.6282 48.4738 62.4113C48.6907 62.1945 48.8125 61.9004 48.8125 61.5938V43.0938C48.8125 42.7871 48.6907 42.493 48.4738 42.2762C48.257 42.0593 47.9629 41.9375 47.6562 41.9375H40.7188ZM31.4688 51.1875H24.5312C23.6113 51.1875 22.729 50.822 22.0785 50.1715C21.428 49.521 21.0625 48.6387 21.0625 47.7188V43.0938C21.0625 42.1738 21.428 41.2915 22.0785 40.641C22.729 39.9905 23.6113 39.625 24.5312 39.625H31.4688C32.3887 39.625 33.271 39.9905 33.9215 40.641C34.572 41.2915 34.9375 42.1738 34.9375 43.0938V47.7188C34.9375 48.6387 34.572 49.521 33.9215 50.1715C33.271 50.822 32.3887 51.1875 31.4688 51.1875ZM24.5312 41.9375C24.2246 41.9375 23.9305 42.0593 23.7137 42.2762C23.4968 42.493 23.375 42.7871 23.375 43.0938V47.7188C23.375 48.0254 23.4968 48.3195 23.7137 48.5363C23.9305 48.7532 24.2246 48.875 24.5312 48.875H31.4688C31.7754 48.875 32.0695 48.7532 32.2863 48.5363C32.5032 48.3195 32.625 48.0254 32.625 47.7188V43.0938C32.625 42.7871 32.5032 42.493 32.2863 42.2762C32.0695 42.0593 31.7754 41.9375 31.4688 41.9375H24.5312ZM15.2812 51.1875H8.34375C7.42378 51.1875 6.54149 50.822 5.89097 50.1715C5.24046 49.521 4.875 48.6387 4.875 47.7188V43.0938C4.875 42.1738 5.24046 41.2915 5.89097 40.641C6.54149 39.9905 7.42378 39.625 8.34375 39.625H15.2812C16.2012 39.625 17.0835 39.9905 17.734 40.641C18.3845 41.2915 18.75 42.1738 18.75 43.0938V47.7188C18.75 48.6387 18.3845 49.521 17.734 50.1715C17.0835 50.822 16.2012 51.1875 15.2812 51.1875ZM8.34375 41.9375C8.03709 41.9375 7.743 42.0593 7.52616 42.2762C7.30932 42.493 7.1875 42.7871 7.1875 43.0938V47.7188C7.1875 48.0254 7.30932 48.3195 7.52616 48.5363C7.743 48.7532 8.03709 48.875 8.34375 48.875H15.2812C15.5879 48.875 15.882 48.7532 16.0988 48.5363C16.3157 48.3195 16.4375 48.0254 16.4375 47.7188V43.0938C16.4375 42.7871 16.3157 42.493 16.0988 42.2762C15.882 42.0593 15.5879 41.9375 15.2812 41.9375H8.34375ZM31.4688 37.3125H24.5312C23.6113 37.3125 22.729 36.947 22.0785 36.2965C21.428 35.646 21.0625 34.7637 21.0625 33.8438V29.2188C21.0625 28.2988 21.428 27.4165 22.0785 26.766C22.729 26.1155 23.6113 25.75 24.5312 25.75H31.4688C32.3887 25.75 33.271 26.1155 33.9215 26.766C34.572 27.4165 34.9375 28.2988 34.9375 29.2188V33.8438C34.9375 34.7637 34.572 35.646 33.9215 36.2965C33.271 36.947 32.3887 37.3125 31.4688 37.3125ZM24.5312 28.0625C24.2246 28.0625 23.9305 28.1843 23.7137 28.4012C23.4968 28.618 23.375 28.9121 23.375 29.2188V33.8438C23.375 34.1504 23.4968 34.4445 23.7137 34.6613C23.9305 34.8782 24.2246 35 24.5312 35H31.4688C31.7754 35 32.0695 34.8782 32.2863 34.6613C32.5032 34.4445 32.625 34.1504 32.625 33.8438V29.2188C32.625 28.9121 32.5032 28.618 32.2863 28.4012C32.0695 28.1843 31.7754 28.0625 31.4688 28.0625H24.5312ZM15.2812 37.3125H8.34375C7.42378 37.3125 6.54149 36.947 5.89097 36.2965C5.24046 35.646 4.875 34.7637 4.875 33.8438V29.2188C4.875 28.2988 5.24046 27.4165 5.89097 26.766C6.54149 26.1155 7.42378 25.75 8.34375 25.75H15.2812C16.2012 25.75 17.0835 26.1155 17.734 26.766C18.3845 27.4165 18.75 28.2988 18.75 29.2188V33.8438C18.75 34.7637 18.3845 35.646 17.734 36.2965C17.0835 36.947 16.2012 37.3125 15.2812 37.3125ZM8.34375 28.0625C8.03709 28.0625 7.743 28.1843 7.52616 28.4012C7.30932 28.618 7.1875 28.9121 7.1875 29.2188V33.8438C7.1875 34.1504 7.30932 34.4445 7.52616 34.6613C7.743 34.8782 8.03709 35 8.34375 35H15.2812C15.5879 35 15.882 34.8782 16.0988 34.6613C16.3157 34.4445 16.4375 34.1504 16.4375 33.8438V29.2188C16.4375 28.9121 16.3157 28.618 16.0988 28.4012C15.882 28.1843 15.5879 28.0625 15.2812 28.0625H8.34375ZM47.6562 37.3125H40.7188C39.7988 37.3125 38.9165 36.947 38.266 36.2965C37.6155 35.646 37.25 34.7637 37.25 33.8438V29.2188C37.25 28.2988 37.6155 27.4165 38.266 26.766C38.9165 26.1155 39.7988 25.75 40.7188 25.75H47.6562C48.5762 25.75 49.4585 26.1155 50.109 26.766C50.7595 27.4165 51.125 28.2988 51.125 29.2188V33.8438C51.125 34.7637 50.7595 35.646 50.109 36.2965C49.4585 36.947 48.5762 37.3125 47.6562 37.3125ZM40.7188 28.0625C40.4121 28.0625 40.118 28.1843 39.9012 28.4012C39.6843 28.618 39.5625 28.9121 39.5625 29.2188V33.8438C39.5625 34.1504 39.6843 34.4445 39.9012 34.6613C40.118 34.8782 40.4121 35 40.7188 35H47.6562C47.9629 35 48.257 34.8782 48.4738 34.6613C48.6907 34.4445 48.8125 34.1504 48.8125 33.8438V29.2188C48.8125 28.9121 48.6907 28.618 48.4738 28.4012C48.257 28.1843 47.9629 28.0625 47.6562 28.0625H40.7188ZM47.6562 21.125H8.34375C7.42378 21.125 6.54149 20.7595 5.89097 20.109C5.24046 19.4585 4.875 18.5762 4.875 17.6562V8.40625C4.875 7.48628 5.24046 6.60399 5.89097 5.95347C6.54149 5.30296 7.42378 4.9375 8.34375 4.9375H47.6562C48.5762 4.9375 49.4585 5.30296 50.109 5.95347C50.7595 6.60399 51.125 7.48628 51.125 8.40625V17.6562C51.125 18.5762 50.7595 19.4585 50.109 20.109C49.4585 20.7595 48.5762 21.125 47.6562 21.125ZM8.34375 7.25C8.03709 7.25 7.743 7.37182 7.52616 7.58866C7.30932 7.8055 7.1875 8.09959 7.1875 8.40625V17.6562C7.1875 17.9629 7.30932 18.257 7.52616 18.4738C7.743 18.6907 8.03709 18.8125 8.34375 18.8125H47.6562C47.9629 18.8125 48.257 18.6907 48.4738 18.4738C48.6907 18.257 48.8125 17.9629 48.8125 17.6562V8.40625C48.8125 8.09959 48.6907 7.8055 48.4738 7.58866C48.257 7.37182 47.9629 7.25 47.6562 7.25H8.34375Z" stroke="#55565A" stroke-width="0.4" mask="url(#path-2-outside-1_10_18)"/>
<path d="M41.664 16.711C42.3333 17.3803 43.241 17.7563 44.1875 17.7563C45.134 17.7563 46.0417 17.3803 46.711 16.711C47.3803 16.0417 47.7562 15.134 47.7562 14.1875V11.875C47.7562 10.9285 47.3803 10.0208 46.711 9.35151C46.0417 8.68224 45.134 8.30625 44.1875 8.30625C43.241 8.30625 42.3333 8.68224 41.664 9.35151C40.9947 10.0208 40.6187 10.9285 40.6187 11.875V14.1875C40.6187 15.134 40.9947 16.0417 41.664 16.711ZM43.4406 11.1281C43.6387 10.93 43.9074 10.8187 44.1875 10.8187C44.4676 10.8187 44.7363 10.93 44.9344 11.1281C45.1325 11.3262 45.2438 11.5949 45.2438 11.875V14.1875C45.2438 14.4676 45.1325 14.7363 44.9344 14.9344C44.7363 15.1325 44.4676 15.2438 44.1875 15.2438C43.9074 15.2438 43.6387 15.1325 43.4406 14.9344C43.2425 14.7363 43.1312 14.4676 43.1312 14.1875V11.875C43.1312 11.5949 43.2425 11.3262 43.4406 11.1281Z" fill="#55565A" stroke="#55565A" stroke-width="0.2"/>
</svg>
