<svg width="47" height="37" viewBox="0 0 47 37" fill="none" xmlns="http://www.w3.org/2000/svg">
<path d="M11.7269 31.9038V30.0923H35.2731V31.9038L35.2731 31.9045C35.2831 34.1987 37.1483 36.0538 39.4423 36.0538H41.9808C44.2748 36.0538 46.14 34.1987 46.15 31.9045V31.9038V18.0288L46.15 18.0279C46.1401 16.4793 45.5093 14.9992 44.3853 13.9231L43.4281 12.9096L39.9964 3.65934L39.9963 3.65894C39.3877 2.03286 37.8318 0.956103 36.097 0.94613H36.0962H11.5096C9.77348 0.94613 8.21781 2.0335 7.60951 3.65894L7.60934 3.65941L4.22757 12.7892L2.84269 14.0705C1.57997 15.147 0.85 16.7262 0.85 18.3846L0.849999 31.9038L0.850001 31.9045C0.859976 34.1987 2.72519 36.0538 5.01923 36.0538H7.55769C9.85173 36.0538 11.7169 34.1987 11.7269 31.9045V31.9038ZM41.982 27.8692H41.9808L5.01923 27.8692L5.01797 27.8692C3.95599 27.8781 3.08233 27.0308 3.07308 25.9609V18.3846C3.07308 17.3713 3.52459 16.4035 4.29875 15.7492L4.29909 15.7496L4.30799 15.7407L4.34485 15.7038L5.60756 14.5154H41.8963L42.766 15.4485C42.7756 15.4618 42.7854 15.4718 42.7928 15.4786C42.7986 15.484 42.8046 15.489 42.8095 15.4928L42.8104 15.4946L42.8296 15.5128C43.5211 16.1674 43.9173 17.0801 43.9173 18.0288V25.9615V26.1115H43.9197C43.8337 27.1015 42.9928 27.8777 41.982 27.8692ZM9.69807 4.41821C9.6981 4.41815 9.69812 4.4181 9.69814 4.41804C9.98356 3.66011 10.7059 3.16921 11.5096 3.16921H36.1058C36.9086 3.16921 37.6317 3.66892 37.9174 4.41839C37.9174 4.41852 37.9175 4.41864 37.9175 4.41876L40.842 12.2923H38.9457C38.3449 8.67382 34.9498 6.192 31.3049 6.73621C28.4074 7.16268 26.121 9.41304 25.6409 12.2923H6.77342L9.69807 4.41821ZM33.219 8.97367C34.908 9.33312 36.2416 10.6206 36.6669 12.2923H27.9C28.4895 9.94927 30.8318 8.47459 33.219 8.97367ZM9.50385 31.9031C9.49462 32.9742 8.62917 33.8307 7.55769 33.8307H5.01923C3.94777 33.8307 3.08233 32.9742 3.07308 31.9032V29.6465C3.64233 29.9481 4.33421 30.0923 5.01923 30.0923H9.50385V31.9031ZM43.9269 31.9035C43.9175 32.9744 43.0521 33.8307 41.9808 33.8307H39.4423C38.3714 33.8307 37.5056 32.9652 37.4962 31.9034V30.0923H41.9808C42.6658 30.0923 43.3577 29.9481 43.9269 29.6465V31.9035Z" fill="#508CAE" stroke="#508CAE" stroke-width="0.3"/>
<path d="M13.6921 18.2115H6.48058C5.95174 18.2115 5.51904 18.6442 5.51904 19.173V24.173C5.51904 24.7019 5.95174 25.1346 6.48058 25.1346H13.6921C14.221 25.1346 14.6537 24.7019 14.6537 24.173V19.173C14.6537 18.6442 14.221 18.2115 13.6921 18.2115ZM12.7306 23.2115H7.44212V20.1346H12.7306V23.2115ZM40.519 18.2115H33.3075C32.7787 18.2115 32.346 18.6442 32.346 19.173V24.173C32.346 24.7019 32.7787 25.1346 33.3075 25.1346H40.519C41.0479 25.1346 41.4806 24.7019 41.4806 24.173V19.173C41.4806 18.6442 41.0479 18.2115 40.519 18.2115ZM39.5575 23.2115H34.269V20.1346H39.5575V23.2115ZM28.144 22.2499H18.8556C18.3267 22.2499 17.894 22.6826 17.894 23.2115C17.894 23.7403 18.3267 24.173 18.8556 24.173H28.144C28.6729 24.173 29.1056 23.7403 29.1056 23.2115C29.1056 22.6826 28.6729 22.2499 28.144 22.2499ZM28.144 19.2692H18.8556C18.3267 19.2692 17.894 19.7019 17.894 20.2307C17.894 20.7596 18.3267 21.1923 18.8556 21.1923H28.144C28.6729 21.1923 29.1056 20.7596 29.1056 20.2307C29.1056 19.7019 28.6729 19.2692 28.144 19.2692Z" fill="#508CAE"/>
</svg>
