<svg width="85" height="88" viewBox="0 0 85 88" fill="none" xmlns="http://www.w3.org/2000/svg">
<path d="M47.5 13C47.5 11.0109 46.7098 9.10322 45.3033 7.6967C43.8968 6.29018 41.9891 5.5 40 5.5C38.0109 5.5 36.1032 6.29018 34.6967 7.6967C33.2902 9.10322 32.5 11.0109 32.5 13H47.5ZM27.5 13C27.5 9.68479 28.817 6.50537 31.1612 4.16117C33.5054 1.81696 36.6848 0.5 40 0.5C43.3152 0.5 46.4946 1.81696 48.8388 4.16117C51.183 6.50537 52.5 9.68479 52.5 13H77.5C78.163 13 78.7989 13.2634 79.2678 13.7322C79.7366 14.2011 80 14.837 80 15.5C80 16.163 79.7366 16.7989 79.2678 17.2678C78.7989 17.7366 78.163 18 77.5 18H72.23L69.805 38.98C68.192 38.5368 66.5418 38.2422 64.875 38.1L67.2 18H12.805L18.705 69.15C18.9871 71.587 20.1552 73.8352 21.9871 75.467C23.819 77.0988 26.1867 78.0003 28.64 78H38C38.915 79.79 40.02 81.465 41.285 83H28.64C24.9598 82.9997 21.4081 81.6465 18.6607 79.1979C15.9133 76.7492 14.162 73.376 13.74 69.72L7.77 18H2.5C1.83696 18 1.20107 17.7366 0.732234 17.2678C0.263393 16.7989 0 16.163 0 15.5C0 14.837 0.263393 14.2011 0.732234 13.7322C1.20107 13.2634 1.83696 13 2.5 13H27.5ZM85 65.5C85 71.4674 82.6295 77.1903 78.4099 81.4099C74.1903 85.6295 68.4674 88 62.5 88C56.5326 88 50.8097 85.6295 46.5901 81.4099C42.3705 77.1903 40 71.4674 40 65.5C40 59.5326 42.3705 53.8097 46.5901 49.5901C50.8097 45.3705 56.5326 43 62.5 43C68.4674 43 74.1903 45.3705 78.4099 49.5901C82.6295 53.8097 85 59.5326 85 65.5ZM71.77 59.77C72.2394 59.3006 72.5032 58.6639 72.5032 58C72.5032 57.3361 72.2394 56.6994 71.77 56.23C71.3006 55.7606 70.6639 55.4968 70 55.4968C69.3361 55.4968 68.6994 55.7606 68.23 56.23L62.5 61.965L56.77 56.23C56.3006 55.7606 55.6639 55.4968 55 55.4968C54.3361 55.4968 53.6994 55.7606 53.23 56.23C52.7606 56.6994 52.4968 57.3361 52.4968 58C52.4968 58.6639 52.7606 59.3006 53.23 59.77L58.965 65.5L53.23 71.23C52.9976 71.4624 52.8132 71.7384 52.6874 72.0421C52.5616 72.3458 52.4968 72.6713 52.4968 73C52.4968 73.3287 52.5616 73.6542 52.6874 73.9579C52.8132 74.2616 52.9976 74.5376 53.23 74.77C53.4624 75.0024 53.7384 75.1868 54.0421 75.3126C54.3458 75.4384 54.6713 75.5032 55 75.5032C55.3287 75.5032 55.6542 75.4384 55.9579 75.3126C56.2616 75.1868 56.5376 75.0024 56.77 74.77L62.5 69.035L68.23 74.77C68.4624 75.0024 68.7384 75.1868 69.0421 75.3126C69.3458 75.4384 69.6713 75.5032 70 75.5032C70.3287 75.5032 70.6542 75.4384 70.9579 75.3126C71.2616 75.1868 71.5376 75.0024 71.77 74.77C72.0024 74.5376 72.1868 74.2616 72.3126 73.9579C72.4384 73.6542 72.5032 73.3287 72.5032 73C72.5032 72.6713 72.4384 72.3458 72.3126 72.0421C72.1868 71.7384 72.0024 71.4624 71.77 71.23L66.035 65.5L71.77 59.77Z" fill="#D05150"/>
</svg>
