<svg width="42" height="33" viewBox="0 0 42 33" fill="none" xmlns="http://www.w3.org/2000/svg">
<path d="M36.8354 0H5.1646C3.79532 0.00145584 2.48254 0.536333 1.51431 1.48727C0.546084 2.43821 0.00148231 3.72754 0 5.07238V27.9276C0.00148231 29.2725 0.546084 30.5618 1.51431 31.5127C2.48254 32.4637 3.79532 32.9985 5.1646 33H36.8354C38.2047 32.9985 39.5175 32.4637 40.4857 31.5127C41.4539 30.5618 41.9985 29.2725 42 27.9276V5.07238C41.9985 3.72754 41.4539 2.43821 40.4857 1.48727C39.5175 0.536333 38.2047 0.00145584 36.8354 0ZM5.1646 2.75H36.8354C37.4623 2.75073 38.0633 2.99564 38.5066 3.43101C38.9499 3.86638 39.1993 4.45667 39.2 5.07238V6.12425L21 17.6151L2.8 6.12425V5.07238C2.80074 4.45667 3.05011 3.86638 3.49339 3.43101C3.93668 2.99564 4.5377 2.75073 5.1646 2.75ZM36.8354 30.25H5.1646C4.5377 30.2493 3.93668 30.0044 3.49339 29.569C3.05011 29.1336 2.80074 28.5433 2.8 27.9276V9.394L20.2426 20.4064C20.4685 20.5491 20.7314 20.625 21 20.625C21.2686 20.625 21.5315 20.5491 21.7574 20.4064L39.2 9.394V27.9276C39.1993 28.5433 38.9499 29.1336 38.5066 29.569C38.0633 30.0044 37.4623 30.2493 36.8354 30.25Z" fill="#508CAE"/>
</svg>
