<svg width="52" height="52" viewBox="0 0 52 52" fill="none" xmlns="http://www.w3.org/2000/svg">
<path d="M44.9828 41.1704C41.9112 44.4013 37.9786 46.181 33.9091 46.181C27.2392 46.181 21.4641 41.4971 18.7461 34.7264H37.2728C38.8793 34.7264 40.1818 33.4239 40.1818 31.8174C40.1818 30.2109 38.8793 28.9084 37.2728 28.9084H17.2678C17.1508 27.9431 17.0917 26.9716 17.0909 25.9992C17.0909 24.8849 17.1694 23.7925 17.3157 22.7265H37.2728C38.8793 22.7265 40.1818 21.424 40.1818 19.8174C40.1818 18.2109 38.8793 16.9083 37.2728 16.9083H18.9008C21.6771 10.3359 27.36 5.81746 33.9091 5.81746C37.9786 5.81746 41.9112 7.59724 44.9828 10.8278C46.0887 11.9915 47.9289 12.0394 49.0951 10.9326C50.2598 9.82533 50.306 7.98403 49.2003 6.8197C45.0199 2.42191 39.5896 0 33.9098 0C24.2116 0 15.9215 7.04367 12.7045 16.9091H4.90903C3.30251 16.9091 2 18.2116 2 19.8182C2 21.4247 3.30251 22.7272 4.90903 22.7272H11.458C11.3401 23.8007 11.2727 24.8909 11.2727 25.9999C11.2727 26.9843 11.3242 27.9531 11.4182 28.9091H4.90903C3.30251 28.9091 2 30.2116 2 31.8181C2 33.4246 3.30251 34.7271 4.90903 34.7271H12.5891C15.7183 44.7833 24.0922 51.9999 33.9091 51.9999C39.5894 51.9999 45.0184 49.5774 49.1988 45.1803C50.3053 44.0156 50.2598 42.1745 49.0944 41.0674C47.9304 39.9602 46.0887 40.0064 44.9828 41.1704Z" fill="white"/>
</svg>
