<svg width="70" height="70" viewBox="0 0 70 70" fill="none" xmlns="http://www.w3.org/2000/svg">
<circle cx="35" cy="35" r="35" fill="#FBCDCD"/>
<path d="M29 51.5034C29 50.7816 29.1423 50.0669 29.4187 49.4C29.6951 48.7331 30.1002 48.1272 30.6109 47.6168C31.1216 47.1064 31.728 46.7015 32.3952 46.4253C33.0625 46.149 33.7777 46.0069 34.5 46.0069C35.2223 46.0069 35.9375 46.149 36.6048 46.4253C37.2721 46.7015 37.8784 47.1064 38.3891 47.6168C38.8998 48.1272 39.3049 48.7331 39.5813 49.4C39.8577 50.0669 40 50.7816 40 51.5034C40 52.9612 39.4205 54.3593 38.3891 55.3901C37.3576 56.4209 35.9587 57 34.5 57C33.0413 57 31.6424 56.4209 30.6109 55.3901C29.5795 54.3593 29 52.9612 29 51.5034ZM29.539 18.4966C29.4658 17.8031 29.5392 17.102 29.7546 16.4388C29.97 15.7756 30.3225 15.165 30.7893 14.6467C31.256 14.1284 31.8266 13.714 32.464 13.4303C33.1013 13.1466 33.7913 13 34.489 13C35.1867 13 35.8767 13.1466 36.514 13.4303C37.1514 13.714 37.722 14.1284 38.1887 14.6467C38.6555 15.165 39.008 15.7756 39.2234 16.4388C39.4388 17.102 39.5122 17.8031 39.439 18.4966L37.514 37.773C37.4358 38.5203 37.0834 39.2122 36.5247 39.7152C35.9661 40.2181 35.2409 40.4964 34.489 40.4964C33.7371 40.4964 33.0119 40.2181 32.4533 39.7152C31.8946 39.2122 31.5422 38.5203 31.464 37.773L29.539 18.4966Z" fill="#9E1F1E"/>
</svg>
