<svg width="48" height="52" viewBox="0 0 48 52" fill="none" xmlns="http://www.w3.org/2000/svg">
<path d="M42.9828 41.1704C39.9112 44.4013 35.9786 46.181 31.9091 46.181C25.2392 46.181 19.4641 41.4971 16.7461 34.7264H35.2728C36.8793 34.7264 38.1818 33.4239 38.1818 31.8174C38.1818 30.2109 36.8793 28.9084 35.2728 28.9084H15.2678C15.1508 27.9431 15.0917 26.9716 15.0909 25.9992C15.0909 24.8849 15.1694 23.7925 15.3157 22.7265H35.2728C36.8793 22.7265 38.1818 21.424 38.1818 19.8174C38.1818 18.2109 36.8793 16.9083 35.2728 16.9083H16.9008C19.6771 10.3359 25.36 5.81746 31.9091 5.81746C35.9786 5.81746 39.9112 7.59724 42.9828 10.8278C44.0887 11.9915 45.9289 12.0394 47.0951 10.9326C48.2598 9.82533 48.306 7.98403 47.2003 6.8197C43.0199 2.42191 37.5896 0 31.9098 0C22.2116 0 13.9215 7.04367 10.7045 16.9091H2.90903C1.30251 16.9091 0 18.2116 0 19.8182C0 21.4247 1.30251 22.7272 2.90903 22.7272H9.45801C9.34013 23.8007 9.27273 24.8909 9.27273 25.9999C9.27273 26.9843 9.32415 27.9531 9.41824 28.9091H2.90903C1.30251 28.9091 0 30.2116 0 31.8181C0 33.4246 1.30251 34.7271 2.90903 34.7271H10.5891C13.7183 44.7833 22.0922 51.9999 31.9091 51.9999C37.5894 51.9999 43.0184 49.5774 47.1988 45.1803C48.3053 44.0156 48.2598 42.1745 47.0944 41.0674C45.9304 39.9602 44.0887 40.0064 42.9828 41.1704Z" fill="#686868"/>
</svg>
