<svg width="38" height="38" viewBox="0 0 38 38" fill="none" xmlns="http://www.w3.org/2000/svg">
<path d="M37.0093 32.3049L23.7072 19.0027L24.3102 18.3996C24.9102 17.7997 25.6818 17.4428 26.4827 17.3949C27.8411 17.3142 29.1226 16.7379 30.0844 15.7752L37.9587 7.90103L36.3838 6.32618L30.3469 12.3631L28.772 10.7882L34.8089 4.75126L33.2341 3.17641L27.1972 9.21329L25.6223 7.63845L31.6593 1.60157L30.0844 0.026793L22.2101 7.90103C21.2475 8.86282 20.6711 10.1443 20.5903 11.5027C20.5424 12.3037 20.1857 13.0752 19.5857 13.6752L18.9827 14.2782L4.70445 0H3.34417L3.06644 0.70582C2.33331 2.56871 2.02011 4.47406 2.16075 6.21575C2.32106 8.20095 3.0752 9.91978 4.34189 11.1864L13.2082 20.0527L0.991064 32.2699C-0.311475 33.5724 -0.311475 35.6919 0.991064 36.9943C2.35832 38.3616 4.48959 38.2204 5.71553 36.9943L18.9827 23.7272L32.2849 37.0294C33.7201 38.4647 35.8649 38.1739 37.0093 37.0294C38.312 35.727 38.312 33.6075 37.0093 32.3049ZM21.1605 15.25C22.1462 14.2644 22.7332 12.9809 22.8136 11.6356C22.8621 10.821 23.2078 10.0525 23.785 9.47581L24.0476 9.21329L28.7721 13.9378L28.5096 14.2003C27.9329 14.7776 27.1644 15.1233 26.3499 15.1718C25.0046 15.2522 23.721 15.8392 22.7354 16.8248L22.1324 17.4279L22.1109 17.4064L20.5575 15.8531L21.1605 15.25ZM4.14076 35.4196C3.70658 35.8538 3.00017 35.8539 2.56591 35.4196C2.13173 34.9854 2.13173 34.279 2.56591 33.8448L14.7831 21.6276L16.3581 23.2024L4.14076 35.4196ZM17.9113 21.606L5.91667 9.61148C4.22878 7.92352 4.10751 5.35281 4.64567 3.09099L20.536 18.9813L17.9113 21.606ZM35.4345 35.4547C35.0002 35.8889 34.2939 35.8889 33.8596 35.4547L20.5574 22.1525L22.1323 20.5777L35.4345 33.8797C35.5382 33.9829 35.6205 34.1056 35.6765 34.2408C35.7325 34.376 35.7611 34.5209 35.7607 34.6672C35.7607 34.9647 35.6448 35.2443 35.4345 35.4547Z" fill="#508CAE"/>
</svg>
