<svg width="58" height="92" viewBox="0 0 58 92" fill="none" xmlns="http://www.w3.org/2000/svg">
<path d="M41.8873 47.5318C39.3935 45.7902 36.2593 45.5245 33.5037 46.82L26.306 50.2042C20.9245 52.734 17.0857 57.4984 15.7737 63.2751C15.039 66.5106 13.958 69.0128 12.5618 70.7119C12.2969 71.0342 12.1518 71.4368 12.1506 71.8524C12.1494 72.268 12.2923 72.6714 12.5553 72.9952L20.2086 82.4158C20.4734 82.7418 20.8436 82.967 21.2568 83.0535C21.6699 83.1399 22.1005 83.0822 22.4757 82.8901L28.4082 79.8528C37.9589 74.9629 44.3042 65.7156 45.3815 55.1168C45.6869 52.1088 44.3805 49.2736 41.8873 47.5318ZM41.7374 54.7528C40.7849 64.1262 35.1732 72.3038 26.7269 76.6285L22.1235 78.9852L16.2856 71.7994C17.6097 69.7874 18.6374 67.1959 19.3471 64.0715C20.4101 59.3903 23.5189 55.5307 27.8757 53.4821L35.0738 50.0979C36.6193 49.371 38.3781 49.5201 39.7769 50.4973C41.1759 51.4748 41.909 53.0657 41.7374 54.7528ZM10.9915 73.3023C10.7006 72.9491 10.2862 72.7173 9.83066 72.653C9.37515 72.5888 8.91193 72.6968 8.53314 72.9556L3.78356 76.2006C1.81346 77.5466 0.512744 79.5759 0.120866 81.9148C-0.271293 84.2537 0.29807 86.5906 1.72359 88.4952C3.14095 90.3888 5.22007 91.6053 7.5781 91.9204C7.97673 91.9738 8.37425 92 8.76951 92C10.7111 92 12.5835 91.3627 14.14 90.1549L19.2164 86.2154C19.4082 86.0667 19.5681 85.8815 19.6867 85.6707C19.8054 85.4599 19.8804 85.2278 19.9073 84.9879C19.9343 84.7481 19.9127 84.5053 19.8438 84.2738C19.7749 84.0423 19.66 83.8268 19.506 83.6398L10.9915 73.3023ZM11.8817 87.2985C11.3485 87.7151 10.7358 88.0207 10.0805 88.197C9.42518 88.3733 8.74067 88.4167 8.06801 88.3246C7.39478 88.2369 6.74636 88.0153 6.16166 87.6732C5.57695 87.3311 5.06801 86.8755 4.66535 86.3338C3.83708 85.227 3.50606 83.8687 3.73369 82.5093C3.96133 81.1499 4.71747 79.9706 5.8624 79.1882L9.22195 76.8931L15.4872 84.5001L11.8817 87.2985ZM48.8067 0.0432402C38.1099 1.11038 28.777 7.39712 23.8417 16.8604L20.7763 22.7385C20.5824 23.1102 20.5242 23.5368 20.6114 23.9461C20.6985 24.3554 20.9258 24.7223 21.2547 24.9847L30.7623 32.568C31.0875 32.8278 31.4928 32.9694 31.9106 32.9692C32.3205 32.9692 32.7304 32.8332 33.0668 32.5616C34.7819 31.1779 37.3073 30.1072 40.5725 29.3789C46.4027 28.079 51.2112 24.2754 53.7645 18.9436L57.1798 11.8122C58.4878 9.08143 58.2191 5.97603 56.4614 3.50538C54.7037 1.03474 51.8459 -0.258786 48.8067 0.0432402ZM53.8715 10.2563L50.4562 17.3877C48.3886 21.7049 44.4932 24.7851 39.7687 25.8386C36.6154 26.5417 33.9996 27.5595 31.9689 28.8717L24.7165 23.0874L27.0951 18.5263C31.4598 10.1572 39.7135 4.59765 49.1735 3.65388C50.8754 3.48361 52.4821 4.20993 53.4681 5.59612C54.4544 6.98204 54.6051 8.72413 53.8715 10.2563ZM15.1184 43.3C16.6443 44.4213 18.4453 45.0078 20.3038 45.0078C20.7864 45.0078 21.273 44.9682 21.7598 44.888C24.1206 44.4998 26.1685 43.211 27.5272 41.2593L30.8023 36.5533C31.0635 36.178 31.1725 35.719 31.1076 35.2677C31.0428 34.8163 30.8089 34.4057 30.4524 34.1175L20.019 25.6812C19.8303 25.5286 19.6128 25.4148 19.3792 25.3466C19.1456 25.2783 18.9006 25.2569 18.6586 25.2837C18.4165 25.3104 18.1823 25.3847 17.9696 25.5022C17.7569 25.6197 17.57 25.7781 17.4198 25.9681L13.4439 30.9979C11.9767 32.8539 11.3439 35.1626 11.662 37.4993C11.98 39.8359 13.2072 41.8957 15.1184 43.3ZM16.3267 33.2352L19.1507 29.6628L26.8283 35.8708L24.5117 39.1992C24.1263 39.7573 23.6304 40.2321 23.0543 40.5946C22.4782 40.9572 21.8337 41.2 21.16 41.3084C19.7883 41.5334 18.4171 41.2062 17.3001 40.3853C16.1895 39.5691 15.4757 38.3716 15.2908 37.0136C15.106 35.6556 15.474 34.314 16.3267 33.2352Z" fill="#55565A"/>
</svg>
