<svg width="1080" height="1789" viewBox="0 0 1080 1789" fill="none" xmlns="http://www.w3.org/2000/svg">
<g filter="url(#filter0_d_19_144)">
<circle cx="553" cy="1439" r="284" fill="white"/>
</g>
<path d="M305.951 1410.78C300.455 1410.23 295.535 1414.24 295.199 1419.75C293.066 1454.75 298.063 1489.84 309.928 1522.91C322.919 1559.11 343.818 1591.96 371.102 1619.07C398.387 1646.18 431.372 1666.87 467.658 1679.63C500.796 1691.28 535.925 1696.05 570.903 1693.69C576.413 1693.32 580.392 1688.38 579.808 1682.89L573.732 1625.75C573.148 1620.26 568.222 1616.31 562.706 1616.59C539.187 1617.79 515.627 1614.39 493.351 1606.56C467.926 1597.62 444.813 1583.12 425.695 1564.13C406.576 1545.13 391.933 1522.11 382.83 1496.74C374.854 1474.52 371.307 1450.98 372.352 1427.46C372.597 1421.94 368.616 1417.04 363.121 1416.49L305.951 1410.78Z" fill="#229C78"/>
<path d="M607.288 1678.4C608.483 1683.79 613.828 1687.21 619.17 1685.81C648.763 1678.05 676.771 1665.09 701.88 1647.52C729.722 1628.03 753.454 1603.25 771.72 1574.59C789.986 1545.94 802.429 1513.96 808.338 1480.5C813.667 1450.32 813.588 1419.46 808.132 1389.35C807.147 1383.92 801.788 1380.52 796.396 1381.71L740.4 1394.11C735.008 1395.31 731.634 1400.64 732.529 1406.09C735.842 1426.26 735.727 1446.87 732.164 1467.05C728.022 1490.51 719.298 1512.93 706.492 1533.02C693.686 1553.11 677.048 1570.48 657.528 1584.14C640.742 1595.89 622.108 1604.69 602.426 1610.21C597.107 1611.7 593.694 1617.01 594.888 1622.4L607.288 1678.4Z" fill="#A58227"/>
<path d="M790.76 1360.67C796.027 1359.01 798.969 1353.39 797.106 1348.19C784.516 1313.06 764.463 1281.03 738.285 1254.33C712.107 1227.63 680.482 1206.95 645.612 1193.67C640.451 1191.7 634.769 1194.53 633.004 1199.77L614.706 1254.02C612.941 1259.25 615.766 1264.9 620.894 1266.95C644.255 1276.29 665.455 1290.4 683.119 1308.42C700.783 1326.44 714.472 1347.91 723.349 1371.45C725.297 1376.62 730.887 1379.56 736.154 1377.89L790.76 1360.67Z" fill="#81B2C6"/>
<path d="M601.922 1191.48C602.997 1186.06 599.477 1180.78 594.023 1179.91C529.778 1169.72 463.902 1184.1 409.63 1220.4C355.359 1256.7 316.919 1312.09 301.805 1375.36C300.521 1380.73 304.061 1386 309.478 1387.08L363.663 1397.83C369.081 1398.9 374.317 1395.37 375.685 1390.02C386.858 1346.33 413.779 1308.14 451.462 1282.94C489.144 1257.74 534.715 1247.44 579.366 1253.79C584.833 1254.57 590.095 1251.08 591.17 1245.66L601.922 1191.48Z" fill="#227793"/>
<path d="M517.28 1415.72C512.693 1415.72 509.12 1414.76 506.56 1412.84C504.053 1410.92 502.293 1408.33 501.28 1405.08C500.32 1401.83 499.84 1398.2 499.84 1394.2V1371.32C499.84 1366.95 500.32 1363.13 501.28 1359.88C502.293 1356.63 504.053 1354.12 506.56 1352.36C509.12 1350.55 512.693 1349.64 517.28 1349.64C521.333 1349.64 524.533 1350.39 526.88 1351.88C529.28 1353.37 530.987 1355.51 532 1358.28C533.067 1361.05 533.6 1364.39 533.6 1368.28V1373.4H525.04V1368.84C525.04 1366.44 524.907 1364.33 524.64 1362.52C524.427 1360.65 523.787 1359.21 522.72 1358.2C521.653 1357.19 519.867 1356.68 517.36 1356.68C514.8 1356.68 512.933 1357.24 511.76 1358.36C510.587 1359.43 509.813 1360.97 509.44 1363C509.12 1364.97 508.96 1367.29 508.96 1369.96V1395.64C508.96 1398.89 509.227 1401.48 509.76 1403.4C510.293 1405.27 511.173 1406.6 512.4 1407.4C513.627 1408.2 515.28 1408.6 517.36 1408.6C519.813 1408.6 521.573 1408.07 522.64 1407C523.707 1405.88 524.373 1404.36 524.64 1402.44C524.907 1400.52 525.04 1398.28 525.04 1395.72V1390.92H533.6V1395.72C533.6 1399.67 533.12 1403.16 532.16 1406.2C531.2 1409.19 529.547 1411.53 527.2 1413.24C524.853 1414.89 521.547 1415.72 517.28 1415.72ZM558.772 1415.72C554.399 1415.72 550.905 1414.87 548.292 1413.16C545.679 1411.45 543.812 1409.03 542.692 1405.88C541.572 1402.68 541.012 1398.95 541.012 1394.68V1370.12C541.012 1365.85 541.572 1362.2 542.692 1359.16C543.865 1356.07 545.732 1353.72 548.292 1352.12C550.905 1350.47 554.399 1349.64 558.772 1349.64C563.145 1349.64 566.612 1350.47 569.172 1352.12C571.732 1353.77 573.572 1356.12 574.692 1359.16C575.865 1362.2 576.452 1365.85 576.452 1370.12V1394.76C576.452 1398.97 575.865 1402.65 574.692 1405.8C573.572 1408.95 571.732 1411.4 569.172 1413.16C566.612 1414.87 563.145 1415.72 558.772 1415.72ZM558.772 1408.6C561.172 1408.6 562.985 1408.12 564.212 1407.16C565.439 1406.15 566.265 1404.76 566.692 1403C567.119 1401.19 567.332 1399.08 567.332 1396.68V1368.28C567.332 1365.88 567.119 1363.83 566.692 1362.12C566.265 1360.36 565.439 1359.03 564.212 1358.12C562.985 1357.16 561.172 1356.68 558.772 1356.68C556.372 1356.68 554.532 1357.16 553.252 1358.12C552.025 1359.03 551.199 1360.36 550.772 1362.12C550.345 1363.83 550.132 1365.88 550.132 1368.28V1396.68C550.132 1399.08 550.345 1401.19 550.772 1403C551.199 1404.76 552.025 1406.15 553.252 1407.16C554.532 1408.12 556.372 1408.6 558.772 1408.6ZM583.577 1415V1408.92L600.057 1383.24C601.284 1381.32 602.404 1379.53 603.417 1377.88C604.484 1376.23 605.337 1374.49 605.977 1372.68C606.67 1370.81 607.017 1368.68 607.017 1366.28C607.017 1363.29 606.537 1360.95 605.577 1359.24C604.617 1357.53 602.937 1356.68 600.537 1356.68C598.51 1356.68 596.937 1357.24 595.817 1358.36C594.697 1359.48 593.924 1360.95 593.497 1362.76C593.07 1364.57 592.857 1366.52 592.857 1368.6V1370.76H584.297V1368.52C584.297 1364.63 584.804 1361.29 585.817 1358.52C586.884 1355.69 588.564 1353.51 590.857 1351.96C593.204 1350.41 596.297 1349.64 600.137 1349.64C605.364 1349.64 609.257 1351.13 611.817 1354.12C614.377 1357.05 615.657 1361.13 615.657 1366.36C615.657 1369.13 615.31 1371.56 614.617 1373.64C613.977 1375.72 613.124 1377.67 612.057 1379.48C610.99 1381.29 609.817 1383.16 608.537 1385.08L593.657 1407.8H614.137V1415H583.577Z" fill="#464646"/>
<path d="M422.84 1485L429.64 1457.32H420.8V1452.6H435.68V1456.68L428.84 1485H422.84ZM447.989 1485.56C446.043 1485.56 444.429 1485.16 443.149 1484.36C441.869 1483.56 440.909 1482.47 440.269 1481.08C439.629 1479.67 439.309 1478.04 439.309 1476.2V1461.68C439.309 1459.79 439.616 1458.13 440.229 1456.72C440.843 1455.28 441.789 1454.16 443.069 1453.36C444.349 1452.56 445.989 1452.16 447.989 1452.16C449.963 1452.16 451.576 1452.56 452.829 1453.36C454.109 1454.16 455.056 1455.28 455.669 1456.72C456.283 1458.13 456.589 1459.79 456.589 1461.68V1476.2C456.589 1478.04 456.269 1479.67 455.629 1481.08C454.989 1482.47 454.029 1483.56 452.749 1484.36C451.469 1485.16 449.883 1485.56 447.989 1485.56ZM447.989 1480.12C448.709 1480.12 449.229 1479.89 449.549 1479.44C449.869 1478.99 450.083 1478.45 450.189 1477.84C450.296 1477.2 450.349 1476.61 450.349 1476.08V1461.8C450.349 1461.21 450.296 1460.6 450.189 1459.96C450.109 1459.32 449.909 1458.77 449.589 1458.32C449.269 1457.84 448.736 1457.6 447.989 1457.6C447.243 1457.6 446.696 1457.84 446.349 1458.32C446.029 1458.77 445.816 1459.32 445.709 1459.96C445.629 1460.6 445.589 1461.21 445.589 1461.8V1476.08C445.589 1476.61 445.643 1477.2 445.749 1477.84C445.856 1478.45 446.083 1478.99 446.429 1479.44C446.776 1479.89 447.296 1480.12 447.989 1480.12ZM460.708 1485V1479.12H466.468V1485H460.708ZM478.445 1485.48C476.312 1485.48 474.605 1485.07 473.325 1484.24C472.045 1483.39 471.125 1482.2 470.565 1480.68C470.032 1479.16 469.765 1477.43 469.765 1475.48C469.765 1474.6 469.845 1473.77 470.005 1473C470.165 1472.23 470.405 1471.52 470.725 1470.88C471.045 1470.24 471.432 1469.68 471.885 1469.2C472.365 1468.69 472.925 1468.28 473.565 1467.96C472.685 1467.32 471.912 1466.43 471.245 1465.28C470.605 1464.11 470.272 1462.63 470.245 1460.84C470.218 1459.05 470.512 1457.52 471.125 1456.24C471.738 1454.93 472.658 1453.93 473.885 1453.24C475.112 1452.55 476.632 1452.2 478.445 1452.2C480.285 1452.2 481.805 1452.55 483.005 1453.24C484.232 1453.93 485.138 1454.93 485.725 1456.24C486.312 1457.52 486.592 1459.05 486.565 1460.84C486.538 1462.65 486.205 1464.15 485.565 1465.32C484.952 1466.47 484.192 1467.35 483.285 1467.96C483.925 1468.28 484.472 1468.69 484.925 1469.2C485.405 1469.68 485.805 1470.24 486.125 1470.88C486.445 1471.52 486.685 1472.23 486.845 1473C487.032 1473.77 487.125 1474.6 487.125 1475.48C487.178 1477.43 486.912 1479.16 486.325 1480.68C485.765 1482.2 484.845 1483.39 483.565 1484.24C482.312 1485.07 480.605 1485.48 478.445 1485.48ZM478.445 1480.88C479.218 1480.88 479.792 1480.61 480.165 1480.08C480.538 1479.55 480.778 1478.89 480.885 1478.12C480.992 1477.35 481.045 1476.6 481.045 1475.88C481.072 1475.03 481.018 1474.2 480.885 1473.4C480.778 1472.6 480.538 1471.95 480.165 1471.44C479.792 1470.93 479.218 1470.68 478.445 1470.68C477.698 1470.68 477.125 1470.93 476.725 1471.44C476.352 1471.95 476.098 1472.6 475.965 1473.4C475.858 1474.17 475.805 1475 475.805 1475.88C475.805 1476.6 475.858 1477.36 475.965 1478.16C476.072 1478.93 476.312 1479.59 476.685 1480.12C477.085 1480.63 477.672 1480.88 478.445 1480.88ZM478.445 1465.64C478.978 1465.64 479.405 1465.44 479.725 1465.04C480.072 1464.64 480.325 1464.07 480.485 1463.32C480.645 1462.57 480.725 1461.69 480.725 1460.68C480.725 1459.53 480.538 1458.61 480.165 1457.92C479.818 1457.2 479.245 1456.84 478.445 1456.84C477.645 1456.84 477.045 1457.2 476.645 1457.92C476.272 1458.61 476.085 1459.52 476.085 1460.64C476.085 1461.65 476.152 1462.55 476.285 1463.32C476.445 1464.07 476.698 1464.64 477.045 1465.04C477.418 1465.44 477.885 1465.64 478.445 1465.64ZM498.99 1485.56C496.83 1485.56 495.11 1485.16 493.83 1484.36C492.577 1483.53 491.67 1482.39 491.11 1480.92C490.55 1479.43 490.27 1477.72 490.27 1475.8V1474.64H496.43C496.43 1474.69 496.43 1474.84 496.43 1475.08C496.43 1475.29 496.43 1475.51 496.43 1475.72C496.457 1476.76 496.537 1477.63 496.67 1478.32C496.83 1478.99 497.097 1479.49 497.47 1479.84C497.843 1480.19 498.377 1480.36 499.07 1480.36C499.79 1480.36 500.323 1480.19 500.67 1479.84C501.017 1479.47 501.257 1478.93 501.39 1478.24C501.523 1477.55 501.59 1476.69 501.59 1475.68C501.59 1474.05 501.35 1472.8 500.87 1471.92C500.39 1471.01 499.43 1470.55 497.99 1470.52C497.963 1470.52 497.83 1470.52 497.59 1470.52C497.35 1470.52 497.123 1470.52 496.91 1470.52V1465.96C497.07 1465.96 497.23 1465.96 497.39 1465.96C497.577 1465.96 497.737 1465.96 497.87 1465.96C499.31 1465.96 500.283 1465.57 500.79 1464.8C501.323 1464.03 501.59 1462.81 501.59 1461.16C501.59 1459.88 501.403 1458.88 501.03 1458.16C500.657 1457.44 499.963 1457.08 498.95 1457.08C497.937 1457.08 497.27 1457.48 496.95 1458.28C496.63 1459.08 496.457 1460.11 496.43 1461.36C496.43 1461.57 496.43 1461.81 496.43 1462.08C496.43 1462.32 496.43 1462.56 496.43 1462.8H490.27V1461.04C490.27 1459.15 490.617 1457.55 491.31 1456.24C492.003 1454.91 492.99 1453.89 494.27 1453.2C495.55 1452.51 497.11 1452.16 498.95 1452.16C500.79 1452.16 502.363 1452.49 503.67 1453.16C504.977 1453.83 505.963 1454.8 506.63 1456.08C507.323 1457.36 507.67 1458.95 507.67 1460.84C507.67 1462.73 507.27 1464.31 506.47 1465.56C505.697 1466.81 504.737 1467.61 503.59 1467.96C504.39 1468.23 505.097 1468.67 505.71 1469.28C506.323 1469.89 506.803 1470.72 507.15 1471.76C507.497 1472.77 507.67 1474.04 507.67 1475.56C507.67 1477.51 507.39 1479.24 506.83 1480.76C506.27 1482.25 505.35 1483.43 504.07 1484.28C502.79 1485.13 501.097 1485.56 498.99 1485.56ZM519.944 1485V1477.44H510.104V1472.6L518.544 1452.6H525.744V1472.72H528.864V1477.44H525.744V1485H519.944ZM514.984 1472.72H519.944V1458.96L514.984 1472.72ZM534.703 1485V1459C534.463 1459.13 534.129 1459.28 533.703 1459.44C533.303 1459.57 532.863 1459.73 532.383 1459.92C531.903 1460.08 531.449 1460.24 531.023 1460.4C530.596 1460.53 530.262 1460.65 530.023 1460.76V1456.2C530.343 1456.04 530.769 1455.83 531.303 1455.56C531.863 1455.29 532.449 1455 533.063 1454.68C533.676 1454.36 534.249 1454.01 534.783 1453.64C535.343 1453.27 535.769 1452.92 536.063 1452.6H540.863V1485H534.703ZM554.888 1485.56C552.728 1485.56 551.008 1485.16 549.728 1484.36C548.475 1483.53 547.568 1482.39 547.008 1480.92C546.448 1479.43 546.168 1477.72 546.168 1475.8V1474.64H552.328C552.328 1474.69 552.328 1474.84 552.328 1475.08C552.328 1475.29 552.328 1475.51 552.328 1475.72C552.355 1476.76 552.435 1477.63 552.568 1478.32C552.728 1478.99 552.995 1479.49 553.368 1479.84C553.742 1480.19 554.275 1480.36 554.968 1480.36C555.688 1480.36 556.222 1480.19 556.568 1479.84C556.915 1479.47 557.155 1478.93 557.288 1478.24C557.422 1477.55 557.488 1476.69 557.488 1475.68C557.488 1474.05 557.248 1472.8 556.768 1471.92C556.288 1471.01 555.328 1470.55 553.888 1470.52C553.862 1470.52 553.728 1470.52 553.488 1470.52C553.248 1470.52 553.022 1470.52 552.808 1470.52V1465.96C552.968 1465.96 553.128 1465.96 553.288 1465.96C553.475 1465.96 553.635 1465.96 553.768 1465.96C555.208 1465.96 556.182 1465.57 556.688 1464.8C557.222 1464.03 557.488 1462.81 557.488 1461.16C557.488 1459.88 557.302 1458.88 556.928 1458.16C556.555 1457.44 555.862 1457.08 554.848 1457.08C553.835 1457.08 553.168 1457.48 552.848 1458.28C552.528 1459.08 552.355 1460.11 552.328 1461.36C552.328 1461.57 552.328 1461.81 552.328 1462.08C552.328 1462.32 552.328 1462.56 552.328 1462.8H546.168V1461.04C546.168 1459.15 546.515 1457.55 547.208 1456.24C547.902 1454.91 548.888 1453.89 550.168 1453.2C551.448 1452.51 553.008 1452.16 554.848 1452.16C556.688 1452.16 558.262 1452.49 559.568 1453.16C560.875 1453.83 561.862 1454.8 562.528 1456.08C563.222 1457.36 563.568 1458.95 563.568 1460.84C563.568 1462.73 563.168 1464.31 562.368 1465.56C561.595 1466.81 560.635 1467.61 559.488 1467.96C560.288 1468.23 560.995 1468.67 561.608 1469.28C562.222 1469.89 562.702 1470.72 563.048 1471.76C563.395 1472.77 563.568 1474.04 563.568 1475.56C563.568 1477.51 563.288 1479.24 562.728 1480.76C562.168 1482.25 561.248 1483.43 559.968 1484.28C558.688 1485.13 556.995 1485.56 554.888 1485.56ZM575.203 1485.48C573.069 1485.48 571.363 1485.07 570.083 1484.24C568.803 1483.39 567.883 1482.2 567.323 1480.68C566.789 1479.16 566.523 1477.43 566.523 1475.48C566.523 1474.6 566.603 1473.77 566.763 1473C566.923 1472.23 567.163 1471.52 567.483 1470.88C567.803 1470.24 568.189 1469.68 568.643 1469.2C569.123 1468.69 569.683 1468.28 570.323 1467.96C569.443 1467.32 568.669 1466.43 568.003 1465.28C567.363 1464.11 567.029 1462.63 567.003 1460.84C566.976 1459.05 567.269 1457.52 567.883 1456.24C568.496 1454.93 569.416 1453.93 570.643 1453.24C571.869 1452.55 573.389 1452.2 575.203 1452.2C577.043 1452.2 578.563 1452.55 579.763 1453.24C580.989 1453.93 581.896 1454.93 582.483 1456.24C583.069 1457.52 583.349 1459.05 583.323 1460.84C583.296 1462.65 582.963 1464.15 582.323 1465.32C581.709 1466.47 580.949 1467.35 580.043 1467.96C580.683 1468.28 581.229 1468.69 581.683 1469.2C582.163 1469.68 582.563 1470.24 582.883 1470.88C583.203 1471.52 583.443 1472.23 583.603 1473C583.789 1473.77 583.883 1474.6 583.883 1475.48C583.936 1477.43 583.669 1479.16 583.083 1480.68C582.523 1482.2 581.603 1483.39 580.323 1484.24C579.069 1485.07 577.363 1485.48 575.203 1485.48ZM575.203 1480.88C575.976 1480.88 576.549 1480.61 576.923 1480.08C577.296 1479.55 577.536 1478.89 577.643 1478.12C577.749 1477.35 577.803 1476.6 577.803 1475.88C577.829 1475.03 577.776 1474.2 577.643 1473.4C577.536 1472.6 577.296 1471.95 576.923 1471.44C576.549 1470.93 575.976 1470.68 575.203 1470.68C574.456 1470.68 573.883 1470.93 573.483 1471.44C573.109 1471.95 572.856 1472.6 572.723 1473.4C572.616 1474.17 572.563 1475 572.563 1475.88C572.563 1476.6 572.616 1477.36 572.723 1478.16C572.829 1478.93 573.069 1479.59 573.443 1480.12C573.843 1480.63 574.429 1480.88 575.203 1480.88ZM575.203 1465.64C575.736 1465.64 576.163 1465.44 576.483 1465.04C576.829 1464.64 577.083 1464.07 577.243 1463.32C577.403 1462.57 577.483 1461.69 577.483 1460.68C577.483 1459.53 577.296 1458.61 576.923 1457.92C576.576 1457.2 576.003 1456.84 575.203 1456.84C574.403 1456.84 573.803 1457.2 573.403 1457.92C573.029 1458.61 572.843 1459.52 572.843 1460.64C572.843 1461.65 572.909 1462.55 573.043 1463.32C573.203 1464.07 573.456 1464.64 573.803 1465.04C574.176 1465.44 574.643 1465.64 575.203 1465.64ZM587.148 1485V1480.64L595.028 1468.52C595.614 1467.61 596.161 1466.75 596.668 1465.92C597.201 1465.09 597.628 1464.25 597.948 1463.4C598.294 1462.52 598.468 1461.59 598.468 1460.6C598.468 1459.56 598.268 1458.77 597.868 1458.24C597.468 1457.68 596.894 1457.4 596.148 1457.4C595.348 1457.4 594.734 1457.63 594.308 1458.08C593.881 1458.51 593.588 1459.08 593.428 1459.8C593.268 1460.52 593.188 1461.31 593.188 1462.16V1463.68H587.148V1462.08C587.148 1460.16 587.441 1458.45 588.028 1456.96C588.641 1455.47 589.588 1454.31 590.868 1453.48C592.174 1452.63 593.881 1452.2 595.988 1452.2C598.841 1452.2 600.988 1452.95 602.428 1454.44C603.868 1455.93 604.588 1458.03 604.588 1460.72C604.588 1462.03 604.388 1463.24 603.988 1464.36C603.588 1465.45 603.054 1466.52 602.388 1467.56C601.748 1468.57 601.054 1469.63 600.308 1470.72L594.068 1480.12H603.708V1485H587.148ZM621.222 1485V1457.52H616.222V1452.6H632.782V1457.52H627.862V1485H621.222ZM642.134 1485.4C640.481 1485.4 639.068 1485.11 637.894 1484.52C636.721 1483.91 635.828 1483.03 635.214 1481.88C634.628 1480.73 634.334 1479.31 634.334 1477.6V1469.28C634.334 1467.57 634.628 1466.15 635.214 1465C635.828 1463.85 636.721 1462.99 637.894 1462.4C639.068 1461.79 640.481 1461.48 642.134 1461.48C643.788 1461.48 645.201 1461.79 646.374 1462.4C647.548 1462.99 648.441 1463.85 649.054 1465C649.668 1466.15 649.974 1467.57 649.974 1469.28V1477.6C649.974 1479.31 649.668 1480.73 649.054 1481.88C648.441 1483.03 647.548 1483.91 646.374 1484.52C645.201 1485.11 643.788 1485.4 642.134 1485.4ZM642.174 1481.32C642.681 1481.32 643.068 1481.19 643.334 1480.92C643.601 1480.63 643.774 1480.24 643.854 1479.76C643.934 1479.25 643.974 1478.68 643.974 1478.04V1468.88C643.974 1468.21 643.934 1467.64 643.854 1467.16C643.774 1466.68 643.601 1466.29 643.334 1466C643.068 1465.71 642.681 1465.56 642.174 1465.56C641.668 1465.56 641.281 1465.71 641.014 1466C640.748 1466.29 640.561 1466.68 640.454 1467.16C640.374 1467.64 640.334 1468.21 640.334 1468.88V1478.04C640.334 1478.68 640.374 1479.25 640.454 1479.76C640.561 1480.24 640.748 1480.63 641.014 1480.92C641.281 1481.19 641.668 1481.32 642.174 1481.32ZM653.643 1485V1461.88H659.683V1464.2C660.509 1463.37 661.376 1462.72 662.283 1462.24C663.216 1461.73 664.203 1461.48 665.243 1461.48C666.203 1461.48 666.976 1461.72 667.563 1462.2C668.176 1462.68 668.629 1463.32 668.923 1464.12C669.216 1464.89 669.363 1465.77 669.363 1466.76V1485H663.363V1467.76C663.363 1467.12 663.256 1466.64 663.043 1466.32C662.856 1466 662.483 1465.84 661.923 1465.84C661.603 1465.84 661.243 1465.93 660.843 1466.12C660.469 1466.28 660.083 1466.51 659.683 1466.8V1485H653.643ZM680.089 1485.4C678.089 1485.4 676.436 1484.92 675.129 1483.96C673.849 1482.97 672.849 1481.47 672.129 1479.44L676.369 1477.68C676.769 1478.8 677.249 1479.68 677.809 1480.32C678.369 1480.93 679.022 1481.24 679.769 1481.24C680.329 1481.24 680.742 1481.12 681.009 1480.88C681.302 1480.61 681.449 1480.25 681.449 1479.8C681.449 1479.16 681.236 1478.59 680.809 1478.08C680.382 1477.57 679.622 1476.87 678.529 1475.96L676.369 1474.12C675.249 1473.16 674.342 1472.21 673.649 1471.28C672.982 1470.32 672.649 1469.13 672.649 1467.72C672.649 1466.47 672.956 1465.37 673.569 1464.44C674.209 1463.51 675.049 1462.79 676.089 1462.28C677.156 1461.75 678.302 1461.48 679.529 1461.48C681.422 1461.48 682.969 1462.03 684.169 1463.12C685.396 1464.19 686.222 1465.64 686.649 1467.48L682.729 1469.24C682.569 1468.65 682.356 1468.11 682.089 1467.6C681.822 1467.07 681.476 1466.63 681.049 1466.28C680.649 1465.93 680.196 1465.76 679.689 1465.76C679.209 1465.76 678.822 1465.91 678.529 1466.2C678.236 1466.49 678.089 1466.87 678.089 1467.32C678.089 1467.8 678.329 1468.31 678.809 1468.84C679.316 1469.37 680.009 1470.01 680.889 1470.76L683.049 1472.68C683.689 1473.24 684.316 1473.84 684.929 1474.48C685.542 1475.09 686.049 1475.79 686.449 1476.56C686.849 1477.31 687.049 1478.17 687.049 1479.16C687.049 1480.49 686.729 1481.63 686.089 1482.56C685.449 1483.49 684.596 1484.2 683.529 1484.68C682.489 1485.16 681.342 1485.4 680.089 1485.4Z" fill="#0576A4"/>
<path d="M398.62 1042.63C394.607 1042.63 391.48 1041.79 389.24 1040.11C387.047 1038.43 385.507 1036.17 384.62 1033.32C383.78 1030.47 383.36 1027.3 383.36 1023.8V1003.78C383.36 999.953 383.78 996.617 384.62 993.77C385.507 990.923 387.047 988.73 389.24 987.19C391.48 985.603 394.607 984.81 398.62 984.81C402.167 984.81 404.967 985.463 407.02 986.77C409.12 988.077 410.613 989.943 411.5 992.37C412.433 994.797 412.9 997.713 412.9 1001.12V1005.6H405.41V1001.61C405.41 999.51 405.293 997.667 405.06 996.08C404.873 994.447 404.313 993.187 403.38 992.3C402.447 991.413 400.883 990.97 398.69 990.97C396.45 990.97 394.817 991.46 393.79 992.44C392.763 993.373 392.087 994.727 391.76 996.5C391.48 998.227 391.34 1000.26 391.34 1002.59V1025.06C391.34 1027.91 391.573 1030.17 392.04 1031.85C392.507 1033.48 393.277 1034.65 394.35 1035.35C395.423 1036.05 396.87 1036.4 398.69 1036.4C400.837 1036.4 402.377 1035.93 403.31 1035C404.243 1034.02 404.827 1032.69 405.06 1031.01C405.293 1029.33 405.41 1027.37 405.41 1025.13V1020.93H412.9V1025.13C412.9 1028.58 412.48 1031.64 411.64 1034.3C410.8 1036.91 409.353 1038.97 407.3 1040.46C405.247 1041.91 402.353 1042.63 398.62 1042.63ZM425.615 1042.56C424.029 1042.56 422.792 1042.14 421.905 1041.3C421.019 1040.46 420.389 1039.41 420.015 1038.15C419.689 1036.89 419.525 1035.61 419.525 1034.3V1001.54H427.015V1032.06C427.015 1033.51 427.225 1034.65 427.645 1035.49C428.065 1036.28 428.929 1036.68 430.235 1036.68C431.075 1036.68 431.939 1036.45 432.825 1035.98C433.759 1035.47 434.645 1034.86 435.485 1034.16V1001.54H442.975V1042H435.485V1038.01C434.179 1039.27 432.685 1040.34 431.005 1041.23C429.372 1042.12 427.575 1042.56 425.615 1042.56ZM450.845 1042V1001.54H458.335V1007.28C459.829 1004.81 461.322 1003.15 462.815 1002.31C464.309 1001.47 465.802 1001.05 467.295 1001.05C467.482 1001.05 467.645 1001.05 467.785 1001.05C467.972 1001.05 468.205 1001.07 468.485 1001.12V1009.38C467.925 1009.15 467.272 1008.96 466.525 1008.82C465.825 1008.63 465.102 1008.54 464.355 1008.54C463.189 1008.54 462.115 1008.82 461.135 1009.38C460.202 1009.89 459.269 1010.92 458.335 1012.46V1042H450.845ZM473.336 1042V1001.54H480.826V1007.28C482.319 1004.81 483.812 1003.15 485.306 1002.31C486.799 1001.47 488.292 1001.05 489.786 1001.05C489.972 1001.05 490.136 1001.05 490.276 1001.05C490.462 1001.05 490.696 1001.07 490.976 1001.12V1009.38C490.416 1009.15 489.762 1008.96 489.016 1008.82C488.316 1008.63 487.592 1008.54 486.846 1008.54C485.679 1008.54 484.606 1008.82 483.626 1009.38C482.692 1009.89 481.759 1010.92 480.826 1012.46V1042H473.336ZM506.816 1042.56C503.643 1042.56 501.193 1041.95 499.466 1040.74C497.739 1039.48 496.526 1037.66 495.826 1035.28C495.173 1032.85 494.846 1029.89 494.846 1026.39V1017.15C494.846 1013.56 495.196 1010.57 495.896 1008.19C496.596 1005.81 497.809 1004.01 499.536 1002.8C501.309 1001.59 503.736 1000.98 506.816 1000.98C510.223 1000.98 512.719 1001.68 514.306 1003.08C515.939 1004.48 517.013 1006.51 517.526 1009.17C518.039 1011.78 518.296 1014.93 518.296 1018.62V1021.91H502.336V1030.03C502.336 1031.66 502.476 1032.99 502.756 1034.02C503.083 1035.05 503.573 1035.82 504.226 1036.33C504.926 1036.8 505.813 1037.03 506.886 1037.03C508.006 1037.03 508.846 1036.77 509.406 1036.26C510.013 1035.7 510.409 1034.93 510.596 1033.95C510.829 1032.92 510.946 1031.73 510.946 1030.38V1027.93H518.226V1029.47C518.226 1033.53 517.363 1036.73 515.636 1039.06C513.909 1041.39 510.969 1042.56 506.816 1042.56ZM502.336 1017.85H510.946V1014.21C510.946 1012.53 510.853 1011.13 510.666 1010.01C510.479 1008.84 510.083 1007.98 509.476 1007.42C508.916 1006.81 508.006 1006.51 506.746 1006.51C505.533 1006.51 504.599 1006.79 503.946 1007.35C503.339 1007.91 502.919 1008.87 502.686 1010.22C502.453 1011.53 502.336 1013.35 502.336 1015.68V1017.85ZM525.079 1042V1001.54H532.569V1005.53C533.922 1004.27 535.415 1003.2 537.049 1002.31C538.682 1001.42 540.479 1000.98 542.439 1000.98C544.072 1000.98 545.309 1001.4 546.149 1002.24C547.035 1003.08 547.642 1004.13 547.969 1005.39C548.342 1006.65 548.529 1007.93 548.529 1009.24V1042H541.039V1011.41C541.039 1009.96 540.829 1008.84 540.409 1008.05C539.989 1007.26 539.125 1006.86 537.819 1006.86C536.979 1006.86 536.092 1007.12 535.159 1007.63C534.272 1008.1 533.409 1008.68 532.569 1009.38V1042H525.079ZM566.621 1042.56C564.521 1042.56 562.817 1042.16 561.511 1041.37C560.251 1040.58 559.317 1039.46 558.711 1038.01C558.151 1036.56 557.871 1034.86 557.871 1032.9V1006.51H553.601V1001.54H557.871V989.71H565.361V1001.54H571.871V1006.51H565.361V1032.41C565.361 1034 565.617 1035.14 566.131 1035.84C566.644 1036.49 567.624 1036.82 569.071 1036.82C569.444 1036.82 569.864 1036.8 570.331 1036.75C570.844 1036.7 571.334 1036.66 571.801 1036.61V1042.14C570.867 1042.28 570.004 1042.37 569.211 1042.42C568.417 1042.51 567.554 1042.56 566.621 1042.56ZM592.74 1052.15V1046.41C594.56 1046.41 596.007 1046.32 597.08 1046.13C598.153 1045.99 598.923 1045.69 599.39 1045.22C599.857 1044.8 600.09 1044.19 600.09 1043.4C600.09 1042.98 599.927 1042.05 599.6 1040.6C599.273 1039.15 598.923 1037.61 598.55 1035.98L590.43 1001.54H597.99L603.45 1031.78L608.7 1001.54H616.26L606.6 1044.24C606.18 1046.2 605.41 1047.74 604.29 1048.86C603.17 1050.03 601.723 1050.87 599.95 1051.38C598.223 1051.89 596.123 1052.15 593.65 1052.15H592.74ZM631.982 1042.56C628.809 1042.56 626.359 1041.95 624.632 1040.74C622.905 1039.48 621.692 1037.66 620.992 1035.28C620.339 1032.85 620.012 1029.89 620.012 1026.39V1017.15C620.012 1013.56 620.362 1010.57 621.062 1008.19C621.762 1005.81 622.975 1004.01 624.702 1002.8C626.475 1001.59 628.902 1000.98 631.982 1000.98C635.389 1000.98 637.885 1001.68 639.472 1003.08C641.105 1004.48 642.179 1006.51 642.692 1009.17C643.205 1011.78 643.462 1014.93 643.462 1018.62V1021.91H627.502V1030.03C627.502 1031.66 627.642 1032.99 627.922 1034.02C628.249 1035.05 628.739 1035.82 629.392 1036.33C630.092 1036.8 630.979 1037.03 632.052 1037.03C633.172 1037.03 634.012 1036.77 634.572 1036.26C635.179 1035.7 635.575 1034.93 635.762 1033.95C635.995 1032.92 636.112 1031.73 636.112 1030.38V1027.93H643.392V1029.47C643.392 1033.53 642.529 1036.73 640.802 1039.06C639.075 1041.39 636.135 1042.56 631.982 1042.56ZM627.502 1017.85H636.112V1014.21C636.112 1012.53 636.019 1011.13 635.832 1010.01C635.645 1008.84 635.249 1007.98 634.642 1007.42C634.082 1006.81 633.172 1006.51 631.912 1006.51C630.699 1006.51 629.765 1006.79 629.112 1007.35C628.505 1007.91 628.085 1008.87 627.852 1010.22C627.619 1011.53 627.502 1013.35 627.502 1015.68V1017.85ZM657.525 1042.56C655.938 1042.56 654.538 1042.12 653.325 1041.23C652.112 1040.3 651.155 1039.13 650.455 1037.73C649.755 1036.28 649.405 1034.77 649.405 1033.18C649.405 1030.66 649.825 1028.54 650.665 1026.81C651.505 1025.08 652.648 1023.64 654.095 1022.47C655.588 1021.26 657.292 1020.21 659.205 1019.32C661.165 1018.43 663.218 1017.57 665.365 1016.73V1013.86C665.365 1012.23 665.272 1010.87 665.085 1009.8C664.898 1008.73 664.502 1007.93 663.895 1007.42C663.335 1006.86 662.472 1006.58 661.305 1006.58C660.278 1006.58 659.438 1006.81 658.785 1007.28C658.178 1007.75 657.735 1008.42 657.455 1009.31C657.175 1010.15 657.035 1011.15 657.035 1012.32V1014.35L649.615 1014.07C649.708 1009.59 650.735 1006.3 652.695 1004.2C654.655 1002.05 657.688 1000.98 661.795 1000.98C665.808 1000.98 668.655 1002.08 670.335 1004.27C672.015 1006.46 672.855 1009.64 672.855 1013.79V1032.27C672.855 1033.53 672.878 1034.74 672.925 1035.91C673.018 1037.08 673.112 1038.17 673.205 1039.2C673.345 1040.18 673.462 1041.11 673.555 1042H666.695C666.555 1041.25 666.368 1040.32 666.135 1039.2C665.948 1038.03 665.808 1036.98 665.715 1036.05C665.248 1037.64 664.338 1039.13 662.985 1040.53C661.678 1041.88 659.858 1042.56 657.525 1042.56ZM660.465 1036.12C661.212 1036.12 661.912 1035.91 662.565 1035.49C663.218 1035.07 663.802 1034.6 664.315 1034.09C664.828 1033.53 665.178 1033.09 665.365 1032.76V1021.28C664.198 1021.93 663.102 1022.59 662.075 1023.24C661.048 1023.89 660.138 1024.59 659.345 1025.34C658.598 1026.04 657.992 1026.86 657.525 1027.79C657.105 1028.68 656.895 1029.7 656.895 1030.87C656.895 1032.5 657.198 1033.79 657.805 1034.72C658.412 1035.65 659.298 1036.12 660.465 1036.12ZM680.26 1042V1001.54H687.75V1007.28C689.243 1004.81 690.736 1003.15 692.23 1002.31C693.723 1001.47 695.216 1001.05 696.71 1001.05C696.896 1001.05 697.06 1001.05 697.2 1001.05C697.386 1001.05 697.62 1001.07 697.9 1001.12V1009.38C697.34 1009.15 696.686 1008.96 695.94 1008.82C695.24 1008.63 694.516 1008.54 693.77 1008.54C692.603 1008.54 691.53 1008.82 690.55 1009.38C689.616 1009.89 688.683 1010.92 687.75 1012.46V1042H680.26Z" fill="#343336"/>
<g filter="url(#filter1_d_19_144)">
<rect x="50" y="50" width="980" height="756" rx="20" fill="white"/>
</g>
<path d="M189.521 694.435C187.297 694.435 185.46 693.936 184.01 692.936C182.592 691.937 181.528 690.568 180.819 688.827C180.142 687.087 179.804 685.105 179.804 682.881V666.01C179.804 663.722 180.142 661.724 180.819 660.016C181.496 658.275 182.543 656.922 183.961 655.955C185.411 654.988 187.265 654.505 189.521 654.505C191.776 654.505 193.613 654.988 195.032 655.955C196.45 656.922 197.497 658.275 198.174 660.016C198.851 661.724 199.189 663.722 199.189 666.01V682.881C199.189 685.137 198.834 687.135 198.125 688.876C197.449 690.616 196.401 691.986 194.983 692.985C193.565 693.952 191.744 694.435 189.521 694.435ZM189.521 690.181C190.745 690.181 191.664 689.826 192.276 689.117C192.921 688.408 193.356 687.506 193.581 686.41C193.839 685.282 193.968 684.122 193.968 682.93V665.962C193.968 664.705 193.855 663.529 193.63 662.433C193.404 661.305 192.969 660.402 192.324 659.726C191.712 659.049 190.777 658.71 189.521 658.71C188.264 658.71 187.313 659.049 186.668 659.726C186.024 660.402 185.589 661.305 185.363 662.433C185.138 663.529 185.025 664.705 185.025 665.962V682.93C185.025 684.122 185.138 685.282 185.363 686.41C185.621 687.506 186.072 688.408 186.717 689.117C187.393 689.826 188.328 690.181 189.521 690.181Z" fill="black"/>
<path d="M382.505 694.435C380.378 694.435 378.606 694.032 377.188 693.227C375.77 692.421 374.706 691.261 373.997 689.746C373.288 688.231 372.934 686.443 372.934 684.38V683.075H378.058C378.058 683.204 378.058 683.349 378.058 683.51C378.058 683.639 378.058 683.784 378.058 683.945C378.09 685.105 378.219 686.153 378.445 687.087C378.702 688.022 379.138 688.763 379.75 689.311C380.394 689.859 381.313 690.133 382.505 690.133C383.762 690.133 384.713 689.843 385.358 689.262C386.002 688.65 386.437 687.796 386.663 686.7C386.888 685.605 387.001 684.348 387.001 682.93C387.001 680.867 386.614 679.191 385.841 677.902C385.1 676.581 383.778 675.856 381.877 675.727C381.78 675.695 381.651 675.678 381.49 675.678C381.361 675.678 381.248 675.678 381.152 675.678V670.506C381.248 670.506 381.361 670.506 381.49 670.506C381.619 670.506 381.732 670.506 381.829 670.506C383.666 670.441 384.987 669.958 385.793 669.056C386.598 668.153 387.001 666.655 387.001 664.56C387.001 662.787 386.695 661.369 386.083 660.306C385.503 659.242 384.326 658.71 382.554 658.71C380.781 658.71 379.605 659.307 379.025 660.499C378.445 661.659 378.122 663.158 378.058 664.995C378.058 665.124 378.058 665.269 378.058 665.43C378.058 665.559 378.058 665.688 378.058 665.817H372.934V664.511C372.934 662.417 373.288 660.628 373.997 659.146C374.706 657.663 375.77 656.519 377.188 655.713C378.638 654.908 380.427 654.505 382.554 654.505C384.713 654.505 386.502 654.908 387.92 655.713C389.338 656.519 390.401 657.679 391.11 659.194C391.819 660.676 392.174 662.465 392.174 664.56C392.174 666.912 391.658 668.798 390.627 670.216C389.628 671.634 388.274 672.601 386.566 673.116C387.759 673.471 388.758 674.083 389.563 674.953C390.401 675.823 391.046 676.935 391.497 678.289C391.948 679.61 392.174 681.157 392.174 682.93C392.174 685.25 391.851 687.28 391.207 689.021C390.562 690.729 389.531 692.066 388.113 693.033C386.695 693.968 384.826 694.435 382.505 694.435Z" fill="black"/>
<path d="M577.424 694.435C575.168 694.435 573.331 693.871 571.913 692.743C570.495 691.583 569.447 690.036 568.771 688.102C568.126 686.136 567.804 683.961 567.804 681.576V668.379C567.804 665.833 568.094 663.512 568.674 661.418C569.254 659.323 570.237 657.647 571.623 656.39C573.041 655.133 574.975 654.505 577.424 654.505C579.454 654.505 581.162 654.875 582.548 655.617C583.966 656.358 585.046 657.437 585.787 658.855C586.56 660.274 586.963 661.998 586.996 664.028C586.996 664.093 586.996 664.189 586.996 664.318C587.028 664.415 587.044 664.511 587.044 664.608H581.823C581.823 662.707 581.517 661.256 580.904 660.257C580.292 659.258 579.132 658.759 577.424 658.759C576.489 658.759 575.684 659.065 575.007 659.677C574.33 660.257 573.814 661.16 573.46 662.384C573.138 663.609 572.976 665.188 572.976 667.122V673.068C573.492 672.262 574.217 671.618 575.152 671.134C576.119 670.619 577.295 670.361 578.681 670.361C580.84 670.361 582.532 670.828 583.757 671.763C584.981 672.697 585.851 674.019 586.367 675.727C586.883 677.403 587.141 679.385 587.141 681.673C587.141 684.025 586.818 686.169 586.174 688.102C585.529 690.036 584.498 691.583 583.08 692.743C581.662 693.871 579.776 694.435 577.424 694.435ZM577.424 690.133C578.584 690.133 579.486 689.81 580.131 689.166C580.776 688.489 581.227 687.603 581.485 686.507C581.775 685.411 581.92 684.219 581.92 682.93C581.92 681.383 581.839 679.949 581.678 678.627C581.549 677.306 581.178 676.259 580.566 675.485C579.954 674.679 578.906 674.277 577.424 674.277C576.715 674.277 576.07 674.405 575.49 674.663C574.91 674.921 574.411 675.259 573.992 675.678C573.573 676.065 573.234 676.484 572.976 676.935V682.785C572.976 684.106 573.105 685.331 573.363 686.459C573.653 687.587 574.12 688.489 574.765 689.166C575.41 689.81 576.296 690.133 577.424 690.133Z" fill="black"/>
<path d="M770.844 694.435C768.813 694.435 767.073 694.064 765.623 693.323C764.205 692.55 763.125 691.438 762.384 689.988C761.643 688.537 761.256 686.781 761.224 684.718C761.224 684.654 761.224 684.589 761.224 684.525C761.224 684.428 761.224 684.348 761.224 684.283H766.396C766.396 686.153 766.702 687.603 767.315 688.634C767.927 689.633 769.12 690.133 770.892 690.133C771.859 690.133 772.665 689.843 773.309 689.262C773.954 688.65 774.437 687.732 774.759 686.507C775.082 685.25 775.243 683.671 775.243 681.77V675.823C774.759 676.629 774.034 677.29 773.067 677.805C772.133 678.289 770.957 678.531 769.539 678.531C767.379 678.531 765.687 678.063 764.463 677.129C763.238 676.162 762.368 674.841 761.852 673.165C761.369 671.457 761.127 669.475 761.127 667.219C761.127 664.834 761.449 662.691 762.094 660.789C762.738 658.855 763.77 657.325 765.188 656.197C766.638 655.069 768.523 654.505 770.844 654.505C773.1 654.505 774.937 655.085 776.355 656.245C777.773 657.373 778.804 658.904 779.449 660.837C780.125 662.771 780.464 664.93 780.464 667.315V680.464C780.464 682.978 780.174 685.298 779.594 687.426C779.014 689.553 778.031 691.261 776.645 692.55C775.259 693.807 773.325 694.435 770.844 694.435ZM770.844 674.615C771.972 674.615 772.89 674.341 773.599 673.793C774.308 673.213 774.856 672.585 775.243 671.908V666.107C775.243 664.753 775.114 663.529 774.856 662.433C774.598 661.305 774.147 660.419 773.503 659.774C772.858 659.097 771.972 658.759 770.844 658.759C769.716 658.759 768.813 659.097 768.137 659.774C767.492 660.451 767.025 661.337 766.735 662.433C766.477 663.496 766.348 664.673 766.348 665.962C766.348 667.509 766.412 668.943 766.541 670.264C766.702 671.585 767.089 672.649 767.702 673.455C768.346 674.228 769.393 674.615 770.844 674.615Z" fill="black"/>
<defs>
<filter id="filter0_d_19_144" x="223" y="1113" width="660" height="660" filterUnits="userSpaceOnUse" color-interpolation-filters="sRGB">
<feFlood flood-opacity="0" result="BackgroundImageFix"/>
<feColorMatrix in="SourceAlpha" type="matrix" values="0 0 0 0 0 0 0 0 0 0 0 0 0 0 0 0 0 0 127 0" result="hardAlpha"/>
<feOffset dy="4"/>
<feGaussianBlur stdDeviation="23"/>
<feComposite in2="hardAlpha" operator="out"/>
<feColorMatrix type="matrix" values="0 0 0 0 0.0291667 0 0 0 0 0.21558 0 0 0 0 0.291667 0 0 0 0.3 0"/>
<feBlend mode="normal" in2="BackgroundImageFix" result="effect1_dropShadow_19_144"/>
<feBlend mode="normal" in="SourceGraphic" in2="effect1_dropShadow_19_144" result="shape"/>
</filter>
<filter id="filter1_d_19_144" x="-4" y="0" width="1088" height="864" filterUnits="userSpaceOnUse" color-interpolation-filters="sRGB">
<feFlood flood-opacity="0" result="BackgroundImageFix"/>
<feColorMatrix in="SourceAlpha" type="matrix" values="0 0 0 0 0 0 0 0 0 0 0 0 0 0 0 0 0 0 127 0" result="hardAlpha"/>
<feOffset dy="4"/>
<feGaussianBlur stdDeviation="27"/>
<feComposite in2="hardAlpha" operator="out"/>
<feColorMatrix type="matrix" values="0 0 0 0 0.25125 0 0 0 0 0.469324 0 0 0 0 0.558333 0 0 0 0.3 0"/>
<feBlend mode="normal" in2="BackgroundImageFix" result="effect1_dropShadow_19_144"/>
<feBlend mode="normal" in="SourceGraphic" in2="effect1_dropShadow_19_144" result="shape"/>
</filter>
</defs>
</svg>
