<svg width="58" height="92" viewBox="0 0 58 92" fill="none" xmlns="http://www.w3.org/2000/svg">
<path d="M41.8873 47.5318C39.3934 45.7902 36.2593 45.5245 33.5037 46.82L26.306 50.2042C20.9245 52.734 17.0857 57.4984 15.7737 63.2751C15.039 66.5106 13.958 69.0128 12.5618 70.7119C12.2969 71.0342 12.1518 71.4368 12.1506 71.8524C12.1494 72.268 12.2923 72.6715 12.5553 72.9952L20.2086 82.4158C20.4734 82.7418 20.8436 82.967 21.2568 83.0535C21.6699 83.1399 22.1005 83.0822 22.4757 82.8901L28.4082 79.8528C37.9589 74.9629 44.3042 65.7156 45.3815 55.1168C45.6869 52.1088 44.3805 49.2736 41.8873 47.5318ZM10.9915 73.3023C10.7006 72.9491 10.2862 72.7173 9.83066 72.653C9.37515 72.5888 8.91193 72.6968 8.53314 72.9556L3.78356 76.2006C1.81346 77.5466 0.512744 79.5759 0.120866 81.9148C-0.271293 84.2537 0.298071 86.5906 1.72359 88.4952C3.14095 90.3888 5.22007 91.6053 7.5781 91.9204C7.97673 91.9738 8.37425 92 8.76951 92C10.7111 92 12.5835 91.3627 14.14 90.1549L19.2164 86.2154C19.4082 86.0667 19.5681 85.8815 19.6867 85.6707C19.8054 85.4599 19.8804 85.2278 19.9073 84.9879C19.9343 84.7481 19.9127 84.5053 19.8438 84.2738C19.7749 84.0423 19.66 83.8268 19.506 83.6398L10.9915 73.3023ZM48.8067 0.0432402C38.1099 1.11038 28.777 7.39711 23.8417 16.8604L20.7763 22.7385C20.5824 23.1102 20.5242 23.5368 20.6114 23.9461C20.6985 24.3554 20.9258 24.7223 21.2547 24.9847L30.7623 32.568C31.0875 32.8278 31.4928 32.9694 31.9106 32.9692C32.3205 32.9692 32.7304 32.8332 33.0668 32.5616C34.7819 31.1779 37.3073 30.1072 40.5725 29.3789C46.4027 28.079 51.2112 24.2754 53.7645 18.9436L57.1798 11.8122C58.4878 9.08143 58.2191 5.97603 56.4614 3.50538C54.7037 1.03474 51.8459 -0.258786 48.8067 0.0432402ZM15.1184 43.3C16.6443 44.4213 18.4453 45.0078 20.3038 45.0078C20.7864 45.0078 21.273 44.9682 21.7598 44.888C24.1206 44.4998 26.1685 43.211 27.5272 41.2593L30.8023 36.5533C31.0635 36.178 31.1725 35.719 31.1076 35.2677C31.0428 34.8163 30.8089 34.4057 30.4524 34.1175L20.019 25.6812C19.8303 25.5286 19.6128 25.4148 19.3792 25.3466C19.1456 25.2783 18.9006 25.2569 18.6586 25.2837C18.4165 25.3104 18.1823 25.3847 17.9696 25.5022C17.7569 25.6197 17.57 25.7781 17.4198 25.9681L13.4439 30.9979C11.9767 32.8539 11.3439 35.1626 11.662 37.4993C11.98 39.8359 13.2072 41.8957 15.1184 43.3Z" fill="#508CAE"/>
</svg>
