<svg width="132" height="100" viewBox="0 0 132 100" fill="none" xmlns="http://www.w3.org/2000/svg">
<mask id="path-1-outside-1_318_3" maskUnits="userSpaceOnUse" x="-1" y="17.75" width="83" height="83" fill="black">
<rect fill="white" x="-1" y="17.75" width="83" height="83"/>
<path d="M11.5375 67.875C12.0875 68.0062 12.8344 68.6844 13.05 69.3031L14.1438 71.9406C14.3906 72.4469 14.3437 73.45 14.05 73.9313L9.68437 81.0687C8.75 82.6 8.94375 84.7688 10.2 86.175L13.8969 89.8687C15.1844 91.0125 17.4562 91.2187 18.9375 90.3219L26.075 85.9563C26.5219 85.6813 27.4812 85.5844 28.1531 85.9L30.7875 86.9875C31.3188 87.1719 31.9969 87.9156 32.1281 88.4656L34.0875 96.6031C34.5031 98.3281 36.15 99.7469 37.9187 99.9094C37.9187 99.9094 39.0031 100.009 40.6281 100.009C42.2531 100.009 43.3375 99.9094 43.3406 99.9094C44.236 99.8038 45.0792 99.4323 45.7615 98.8431C46.4438 98.2538 46.934 97.4736 47.1687 96.6031L49.1313 88.4656C49.2625 87.9188 49.9375 87.1719 50.5562 86.9563L53.1937 85.8625C53.6594 85.6344 54.7375 85.6813 55.1844 85.9563L62.3219 90.3219C62.95 90.7062 63.7 90.9094 64.4969 90.9094C65.575 90.9094 66.6187 90.5313 67.4281 89.8094L71.1219 86.1125C71.7075 85.4213 72.0653 84.5662 72.1464 83.6639C72.2275 82.7617 72.0279 81.8564 71.575 81.0719L67.2094 73.9344C66.9156 73.4531 66.8688 72.45 67.1531 71.8562L68.2406 69.2219C68.425 68.6906 69.1687 68.0125 69.7187 67.8813L77.8562 65.9219C78.7267 65.6861 79.5068 65.1953 80.096 64.5125C80.6852 63.8297 81.0566 62.9863 81.1625 62.0906C81.1625 62.0906 81.2625 61.0063 81.2625 59.3813C81.2625 57.7563 81.1625 56.6719 81.1625 56.6688C81.0562 55.7733 80.6847 54.93 80.0955 54.2473C79.5064 53.5646 78.7265 53.0736 77.8562 52.8375L69.7219 50.8812C69.1719 50.75 68.425 50.0719 68.2094 49.4531L67.1156 46.8156C66.8687 46.3094 66.9156 45.3062 67.2094 44.825L71.575 37.6875C72.5094 36.1563 72.3156 33.9875 71.0594 32.5812L67.3625 28.8875C66.0719 27.7406 63.7969 27.5344 62.3219 28.4344L55.1844 32.8C54.7375 33.0719 53.775 33.175 53.1062 32.8562L50.4719 31.7688C49.9406 31.5844 49.2656 30.8406 49.1344 30.2906L47.1719 22.1531C46.9361 21.2826 46.4453 20.5026 45.7625 19.9134C45.0797 19.3242 44.2363 18.9527 43.3406 18.8469C43.3344 18.85 42.25 18.75 40.625 18.75C39 18.75 37.9156 18.85 37.9125 18.85C37.017 18.9563 36.1738 19.3278 35.4911 19.917C34.8083 20.5061 34.3174 21.286 34.0813 22.1563L32.125 30.2875C31.9937 30.8375 31.3156 31.5844 30.6969 31.8L28.0594 32.8938C27.5906 33.1219 26.5156 33.0719 26.0688 32.8L18.9344 28.4344C17.4563 27.5344 15.2313 27.6906 13.8281 28.9469L10.1344 32.6438C9.54879 33.3349 9.19098 34.1901 9.10988 35.0923C9.02877 35.9946 9.22832 36.8999 9.68125 37.6844L14.0469 44.8219C14.3406 45.3031 14.3875 46.3063 14.1031 46.9L13.0156 49.5344C12.8312 50.0656 12.0875 50.7438 11.5375 50.875L3.4 52.8344C2.5295 53.0701 1.74946 53.561 1.16024 54.2438C0.571031 54.9265 0.199602 55.77 0.09375 56.6656C0.1 56.6656 0 57.75 0 59.375C0 61 0.1 62.0844 0.1 62.0875C0.206259 62.983 0.577832 63.8262 1.16698 64.5089C1.75613 65.1916 2.53595 65.6826 3.40625 65.9187L11.5375 67.875ZM3.125 59.375C3.125 57.9437 3.20937 56.9781 3.2125 56.9469C3.26229 56.7037 3.37341 56.4773 3.5353 56.2892C3.69719 56.101 3.90448 55.9574 4.1375 55.8719L12.275 53.9125C13.8531 53.5313 15.4437 52.0875 15.9375 50.6406L16.95 48.1813C17.6625 46.7219 17.5625 44.5781 16.7156 43.1906L12.35 36.0563C12.1406 35.7094 12.2 35.0219 12.4063 34.7875L15.9719 31.2187C16.2563 30.9656 16.9813 30.9031 17.3063 31.1L24.4438 35.4656C25.7969 36.2937 28.1156 36.35 29.3438 35.7406L31.8063 34.7219C33.3406 34.1938 34.7844 32.6031 35.1656 31.0219L37.1219 22.8875C37.2067 22.6537 37.35 22.4457 37.5383 22.2832C37.7265 22.1207 37.9532 22.0092 38.1969 21.9594C38.2281 21.9594 39.1937 21.875 40.625 21.875C42.0563 21.875 43.0219 21.9594 43.0531 21.9625C43.2963 22.0123 43.5227 22.1234 43.7108 22.2853C43.899 22.4472 44.0426 22.6545 44.1281 22.8875L46.0875 31.0219C46.4688 32.6 47.9094 34.1938 49.3594 34.6875L51.8188 35.7C53.2469 36.4 55.4594 36.2906 56.8094 35.4656L63.9437 31.1C64.2687 30.9031 65.0375 31.0063 65.2125 31.1563L68.7813 34.7219C69.05 35.025 69.1094 35.7094 68.9 36.0563L64.5344 43.1937C63.6875 44.5781 63.5875 46.725 64.2594 48.0938L65.2781 50.5562C65.8062 52.0906 67.3969 53.5344 68.9781 53.9156L77.1125 55.8719C77.3463 55.9567 77.5543 56.1 77.7168 56.2883C77.8793 56.4765 77.9908 56.7032 78.0406 56.9469C78.0406 56.9781 78.125 57.9437 78.125 59.375C78.125 60.8063 78.0406 61.7719 78.0375 61.8031C77.9877 62.0463 77.8766 62.2727 77.7147 62.4608C77.5528 62.649 77.3455 62.7926 77.1125 62.8781L68.975 64.8375C67.3969 65.2187 65.8062 66.6625 65.3125 68.1094L64.3 70.5688C63.5875 72.0281 63.6875 74.1719 64.5344 75.5594L68.9 82.6937C69.1094 83.0406 69.05 83.7281 68.8438 83.9625L65.2781 87.5313C65.0522 87.7001 64.7756 87.7871 64.4938 87.7781C64.3034 87.7843 64.1147 87.7401 63.9469 87.65L56.8094 83.2844C55.4594 82.4594 53.1406 82.4 51.9094 83.0094L49.4469 84.0281C47.9125 84.5562 46.4687 86.15 46.0906 87.7281L44.1312 95.8625C44.0464 96.0963 43.9031 96.3043 43.7149 96.4668C43.5266 96.6293 43.2999 96.7408 43.0562 96.7906C43.0219 96.7906 42.0563 96.875 40.625 96.875C39.1937 96.875 38.2281 96.7906 38.1969 96.7875C37.9537 96.7377 37.7273 96.6266 37.5392 96.4647C37.351 96.3028 37.2074 96.0955 37.1219 95.8625L35.1625 87.725C34.7812 86.1469 33.3375 84.5562 31.8906 84.0625L29.4313 83.05C28.7319 82.7249 27.968 82.5625 27.1969 82.575C26.1688 82.575 25.1906 82.8281 24.4406 83.2875L17.3063 87.6531C16.9813 87.85 16.2094 87.7438 16.0375 87.5969L12.4688 84.0281C12.2 83.725 12.1406 83.0406 12.35 82.6937L16.7156 75.5562C17.5625 74.1719 17.6625 72.025 16.9906 70.6563L15.9719 68.1938C15.4438 66.6594 13.8531 65.2156 12.2719 64.8344L4.1375 62.8781C3.90374 62.7933 3.69566 62.65 3.53316 62.4617C3.37066 62.2735 3.25917 62.0468 3.20937 61.8031C3.20937 61.7719 3.125 60.8063 3.125 59.375Z"/>
</mask>
<path d="M11.5375 67.875C12.0875 68.0062 12.8344 68.6844 13.05 69.3031L14.1438 71.9406C14.3906 72.4469 14.3437 73.45 14.05 73.9313L9.68437 81.0687C8.75 82.6 8.94375 84.7688 10.2 86.175L13.8969 89.8687C15.1844 91.0125 17.4562 91.2187 18.9375 90.3219L26.075 85.9563C26.5219 85.6813 27.4812 85.5844 28.1531 85.9L30.7875 86.9875C31.3188 87.1719 31.9969 87.9156 32.1281 88.4656L34.0875 96.6031C34.5031 98.3281 36.15 99.7469 37.9187 99.9094C37.9187 99.9094 39.0031 100.009 40.6281 100.009C42.2531 100.009 43.3375 99.9094 43.3406 99.9094C44.236 99.8038 45.0792 99.4323 45.7615 98.8431C46.4438 98.2538 46.934 97.4736 47.1687 96.6031L49.1313 88.4656C49.2625 87.9188 49.9375 87.1719 50.5562 86.9563L53.1937 85.8625C53.6594 85.6344 54.7375 85.6813 55.1844 85.9563L62.3219 90.3219C62.95 90.7062 63.7 90.9094 64.4969 90.9094C65.575 90.9094 66.6187 90.5313 67.4281 89.8094L71.1219 86.1125C71.7075 85.4213 72.0653 84.5662 72.1464 83.6639C72.2275 82.7617 72.0279 81.8564 71.575 81.0719L67.2094 73.9344C66.9156 73.4531 66.8688 72.45 67.1531 71.8562L68.2406 69.2219C68.425 68.6906 69.1687 68.0125 69.7187 67.8813L77.8562 65.9219C78.7267 65.6861 79.5068 65.1953 80.096 64.5125C80.6852 63.8297 81.0566 62.9863 81.1625 62.0906C81.1625 62.0906 81.2625 61.0063 81.2625 59.3813C81.2625 57.7563 81.1625 56.6719 81.1625 56.6688C81.0562 55.7733 80.6847 54.93 80.0955 54.2473C79.5064 53.5646 78.7265 53.0736 77.8562 52.8375L69.7219 50.8812C69.1719 50.75 68.425 50.0719 68.2094 49.4531L67.1156 46.8156C66.8687 46.3094 66.9156 45.3062 67.2094 44.825L71.575 37.6875C72.5094 36.1563 72.3156 33.9875 71.0594 32.5812L67.3625 28.8875C66.0719 27.7406 63.7969 27.5344 62.3219 28.4344L55.1844 32.8C54.7375 33.0719 53.775 33.175 53.1062 32.8562L50.4719 31.7688C49.9406 31.5844 49.2656 30.8406 49.1344 30.2906L47.1719 22.1531C46.9361 21.2826 46.4453 20.5026 45.7625 19.9134C45.0797 19.3242 44.2363 18.9527 43.3406 18.8469C43.3344 18.85 42.25 18.75 40.625 18.75C39 18.75 37.9156 18.85 37.9125 18.85C37.017 18.9563 36.1738 19.3278 35.4911 19.917C34.8083 20.5061 34.3174 21.286 34.0813 22.1563L32.125 30.2875C31.9937 30.8375 31.3156 31.5844 30.6969 31.8L28.0594 32.8938C27.5906 33.1219 26.5156 33.0719 26.0688 32.8L18.9344 28.4344C17.4563 27.5344 15.2313 27.6906 13.8281 28.9469L10.1344 32.6438C9.54879 33.3349 9.19098 34.1901 9.10988 35.0923C9.02877 35.9946 9.22832 36.8999 9.68125 37.6844L14.0469 44.8219C14.3406 45.3031 14.3875 46.3063 14.1031 46.9L13.0156 49.5344C12.8312 50.0656 12.0875 50.7438 11.5375 50.875L3.4 52.8344C2.5295 53.0701 1.74946 53.561 1.16024 54.2438C0.571031 54.9265 0.199602 55.77 0.09375 56.6656C0.1 56.6656 0 57.75 0 59.375C0 61 0.1 62.0844 0.1 62.0875C0.206259 62.983 0.577832 63.8262 1.16698 64.5089C1.75613 65.1916 2.53595 65.6826 3.40625 65.9187L11.5375 67.875ZM3.125 59.375C3.125 57.9437 3.20937 56.9781 3.2125 56.9469C3.26229 56.7037 3.37341 56.4773 3.5353 56.2892C3.69719 56.101 3.90448 55.9574 4.1375 55.8719L12.275 53.9125C13.8531 53.5313 15.4437 52.0875 15.9375 50.6406L16.95 48.1813C17.6625 46.7219 17.5625 44.5781 16.7156 43.1906L12.35 36.0563C12.1406 35.7094 12.2 35.0219 12.4063 34.7875L15.9719 31.2187C16.2563 30.9656 16.9813 30.9031 17.3063 31.1L24.4438 35.4656C25.7969 36.2937 28.1156 36.35 29.3438 35.7406L31.8063 34.7219C33.3406 34.1938 34.7844 32.6031 35.1656 31.0219L37.1219 22.8875C37.2067 22.6537 37.35 22.4457 37.5383 22.2832C37.7265 22.1207 37.9532 22.0092 38.1969 21.9594C38.2281 21.9594 39.1937 21.875 40.625 21.875C42.0563 21.875 43.0219 21.9594 43.0531 21.9625C43.2963 22.0123 43.5227 22.1234 43.7108 22.2853C43.899 22.4472 44.0426 22.6545 44.1281 22.8875L46.0875 31.0219C46.4688 32.6 47.9094 34.1938 49.3594 34.6875L51.8188 35.7C53.2469 36.4 55.4594 36.2906 56.8094 35.4656L63.9437 31.1C64.2687 30.9031 65.0375 31.0063 65.2125 31.1563L68.7813 34.7219C69.05 35.025 69.1094 35.7094 68.9 36.0563L64.5344 43.1937C63.6875 44.5781 63.5875 46.725 64.2594 48.0938L65.2781 50.5562C65.8062 52.0906 67.3969 53.5344 68.9781 53.9156L77.1125 55.8719C77.3463 55.9567 77.5543 56.1 77.7168 56.2883C77.8793 56.4765 77.9908 56.7032 78.0406 56.9469C78.0406 56.9781 78.125 57.9437 78.125 59.375C78.125 60.8063 78.0406 61.7719 78.0375 61.8031C77.9877 62.0463 77.8766 62.2727 77.7147 62.4608C77.5528 62.649 77.3455 62.7926 77.1125 62.8781L68.975 64.8375C67.3969 65.2187 65.8062 66.6625 65.3125 68.1094L64.3 70.5688C63.5875 72.0281 63.6875 74.1719 64.5344 75.5594L68.9 82.6937C69.1094 83.0406 69.05 83.7281 68.8438 83.9625L65.2781 87.5313C65.0522 87.7001 64.7756 87.7871 64.4938 87.7781C64.3034 87.7843 64.1147 87.7401 63.9469 87.65L56.8094 83.2844C55.4594 82.4594 53.1406 82.4 51.9094 83.0094L49.4469 84.0281C47.9125 84.5562 46.4687 86.15 46.0906 87.7281L44.1312 95.8625C44.0464 96.0963 43.9031 96.3043 43.7149 96.4668C43.5266 96.6293 43.2999 96.7408 43.0562 96.7906C43.0219 96.7906 42.0563 96.875 40.625 96.875C39.1937 96.875 38.2281 96.7906 38.1969 96.7875C37.9537 96.7377 37.7273 96.6266 37.5392 96.4647C37.351 96.3028 37.2074 96.0955 37.1219 95.8625L35.1625 87.725C34.7812 86.1469 33.3375 84.5562 31.8906 84.0625L29.4313 83.05C28.7319 82.7249 27.968 82.5625 27.1969 82.575C26.1688 82.575 25.1906 82.8281 24.4406 83.2875L17.3063 87.6531C16.9813 87.85 16.2094 87.7438 16.0375 87.5969L12.4688 84.0281C12.2 83.725 12.1406 83.0406 12.35 82.6937L16.7156 75.5562C17.5625 74.1719 17.6625 72.025 16.9906 70.6563L15.9719 68.1938C15.4438 66.6594 13.8531 65.2156 12.2719 64.8344L4.1375 62.8781C3.90374 62.7933 3.69566 62.65 3.53316 62.4617C3.37066 62.2735 3.25917 62.0468 3.20937 61.8031C3.20937 61.7719 3.125 60.8063 3.125 59.375Z" fill="#508CAE"/>
<path d="M11.5375 67.875C12.0875 68.0062 12.8344 68.6844 13.05 69.3031L14.1438 71.9406C14.3906 72.4469 14.3437 73.45 14.05 73.9313L9.68437 81.0687C8.75 82.6 8.94375 84.7688 10.2 86.175L13.8969 89.8687C15.1844 91.0125 17.4562 91.2187 18.9375 90.3219L26.075 85.9563C26.5219 85.6813 27.4812 85.5844 28.1531 85.9L30.7875 86.9875C31.3188 87.1719 31.9969 87.9156 32.1281 88.4656L34.0875 96.6031C34.5031 98.3281 36.15 99.7469 37.9187 99.9094C37.9187 99.9094 39.0031 100.009 40.6281 100.009C42.2531 100.009 43.3375 99.9094 43.3406 99.9094C44.236 99.8038 45.0792 99.4323 45.7615 98.8431C46.4438 98.2538 46.934 97.4736 47.1687 96.6031L49.1313 88.4656C49.2625 87.9188 49.9375 87.1719 50.5562 86.9563L53.1937 85.8625C53.6594 85.6344 54.7375 85.6813 55.1844 85.9563L62.3219 90.3219C62.95 90.7062 63.7 90.9094 64.4969 90.9094C65.575 90.9094 66.6187 90.5313 67.4281 89.8094L71.1219 86.1125C71.7075 85.4213 72.0653 84.5662 72.1464 83.6639C72.2275 82.7617 72.0279 81.8564 71.575 81.0719L67.2094 73.9344C66.9156 73.4531 66.8688 72.45 67.1531 71.8562L68.2406 69.2219C68.425 68.6906 69.1687 68.0125 69.7187 67.8813L77.8562 65.9219C78.7267 65.6861 79.5068 65.1953 80.096 64.5125C80.6852 63.8297 81.0566 62.9863 81.1625 62.0906C81.1625 62.0906 81.2625 61.0063 81.2625 59.3813C81.2625 57.7563 81.1625 56.6719 81.1625 56.6688C81.0562 55.7733 80.6847 54.93 80.0955 54.2473C79.5064 53.5646 78.7265 53.0736 77.8562 52.8375L69.7219 50.8812C69.1719 50.75 68.425 50.0719 68.2094 49.4531L67.1156 46.8156C66.8687 46.3094 66.9156 45.3062 67.2094 44.825L71.575 37.6875C72.5094 36.1563 72.3156 33.9875 71.0594 32.5812L67.3625 28.8875C66.0719 27.7406 63.7969 27.5344 62.3219 28.4344L55.1844 32.8C54.7375 33.0719 53.775 33.175 53.1062 32.8562L50.4719 31.7688C49.9406 31.5844 49.2656 30.8406 49.1344 30.2906L47.1719 22.1531C46.9361 21.2826 46.4453 20.5026 45.7625 19.9134C45.0797 19.3242 44.2363 18.9527 43.3406 18.8469C43.3344 18.85 42.25 18.75 40.625 18.75C39 18.75 37.9156 18.85 37.9125 18.85C37.017 18.9563 36.1738 19.3278 35.4911 19.917C34.8083 20.5061 34.3174 21.286 34.0813 22.1563L32.125 30.2875C31.9937 30.8375 31.3156 31.5844 30.6969 31.8L28.0594 32.8938C27.5906 33.1219 26.5156 33.0719 26.0688 32.8L18.9344 28.4344C17.4563 27.5344 15.2313 27.6906 13.8281 28.9469L10.1344 32.6438C9.54879 33.3349 9.19098 34.1901 9.10988 35.0923C9.02877 35.9946 9.22832 36.8999 9.68125 37.6844L14.0469 44.8219C14.3406 45.3031 14.3875 46.3063 14.1031 46.9L13.0156 49.5344C12.8312 50.0656 12.0875 50.7438 11.5375 50.875L3.4 52.8344C2.5295 53.0701 1.74946 53.561 1.16024 54.2438C0.571031 54.9265 0.199602 55.77 0.09375 56.6656C0.1 56.6656 0 57.75 0 59.375C0 61 0.1 62.0844 0.1 62.0875C0.206259 62.983 0.577832 63.8262 1.16698 64.5089C1.75613 65.1916 2.53595 65.6826 3.40625 65.9187L11.5375 67.875ZM3.125 59.375C3.125 57.9437 3.20937 56.9781 3.2125 56.9469C3.26229 56.7037 3.37341 56.4773 3.5353 56.2892C3.69719 56.101 3.90448 55.9574 4.1375 55.8719L12.275 53.9125C13.8531 53.5313 15.4437 52.0875 15.9375 50.6406L16.95 48.1813C17.6625 46.7219 17.5625 44.5781 16.7156 43.1906L12.35 36.0563C12.1406 35.7094 12.2 35.0219 12.4063 34.7875L15.9719 31.2187C16.2563 30.9656 16.9813 30.9031 17.3063 31.1L24.4438 35.4656C25.7969 36.2937 28.1156 36.35 29.3438 35.7406L31.8063 34.7219C33.3406 34.1938 34.7844 32.6031 35.1656 31.0219L37.1219 22.8875C37.2067 22.6537 37.35 22.4457 37.5383 22.2832C37.7265 22.1207 37.9532 22.0092 38.1969 21.9594C38.2281 21.9594 39.1937 21.875 40.625 21.875C42.0563 21.875 43.0219 21.9594 43.0531 21.9625C43.2963 22.0123 43.5227 22.1234 43.7108 22.2853C43.899 22.4472 44.0426 22.6545 44.1281 22.8875L46.0875 31.0219C46.4688 32.6 47.9094 34.1938 49.3594 34.6875L51.8188 35.7C53.2469 36.4 55.4594 36.2906 56.8094 35.4656L63.9437 31.1C64.2687 30.9031 65.0375 31.0063 65.2125 31.1563L68.7813 34.7219C69.05 35.025 69.1094 35.7094 68.9 36.0563L64.5344 43.1937C63.6875 44.5781 63.5875 46.725 64.2594 48.0938L65.2781 50.5562C65.8062 52.0906 67.3969 53.5344 68.9781 53.9156L77.1125 55.8719C77.3463 55.9567 77.5543 56.1 77.7168 56.2883C77.8793 56.4765 77.9908 56.7032 78.0406 56.9469C78.0406 56.9781 78.125 57.9437 78.125 59.375C78.125 60.8063 78.0406 61.7719 78.0375 61.8031C77.9877 62.0463 77.8766 62.2727 77.7147 62.4608C77.5528 62.649 77.3455 62.7926 77.1125 62.8781L68.975 64.8375C67.3969 65.2187 65.8062 66.6625 65.3125 68.1094L64.3 70.5688C63.5875 72.0281 63.6875 74.1719 64.5344 75.5594L68.9 82.6937C69.1094 83.0406 69.05 83.7281 68.8438 83.9625L65.2781 87.5313C65.0522 87.7001 64.7756 87.7871 64.4938 87.7781C64.3034 87.7843 64.1147 87.7401 63.9469 87.65L56.8094 83.2844C55.4594 82.4594 53.1406 82.4 51.9094 83.0094L49.4469 84.0281C47.9125 84.5562 46.4687 86.15 46.0906 87.7281L44.1312 95.8625C44.0464 96.0963 43.9031 96.3043 43.7149 96.4668C43.5266 96.6293 43.2999 96.7408 43.0562 96.7906C43.0219 96.7906 42.0563 96.875 40.625 96.875C39.1937 96.875 38.2281 96.7906 38.1969 96.7875C37.9537 96.7377 37.7273 96.6266 37.5392 96.4647C37.351 96.3028 37.2074 96.0955 37.1219 95.8625L35.1625 87.725C34.7812 86.1469 33.3375 84.5562 31.8906 84.0625L29.4313 83.05C28.7319 82.7249 27.968 82.5625 27.1969 82.575C26.1688 82.575 25.1906 82.8281 24.4406 83.2875L17.3063 87.6531C16.9813 87.85 16.2094 87.7438 16.0375 87.5969L12.4688 84.0281C12.2 83.725 12.1406 83.0406 12.35 82.6937L16.7156 75.5562C17.5625 74.1719 17.6625 72.025 16.9906 70.6563L15.9719 68.1938C15.4438 66.6594 13.8531 65.2156 12.2719 64.8344L4.1375 62.8781C3.90374 62.7933 3.69566 62.65 3.53316 62.4617C3.37066 62.2735 3.25917 62.0468 3.20937 61.8031C3.20937 61.7719 3.125 60.8063 3.125 59.375Z" stroke="#508CAE" stroke-width="0.6" mask="url(#path-1-outside-1_318_3)"/>
<mask id="path-2-outside-2_318_3" maskUnits="userSpaceOnUse" x="22.4375" y="-1.025" width="110" height="78" fill="black">
<rect fill="white" x="22.4375" y="-1.025" width="110" height="78"/>
<path d="M40.625 76.5625C50.1031 76.5625 57.8125 68.8531 57.8125 59.375C57.8125 49.8969 50.1031 42.1875 40.625 42.1875C31.1469 42.1875 23.4375 49.8969 23.4375 59.375C23.4375 68.8531 31.1469 76.5625 40.625 76.5625ZM40.625 45.3125C48.3781 45.3125 54.6875 51.6219 54.6875 59.375C54.6875 67.1281 48.3781 73.4375 40.625 73.4375C32.8719 73.4375 26.5625 67.1281 26.5625 59.375C26.5625 51.6219 32.8719 45.3125 40.625 45.3125ZM85.8656 16.6062C85.6558 16.8418 85.3688 16.9947 85.0563 17.0375L79.2406 16.9812C78.5229 17.0003 77.827 17.232 77.2412 17.6471C76.6554 18.0621 76.206 18.6417 75.95 19.3125C75.95 19.3125 75.6937 20.0406 75.4125 21.1562C75.1312 22.2719 75.0125 23.0344 75.0125 23.0344C74.7937 24.4437 75.5781 26.0031 76.8375 26.6625L81.9656 29.35C82.2405 29.5583 82.4259 29.8632 82.4844 30.2031L82.775 32.1875C82.7934 32.501 82.7005 32.8109 82.5125 33.0625L78.3813 37.1125C77.3469 38.125 77.075 39.8563 77.7875 41.2156L79.6594 44.3406C80.45 45.5031 82.1625 46.0969 83.5063 45.6781L89.2062 43.9344C89.5156 43.9344 89.825 44.0531 90 44.1938L91.6094 45.3813C91.8436 45.5921 91.9962 45.8786 92.0406 46.1906L91.9844 51.9781C91.9719 53.4031 92.9719 54.8312 94.3156 55.3C94.3156 55.3 95.0437 55.5563 96.1594 55.8375C97.275 56.1188 98.0375 56.2375 98.0375 56.2375C98.1187 56.25 98.4437 56.275 98.525 56.275C99.1658 56.267 99.7932 56.0908 100.344 55.7639C100.896 55.437 101.351 54.971 101.666 54.4125L104.353 49.2844C104.561 49.0095 104.866 48.8241 105.206 48.7656L107.278 48.4656C107.591 48.4656 107.959 48.6281 108.063 48.7344L112.112 52.8656C113.097 53.8719 114.756 54.2313 116.216 53.4594L119.337 51.5875C120.531 50.775 121.109 49.1188 120.678 47.7406L118.953 42.2188C118.907 41.8755 118.994 41.5277 119.197 41.2469L120.384 39.6375C120.594 39.402 120.881 39.2491 121.194 39.2063L127.009 39.2625C127.727 39.2435 128.423 39.0117 129.009 38.5967C129.595 38.1817 130.044 37.602 130.3 36.9313C130.3 36.9313 130.556 36.2031 130.838 35.0875C131.119 33.9719 131.237 33.2094 131.237 33.2094C131.33 32.4915 131.206 31.7624 130.881 31.1157C130.556 30.4691 130.044 29.9347 129.412 29.5813L124.284 26.8938C124.01 26.6855 123.824 26.3805 123.766 26.0406L123.478 24.0625C123.46 23.749 123.553 23.4391 123.741 23.1875L127.872 19.1375C128.906 18.125 129.178 16.3937 128.466 15.0344L126.594 11.9094C125.803 10.75 124.094 10.15 122.747 10.5687L117.044 12.3125C116.758 12.3121 116.481 12.2213 116.25 12.0531L114.641 10.8656C114.406 10.6548 114.254 10.3683 114.209 10.0562L114.266 4.26875C114.254 3.54546 114.025 2.84239 113.609 2.25026C113.194 1.65814 112.61 1.20414 111.934 0.946874C111.934 0.946874 111.206 0.690624 110.091 0.409374C108.975 0.128123 108.212 0.00937348 108.212 0.00937348C108.05 -0.00674638 107.888 -0.0182094 107.725 -0.0250015C107.084 -0.0170196 106.457 0.159247 105.906 0.486134C105.354 0.813021 104.899 1.27904 104.584 1.8375L101.897 6.96562C101.689 7.2405 101.384 7.42593 101.044 7.48437L98.9719 7.78125C98.6889 7.77512 98.4148 7.68121 98.1875 7.5125L94.1375 3.38125C93.6082 2.85456 92.9232 2.5124 92.1842 2.40546C91.4451 2.29851 90.6913 2.43248 90.0344 2.7875L86.9094 4.65625C85.7156 5.46875 85.1375 7.125 85.5687 8.50312L87.2938 14.025C87.3399 14.3682 87.2526 14.716 87.05 14.9969L85.8656 16.6062ZM88.4281 18.3938L89.5 16.9375C90.3375 15.9469 90.6625 14.3312 90.275 13.0969L88.5531 7.57812C88.5375 7.49062 88.6063 7.29375 88.5906 7.29062L91.5531 5.51562L91.9062 5.56875L95.9594 9.7C96.6781 10.4312 97.8625 10.9062 98.975 10.9062C99.189 10.9096 99.4028 10.8897 99.6125 10.8469L101.409 10.5812C102.084 10.4994 102.731 10.2606 103.297 9.88396C103.863 9.50735 104.333 9.0034 104.669 8.4125L107.353 3.2875C107.45 3.17912 107.584 3.11107 107.728 3.09687C107.762 3.1 108.4 3.20625 109.331 3.4375C110.259 3.67187 110.872 3.88125 110.9 3.89375C110.997 3.93437 111.138 4.1375 111.144 4.2375L111.088 10.025C111.075 11.3187 111.853 12.7719 112.859 13.4281L114.313 14.5C115.278 15.3156 116.934 15.6594 118.153 15.275L123.697 13.55C123.828 13.55 123.975 13.6312 123.956 13.5906L125.731 16.5531C125.766 16.6344 125.731 16.8406 125.678 16.9062L121.547 20.9594C120.625 21.8687 120.147 23.4437 120.4 24.6125L120.662 26.4094C120.775 27.6969 121.687 29.0688 122.834 29.6688L127.959 32.3531C128.067 32.4505 128.135 32.584 128.15 32.7281C128.058 33.2669 127.945 33.8018 127.809 34.3313C127.68 34.8605 127.528 35.3839 127.353 35.9C127.312 35.9969 127.109 36.1375 127.009 36.1438L121.191 36.0875C119.906 36.0875 118.469 36.8656 117.819 37.8594L116.75 39.3125C116.328 39.8467 116.038 40.4729 115.903 41.1402C115.769 41.8075 115.793 42.4971 115.975 43.1531L117.697 48.6719C117.712 48.7563 117.644 48.9563 117.659 48.9594L114.697 50.7344L114.344 50.6813L110.291 46.55C109.572 45.8188 108.387 45.3438 107.275 45.3438C107.061 45.3404 106.847 45.3603 106.638 45.4031L104.841 45.6688C104.166 45.7506 103.519 45.9894 102.953 46.366C102.387 46.7427 101.917 47.2466 101.581 47.8375L98.8969 52.9625C98.8002 53.0709 98.6664 53.1389 98.5219 53.1531C97.9831 53.0615 97.4483 52.9479 96.9187 52.8125C96.3895 52.6829 95.8661 52.5307 95.35 52.3562C95.2531 52.3156 95.1125 52.1125 95.1063 52.0125L95.1625 46.225C95.175 44.9313 94.3969 43.4781 93.3906 42.8219L91.9375 41.75C91.4028 41.3278 90.7761 41.0377 90.1083 40.903C89.4404 40.7683 88.7503 40.793 88.0938 40.975L82.55 42.7C82.4156 42.7 82.2688 42.6281 82.2906 42.6594L80.5156 39.6969C80.4812 39.6156 80.5156 39.4094 80.5687 39.3438L84.7 35.2906C85.6219 34.3813 86.1 32.8063 85.8469 31.6375L85.5844 29.8438C85.5024 29.1685 85.2632 28.5219 84.886 27.9558C84.5088 27.3897 84.0041 26.92 83.4125 26.5844L78.2875 23.9C78.1801 23.8026 78.1122 23.6692 78.0969 23.525C78.1 23.4906 78.2063 22.8531 78.4375 21.9219C78.6719 20.9937 78.8813 20.3812 78.8938 20.3531C78.9344 20.2562 79.1375 20.1156 79.2375 20.1094L85.0563 20.1656C86.3406 20.1656 87.7781 19.3875 88.4281 18.3938Z"/>
</mask>
<path d="M40.625 76.5625C50.1031 76.5625 57.8125 68.8531 57.8125 59.375C57.8125 49.8969 50.1031 42.1875 40.625 42.1875C31.1469 42.1875 23.4375 49.8969 23.4375 59.375C23.4375 68.8531 31.1469 76.5625 40.625 76.5625ZM40.625 45.3125C48.3781 45.3125 54.6875 51.6219 54.6875 59.375C54.6875 67.1281 48.3781 73.4375 40.625 73.4375C32.8719 73.4375 26.5625 67.1281 26.5625 59.375C26.5625 51.6219 32.8719 45.3125 40.625 45.3125ZM85.8656 16.6062C85.6558 16.8418 85.3688 16.9947 85.0563 17.0375L79.2406 16.9812C78.5229 17.0003 77.827 17.232 77.2412 17.6471C76.6554 18.0621 76.206 18.6417 75.95 19.3125C75.95 19.3125 75.6937 20.0406 75.4125 21.1562C75.1312 22.2719 75.0125 23.0344 75.0125 23.0344C74.7937 24.4437 75.5781 26.0031 76.8375 26.6625L81.9656 29.35C82.2405 29.5583 82.4259 29.8632 82.4844 30.2031L82.775 32.1875C82.7934 32.501 82.7005 32.8109 82.5125 33.0625L78.3813 37.1125C77.3469 38.125 77.075 39.8563 77.7875 41.2156L79.6594 44.3406C80.45 45.5031 82.1625 46.0969 83.5063 45.6781L89.2062 43.9344C89.5156 43.9344 89.825 44.0531 90 44.1938L91.6094 45.3813C91.8436 45.5921 91.9962 45.8786 92.0406 46.1906L91.9844 51.9781C91.9719 53.4031 92.9719 54.8312 94.3156 55.3C94.3156 55.3 95.0437 55.5563 96.1594 55.8375C97.275 56.1188 98.0375 56.2375 98.0375 56.2375C98.1187 56.25 98.4437 56.275 98.525 56.275C99.1658 56.267 99.7932 56.0908 100.344 55.7639C100.896 55.437 101.351 54.971 101.666 54.4125L104.353 49.2844C104.561 49.0095 104.866 48.8241 105.206 48.7656L107.278 48.4656C107.591 48.4656 107.959 48.6281 108.063 48.7344L112.112 52.8656C113.097 53.8719 114.756 54.2313 116.216 53.4594L119.337 51.5875C120.531 50.775 121.109 49.1188 120.678 47.7406L118.953 42.2188C118.907 41.8755 118.994 41.5277 119.197 41.2469L120.384 39.6375C120.594 39.402 120.881 39.2491 121.194 39.2063L127.009 39.2625C127.727 39.2435 128.423 39.0117 129.009 38.5967C129.595 38.1817 130.044 37.602 130.3 36.9313C130.3 36.9313 130.556 36.2031 130.838 35.0875C131.119 33.9719 131.237 33.2094 131.237 33.2094C131.33 32.4915 131.206 31.7624 130.881 31.1157C130.556 30.4691 130.044 29.9347 129.412 29.5813L124.284 26.8938C124.01 26.6855 123.824 26.3805 123.766 26.0406L123.478 24.0625C123.46 23.749 123.553 23.4391 123.741 23.1875L127.872 19.1375C128.906 18.125 129.178 16.3937 128.466 15.0344L126.594 11.9094C125.803 10.75 124.094 10.15 122.747 10.5687L117.044 12.3125C116.758 12.3121 116.481 12.2213 116.25 12.0531L114.641 10.8656C114.406 10.6548 114.254 10.3683 114.209 10.0562L114.266 4.26875C114.254 3.54546 114.025 2.84239 113.609 2.25026C113.194 1.65814 112.61 1.20414 111.934 0.946874C111.934 0.946874 111.206 0.690624 110.091 0.409374C108.975 0.128123 108.212 0.00937348 108.212 0.00937348C108.05 -0.00674638 107.888 -0.0182094 107.725 -0.0250015C107.084 -0.0170196 106.457 0.159247 105.906 0.486134C105.354 0.813021 104.899 1.27904 104.584 1.8375L101.897 6.96562C101.689 7.2405 101.384 7.42593 101.044 7.48437L98.9719 7.78125C98.6889 7.77512 98.4148 7.68121 98.1875 7.5125L94.1375 3.38125C93.6082 2.85456 92.9232 2.5124 92.1842 2.40546C91.4451 2.29851 90.6913 2.43248 90.0344 2.7875L86.9094 4.65625C85.7156 5.46875 85.1375 7.125 85.5687 8.50312L87.2938 14.025C87.3399 14.3682 87.2526 14.716 87.05 14.9969L85.8656 16.6062ZM88.4281 18.3938L89.5 16.9375C90.3375 15.9469 90.6625 14.3312 90.275 13.0969L88.5531 7.57812C88.5375 7.49062 88.6063 7.29375 88.5906 7.29062L91.5531 5.51562L91.9062 5.56875L95.9594 9.7C96.6781 10.4312 97.8625 10.9062 98.975 10.9062C99.189 10.9096 99.4028 10.8897 99.6125 10.8469L101.409 10.5812C102.084 10.4994 102.731 10.2606 103.297 9.88396C103.863 9.50735 104.333 9.0034 104.669 8.4125L107.353 3.2875C107.45 3.17912 107.584 3.11107 107.728 3.09687C107.762 3.1 108.4 3.20625 109.331 3.4375C110.259 3.67187 110.872 3.88125 110.9 3.89375C110.997 3.93437 111.138 4.1375 111.144 4.2375L111.088 10.025C111.075 11.3187 111.853 12.7719 112.859 13.4281L114.313 14.5C115.278 15.3156 116.934 15.6594 118.153 15.275L123.697 13.55C123.828 13.55 123.975 13.6312 123.956 13.5906L125.731 16.5531C125.766 16.6344 125.731 16.8406 125.678 16.9062L121.547 20.9594C120.625 21.8687 120.147 23.4437 120.4 24.6125L120.662 26.4094C120.775 27.6969 121.687 29.0688 122.834 29.6688L127.959 32.3531C128.067 32.4505 128.135 32.584 128.15 32.7281C128.058 33.2669 127.945 33.8018 127.809 34.3313C127.68 34.8605 127.528 35.3839 127.353 35.9C127.312 35.9969 127.109 36.1375 127.009 36.1438L121.191 36.0875C119.906 36.0875 118.469 36.8656 117.819 37.8594L116.75 39.3125C116.328 39.8467 116.038 40.4729 115.903 41.1402C115.769 41.8075 115.793 42.4971 115.975 43.1531L117.697 48.6719C117.712 48.7563 117.644 48.9563 117.659 48.9594L114.697 50.7344L114.344 50.6813L110.291 46.55C109.572 45.8188 108.387 45.3438 107.275 45.3438C107.061 45.3404 106.847 45.3603 106.638 45.4031L104.841 45.6688C104.166 45.7506 103.519 45.9894 102.953 46.366C102.387 46.7427 101.917 47.2466 101.581 47.8375L98.8969 52.9625C98.8002 53.0709 98.6664 53.1389 98.5219 53.1531C97.9831 53.0615 97.4483 52.9479 96.9187 52.8125C96.3895 52.6829 95.8661 52.5307 95.35 52.3562C95.2531 52.3156 95.1125 52.1125 95.1063 52.0125L95.1625 46.225C95.175 44.9313 94.3969 43.4781 93.3906 42.8219L91.9375 41.75C91.4028 41.3278 90.7761 41.0377 90.1083 40.903C89.4404 40.7683 88.7503 40.793 88.0938 40.975L82.55 42.7C82.4156 42.7 82.2688 42.6281 82.2906 42.6594L80.5156 39.6969C80.4812 39.6156 80.5156 39.4094 80.5687 39.3438L84.7 35.2906C85.6219 34.3813 86.1 32.8063 85.8469 31.6375L85.5844 29.8438C85.5024 29.1685 85.2632 28.5219 84.886 27.9558C84.5088 27.3897 84.0041 26.92 83.4125 26.5844L78.2875 23.9C78.1801 23.8026 78.1122 23.6692 78.0969 23.525C78.1 23.4906 78.2063 22.8531 78.4375 21.9219C78.6719 20.9937 78.8813 20.3812 78.8938 20.3531C78.9344 20.2562 79.1375 20.1156 79.2375 20.1094L85.0563 20.1656C86.3406 20.1656 87.7781 19.3875 88.4281 18.3938Z" fill="#508CAE"/>
<path d="M40.625 76.5625C50.1031 76.5625 57.8125 68.8531 57.8125 59.375C57.8125 49.8969 50.1031 42.1875 40.625 42.1875C31.1469 42.1875 23.4375 49.8969 23.4375 59.375C23.4375 68.8531 31.1469 76.5625 40.625 76.5625ZM40.625 45.3125C48.3781 45.3125 54.6875 51.6219 54.6875 59.375C54.6875 67.1281 48.3781 73.4375 40.625 73.4375C32.8719 73.4375 26.5625 67.1281 26.5625 59.375C26.5625 51.6219 32.8719 45.3125 40.625 45.3125ZM85.8656 16.6062C85.6558 16.8418 85.3688 16.9947 85.0563 17.0375L79.2406 16.9812C78.5229 17.0003 77.827 17.232 77.2412 17.6471C76.6554 18.0621 76.206 18.6417 75.95 19.3125C75.95 19.3125 75.6937 20.0406 75.4125 21.1562C75.1312 22.2719 75.0125 23.0344 75.0125 23.0344C74.7937 24.4437 75.5781 26.0031 76.8375 26.6625L81.9656 29.35C82.2405 29.5583 82.4259 29.8632 82.4844 30.2031L82.775 32.1875C82.7934 32.501 82.7005 32.8109 82.5125 33.0625L78.3813 37.1125C77.3469 38.125 77.075 39.8563 77.7875 41.2156L79.6594 44.3406C80.45 45.5031 82.1625 46.0969 83.5063 45.6781L89.2062 43.9344C89.5156 43.9344 89.825 44.0531 90 44.1938L91.6094 45.3813C91.8436 45.5921 91.9962 45.8786 92.0406 46.1906L91.9844 51.9781C91.9719 53.4031 92.9719 54.8312 94.3156 55.3C94.3156 55.3 95.0437 55.5563 96.1594 55.8375C97.275 56.1188 98.0375 56.2375 98.0375 56.2375C98.1187 56.25 98.4437 56.275 98.525 56.275C99.1658 56.267 99.7932 56.0908 100.344 55.7639C100.896 55.437 101.351 54.971 101.666 54.4125L104.353 49.2844C104.561 49.0095 104.866 48.8241 105.206 48.7656L107.278 48.4656C107.591 48.4656 107.959 48.6281 108.063 48.7344L112.112 52.8656C113.097 53.8719 114.756 54.2313 116.216 53.4594L119.337 51.5875C120.531 50.775 121.109 49.1188 120.678 47.7406L118.953 42.2188C118.907 41.8755 118.994 41.5277 119.197 41.2469L120.384 39.6375C120.594 39.402 120.881 39.2491 121.194 39.2063L127.009 39.2625C127.727 39.2435 128.423 39.0117 129.009 38.5967C129.595 38.1817 130.044 37.602 130.3 36.9313C130.3 36.9313 130.556 36.2031 130.838 35.0875C131.119 33.9719 131.237 33.2094 131.237 33.2094C131.33 32.4915 131.206 31.7624 130.881 31.1157C130.556 30.4691 130.044 29.9347 129.412 29.5813L124.284 26.8938C124.01 26.6855 123.824 26.3805 123.766 26.0406L123.478 24.0625C123.46 23.749 123.553 23.4391 123.741 23.1875L127.872 19.1375C128.906 18.125 129.178 16.3937 128.466 15.0344L126.594 11.9094C125.803 10.75 124.094 10.15 122.747 10.5687L117.044 12.3125C116.758 12.3121 116.481 12.2213 116.25 12.0531L114.641 10.8656C114.406 10.6548 114.254 10.3683 114.209 10.0562L114.266 4.26875C114.254 3.54546 114.025 2.84239 113.609 2.25026C113.194 1.65814 112.61 1.20414 111.934 0.946874C111.934 0.946874 111.206 0.690624 110.091 0.409374C108.975 0.128123 108.212 0.00937348 108.212 0.00937348C108.05 -0.00674638 107.888 -0.0182094 107.725 -0.0250015C107.084 -0.0170196 106.457 0.159247 105.906 0.486134C105.354 0.813021 104.899 1.27904 104.584 1.8375L101.897 6.96562C101.689 7.2405 101.384 7.42593 101.044 7.48437L98.9719 7.78125C98.6889 7.77512 98.4148 7.68121 98.1875 7.5125L94.1375 3.38125C93.6082 2.85456 92.9232 2.5124 92.1842 2.40546C91.4451 2.29851 90.6913 2.43248 90.0344 2.7875L86.9094 4.65625C85.7156 5.46875 85.1375 7.125 85.5687 8.50312L87.2938 14.025C87.3399 14.3682 87.2526 14.716 87.05 14.9969L85.8656 16.6062ZM88.4281 18.3938L89.5 16.9375C90.3375 15.9469 90.6625 14.3312 90.275 13.0969L88.5531 7.57812C88.5375 7.49062 88.6063 7.29375 88.5906 7.29062L91.5531 5.51562L91.9062 5.56875L95.9594 9.7C96.6781 10.4312 97.8625 10.9062 98.975 10.9062C99.189 10.9096 99.4028 10.8897 99.6125 10.8469L101.409 10.5812C102.084 10.4994 102.731 10.2606 103.297 9.88396C103.863 9.50735 104.333 9.0034 104.669 8.4125L107.353 3.2875C107.45 3.17912 107.584 3.11107 107.728 3.09687C107.762 3.1 108.4 3.20625 109.331 3.4375C110.259 3.67187 110.872 3.88125 110.9 3.89375C110.997 3.93437 111.138 4.1375 111.144 4.2375L111.088 10.025C111.075 11.3187 111.853 12.7719 112.859 13.4281L114.313 14.5C115.278 15.3156 116.934 15.6594 118.153 15.275L123.697 13.55C123.828 13.55 123.975 13.6312 123.956 13.5906L125.731 16.5531C125.766 16.6344 125.731 16.8406 125.678 16.9062L121.547 20.9594C120.625 21.8687 120.147 23.4437 120.4 24.6125L120.662 26.4094C120.775 27.6969 121.687 29.0688 122.834 29.6688L127.959 32.3531C128.067 32.4505 128.135 32.584 128.15 32.7281C128.058 33.2669 127.945 33.8018 127.809 34.3313C127.68 34.8605 127.528 35.3839 127.353 35.9C127.312 35.9969 127.109 36.1375 127.009 36.1438L121.191 36.0875C119.906 36.0875 118.469 36.8656 117.819 37.8594L116.75 39.3125C116.328 39.8467 116.038 40.4729 115.903 41.1402C115.769 41.8075 115.793 42.4971 115.975 43.1531L117.697 48.6719C117.712 48.7563 117.644 48.9563 117.659 48.9594L114.697 50.7344L114.344 50.6813L110.291 46.55C109.572 45.8188 108.387 45.3438 107.275 45.3438C107.061 45.3404 106.847 45.3603 106.638 45.4031L104.841 45.6688C104.166 45.7506 103.519 45.9894 102.953 46.366C102.387 46.7427 101.917 47.2466 101.581 47.8375L98.8969 52.9625C98.8002 53.0709 98.6664 53.1389 98.5219 53.1531C97.9831 53.0615 97.4483 52.9479 96.9187 52.8125C96.3895 52.6829 95.8661 52.5307 95.35 52.3562C95.2531 52.3156 95.1125 52.1125 95.1063 52.0125L95.1625 46.225C95.175 44.9313 94.3969 43.4781 93.3906 42.8219L91.9375 41.75C91.4028 41.3278 90.7761 41.0377 90.1083 40.903C89.4404 40.7683 88.7503 40.793 88.0938 40.975L82.55 42.7C82.4156 42.7 82.2688 42.6281 82.2906 42.6594L80.5156 39.6969C80.4812 39.6156 80.5156 39.4094 80.5687 39.3438L84.7 35.2906C85.6219 34.3813 86.1 32.8063 85.8469 31.6375L85.5844 29.8438C85.5024 29.1685 85.2632 28.5219 84.886 27.9558C84.5088 27.3897 84.0041 26.92 83.4125 26.5844L78.2875 23.9C78.1801 23.8026 78.1122 23.6692 78.0969 23.525C78.1 23.4906 78.2063 22.8531 78.4375 21.9219C78.6719 20.9937 78.8813 20.3812 78.8938 20.3531C78.9344 20.2562 79.1375 20.1156 79.2375 20.1094L85.0563 20.1656C86.3406 20.1656 87.7781 19.3875 88.4281 18.3938Z" stroke="#508CAE" stroke-width="0.6" mask="url(#path-2-outside-2_318_3)"/>
<path d="M103.125 37.65C108.377 37.65 112.65 33.3766 112.65 28.125C112.65 22.8734 108.377 18.6 103.125 18.6C97.8734 18.6 93.6 22.8734 93.6 28.125C93.6 33.3766 97.8734 37.65 103.125 37.65ZM103.125 22.025C106.489 22.025 109.225 24.761 109.225 28.125C109.225 31.489 106.489 34.225 103.125 34.225C99.761 34.225 97.025 31.489 97.025 28.125C97.025 24.761 99.761 22.025 103.125 22.025Z" fill="#508CAE" stroke="#508CAE" stroke-width="0.3"/>
</svg>
