<svg width="46" height="46" viewBox="0 0 46 46" fill="none" xmlns="http://www.w3.org/2000/svg">
<path d="M29.3373 32.5594L29.3373 32.5594C30.1762 33.0636 30.525 34.1256 30.15 35.0315L30.15 35.0315L29.1384 37.4738C28.7632 38.3797 27.7656 38.8842 26.8157 38.6473C26.3166 38.5229 25.8186 38.3943 25.3217 38.2615C24.7562 38.9658 24.1158 39.6064 23.4117 40.1722C23.5444 40.6689 23.673 41.1668 23.7974 41.6658L23.7974 41.6658C24.0341 42.6156 23.5295 43.6132 22.624 43.9884L22.5666 43.8498L22.624 43.9884L20.1818 45L20.1818 45C19.2758 45.3751 18.2138 45.0265 17.7095 44.1875L17.7094 44.1874C17.4472 43.751 17.1842 43.3047 16.9262 42.8586C16.0283 42.9562 15.1225 42.9561 14.2247 42.8581C13.9672 43.3033 13.706 43.7464 13.4411 44.1873L13.4411 44.1874C13.0727 44.7997 12.4081 45.15 11.7253 45.15C11.7253 45.15 11.7252 45.15 11.7252 45.15V45C11.4852 45.0001 11.2476 44.953 11.0259 44.8612L29.3373 32.5594ZM29.3373 32.5594C28.8964 32.2945 28.4532 32.0333 28.008 31.7758C28.1062 30.878 28.1063 29.9721 28.0084 29.0742C28.4571 28.8147 28.9034 28.5517 29.3371 28.2909C30.1762 27.7867 30.5251 26.7248 30.1499 25.8188L30.1378 25.7896M29.3373 32.5594L30.1378 25.7896M30.1378 25.7896L30.1377 25.7895M30.1378 25.7896L30.1377 25.7895M30.1377 25.7895L29.1382 23.3765L28.9997 23.4339L29.1382 23.3765C28.763 22.4708 27.7658 21.9662 26.8156 22.203L26.8518 22.3485L26.8156 22.203C26.3166 22.3273 25.8187 22.4558 25.3219 22.5886C24.7562 21.8845 24.1155 21.2441 23.4112 20.6787C23.544 20.1817 23.6726 19.6837 23.7971 19.1846L23.6515 19.1483L23.7971 19.1846C24.0338 18.2347 23.5294 17.2372 22.6236 16.862L22.5662 17.0005L22.6236 16.8619L20.1815 15.8504C19.2757 15.475 18.2135 15.8236 17.7091 16.6629L17.7091 16.6629C17.4442 17.1038 17.183 17.5469 16.9256 17.9922C16.0277 17.894 15.1219 17.8939 14.224 17.9917C13.9667 17.5465 13.7056 17.1036 13.4408 16.6629L13.4408 16.6628C12.9362 15.8238 11.8743 15.4751 10.9684 15.8504L8.52626 16.8619L8.52625 16.8619C7.62069 17.2371 7.11607 18.2347 7.35281 19.1846C7.47712 19.6835 7.60569 20.1814 7.73848 20.6782C7.03438 21.2439 6.39397 21.8845 5.82859 22.5889C5.3316 22.456 4.8335 22.3274 4.33433 22.203M4.33433 22.203C4.33433 22.203 4.33434 22.203 4.33434 22.203L4.29805 22.3485L4.33433 22.203Z" fill="#508CAE" stroke="#508CAE" stroke-width="0.3"/>
<mask id="path-2-outside-1_13_162" maskUnits="userSpaceOnUse" x="7.86279" y="0" width="38" height="38" fill="black">
<rect fill="white" x="7.86279" width="38" height="38"/>
<path d="M21.7765 27.8564L21.7764 27.8563C20.3601 24.437 16.4263 22.8073 13.0064 24.2237C9.58711 25.6401 7.95739 29.5743 9.37381 32.9937C10.0598 34.6502 11.3501 35.9402 13.0065 36.6264C13.8347 36.9694 14.7049 37.1409 15.5751 37.1409C16.4453 37.1409 17.3155 36.9694 18.1438 36.6264C21.5631 35.21 23.1927 31.2759 21.7765 27.8564ZM17.3901 34.8068C16.2198 35.2915 14.9308 35.2915 13.7601 34.8068C12.5898 34.322 11.6783 33.4104 11.1934 32.24C10.1925 29.8239 11.3441 27.044 13.7602 26.0433C14.3335 25.8051 14.9482 25.6823 15.569 25.6822C17.431 25.6822 19.2011 26.7856 19.9569 28.6101C20.9577 31.0261 19.8061 33.8059 17.3901 34.8068ZM43.6726 9.67418C43.326 9.62237 42.9791 9.5733 42.6318 9.52697C42.4543 8.93696 42.2178 8.36634 41.9259 7.82378C42.1388 7.54531 42.3496 7.26517 42.5581 6.9834C43.0132 6.368 42.9473 5.49522 42.4052 4.9533L41.0467 3.59497C40.5045 3.0527 39.6317 2.98696 39.0165 3.44217C38.7347 3.6507 38.4546 3.86139 38.1761 4.07424C37.6335 3.78226 37.0629 3.54574 36.4729 3.36827C36.4266 3.02099 36.3775 2.67407 36.3258 2.32756C36.2126 1.5708 35.549 1 34.7823 1H32.861C32.0943 1 31.4307 1.5708 31.3175 2.32748C31.2658 2.67399 31.2167 3.0209 31.1704 3.36818C30.5804 3.54564 30.0097 3.78216 29.4672 4.07416C29.1888 3.86121 28.9087 3.65051 28.6269 3.44209C28.0115 2.98687 27.1387 3.05262 26.5967 3.5948L25.2384 4.95304C24.6961 5.49513 24.6302 6.368 25.0854 6.98348C25.2938 7.26525 25.5045 7.54535 25.7174 7.82378C25.4255 8.36637 25.189 8.93698 25.0115 9.52697C24.6642 9.57334 24.3173 9.62241 23.9708 9.67418C23.214 9.78745 22.6432 10.451 22.6432 11.2178V13.1389C22.6432 13.9057 23.2138 14.5693 23.9706 14.6825C24.3106 14.7334 24.6598 14.7828 25.0114 14.8297C25.1889 15.4197 25.4254 15.9903 25.7173 16.5329C25.5044 16.8114 25.2936 17.0916 25.0851 17.3733C24.6301 17.9886 24.6959 18.8615 25.238 19.4033L26.5965 20.7618C27.1386 21.3041 28.0114 21.3698 28.6267 20.9146C28.9085 20.7062 29.1886 20.4955 29.467 20.2827C30.0096 20.5746 30.5803 20.8111 31.1703 20.9885C31.2171 21.3401 31.2666 21.6894 31.3174 22.0293C31.4307 22.7861 32.0943 23.3569 32.861 23.3569H34.7823C35.549 23.3569 36.2126 22.7863 36.3258 22.0292C36.3775 21.6827 36.4265 21.3358 36.4729 20.9885C37.0629 20.811 37.6336 20.5745 38.1761 20.2825C38.4545 20.4954 38.7346 20.7062 39.0164 20.9146C39.6316 21.3698 40.5046 21.3041 41.0466 20.7619L42.4051 19.4036C42.9473 18.8615 43.0131 17.9886 42.5579 17.3732C42.3495 17.0915 42.1388 16.8114 41.9259 16.533C42.2178 15.9904 42.4543 15.4198 42.6318 14.8298C42.9791 14.7835 43.326 14.7344 43.6725 14.6826C44.4293 14.5694 45.0001 13.9058 45.0001 13.139V11.2179C45 10.4511 44.4293 9.78745 43.6726 9.67418ZM43.129 12.8716C42.8161 12.917 42.5029 12.9601 42.1894 13.001C41.5644 13.0826 41.0527 13.5262 40.8861 14.131C40.7262 14.711 40.495 15.2689 40.1979 15.792C39.8875 16.3379 39.9354 17.0136 40.3198 17.5135C40.5126 17.7642 40.7037 18.0162 40.8929 18.2697L39.9129 19.2498C39.6594 19.0605 39.4072 18.8695 39.1565 18.6767C38.6568 18.2921 37.981 18.2446 37.435 18.5545C36.9119 18.8517 36.3541 19.0829 35.7742 19.2429C35.1691 19.4096 34.7255 19.9213 34.6442 20.5461C34.6033 20.8597 34.5602 21.1729 34.5147 21.4859H33.1286C33.0832 21.173 33.0401 20.8599 32.9991 20.5465C32.9176 19.9214 32.4741 19.4097 31.8691 19.243C31.2891 19.083 30.7312 18.8518 30.2081 18.5547C29.6621 18.2445 28.9863 18.2922 28.4867 18.6767C28.236 18.8695 27.9838 19.0606 27.7302 19.2498L26.7502 18.2697C26.9394 18.0161 27.1305 17.7639 27.3235 17.5131C27.7076 17.0134 27.7555 16.3378 27.4453 15.7918C27.1481 15.2687 26.917 14.7108 26.757 14.1309C26.5904 13.5259 26.0788 13.0824 25.4537 13.0008C25.1378 12.9596 24.8227 12.9163 24.514 12.8713V11.4853C24.8269 11.4399 25.1401 11.3968 25.4537 11.3559C26.0787 11.2743 26.5904 10.8307 26.7569 10.2259C26.9168 9.64594 27.148 9.08802 27.4452 8.5649C27.7555 8.01894 27.7076 7.34322 27.3234 6.84349C27.1305 6.5928 26.9394 6.34071 26.7502 6.08724L27.7302 5.10712C27.9837 5.29633 28.2358 5.48735 28.4865 5.68015C28.9859 6.06472 29.6617 6.11268 30.2081 5.80236C30.7312 5.50526 31.289 5.27404 31.8689 5.114C32.4741 4.94728 32.9177 4.43561 32.999 3.81076C33.0402 3.49477 33.0837 3.1798 33.1285 2.87112H34.5146C34.56 3.18393 34.6031 3.49706 34.644 3.8105C34.7255 4.43561 35.1691 4.94728 35.7741 5.11391C36.354 5.2739 36.9119 5.50512 37.4351 5.80227C37.9812 6.11259 38.6569 6.06438 39.1564 5.68024C39.4072 5.48738 39.6593 5.29633 39.9129 5.10712L40.8929 6.08724C40.7037 6.3408 40.5126 6.59298 40.3197 6.84375C39.9355 7.34339 39.8877 8.01903 40.1978 8.56499C40.4948 9.08814 40.726 9.64605 40.8861 10.226C41.0527 10.831 41.5643 11.2745 42.1893 11.3561C42.5053 11.3973 42.8203 11.4407 43.129 11.4856V12.8716Z"/>
</mask>
<path d="M21.7765 27.8564L21.7764 27.8563C20.3601 24.437 16.4263 22.8073 13.0064 24.2237C9.58711 25.6401 7.95739 29.5743 9.37381 32.9937C10.0598 34.6502 11.3501 35.9402 13.0065 36.6264C13.8347 36.9694 14.7049 37.1409 15.5751 37.1409C16.4453 37.1409 17.3155 36.9694 18.1438 36.6264C21.5631 35.21 23.1927 31.2759 21.7765 27.8564ZM17.3901 34.8068C16.2198 35.2915 14.9308 35.2915 13.7601 34.8068C12.5898 34.322 11.6783 33.4104 11.1934 32.24C10.1925 29.8239 11.3441 27.044 13.7602 26.0433C14.3335 25.8051 14.9482 25.6823 15.569 25.6822C17.431 25.6822 19.2011 26.7856 19.9569 28.6101C20.9577 31.0261 19.8061 33.8059 17.3901 34.8068ZM43.6726 9.67418C43.326 9.62237 42.9791 9.5733 42.6318 9.52697C42.4543 8.93696 42.2178 8.36634 41.9259 7.82378C42.1388 7.54531 42.3496 7.26517 42.5581 6.9834C43.0132 6.368 42.9473 5.49522 42.4052 4.9533L41.0467 3.59497C40.5045 3.0527 39.6317 2.98696 39.0165 3.44217C38.7347 3.6507 38.4546 3.86139 38.1761 4.07424C37.6335 3.78226 37.0629 3.54574 36.4729 3.36827C36.4266 3.02099 36.3775 2.67407 36.3258 2.32756C36.2126 1.5708 35.549 1 34.7823 1H32.861C32.0943 1 31.4307 1.5708 31.3175 2.32748C31.2658 2.67399 31.2167 3.0209 31.1704 3.36818C30.5804 3.54564 30.0097 3.78216 29.4672 4.07416C29.1888 3.86121 28.9087 3.65051 28.6269 3.44209C28.0115 2.98687 27.1387 3.05262 26.5967 3.5948L25.2384 4.95304C24.6961 5.49513 24.6302 6.368 25.0854 6.98348C25.2938 7.26525 25.5045 7.54535 25.7174 7.82378C25.4255 8.36637 25.189 8.93698 25.0115 9.52697C24.6642 9.57334 24.3173 9.62241 23.9708 9.67418C23.214 9.78745 22.6432 10.451 22.6432 11.2178V13.1389C22.6432 13.9057 23.2138 14.5693 23.9706 14.6825C24.3106 14.7334 24.6598 14.7828 25.0114 14.8297C25.1889 15.4197 25.4254 15.9903 25.7173 16.5329C25.5044 16.8114 25.2936 17.0916 25.0851 17.3733C24.6301 17.9886 24.6959 18.8615 25.238 19.4033L26.5965 20.7618C27.1386 21.3041 28.0114 21.3698 28.6267 20.9146C28.9085 20.7062 29.1886 20.4955 29.467 20.2827C30.0096 20.5746 30.5803 20.8111 31.1703 20.9885C31.2171 21.3401 31.2666 21.6894 31.3174 22.0293C31.4307 22.7861 32.0943 23.3569 32.861 23.3569H34.7823C35.549 23.3569 36.2126 22.7863 36.3258 22.0292C36.3775 21.6827 36.4265 21.3358 36.4729 20.9885C37.0629 20.811 37.6336 20.5745 38.1761 20.2825C38.4545 20.4954 38.7346 20.7062 39.0164 20.9146C39.6316 21.3698 40.5046 21.3041 41.0466 20.7619L42.4051 19.4036C42.9473 18.8615 43.0131 17.9886 42.5579 17.3732C42.3495 17.0915 42.1388 16.8114 41.9259 16.533C42.2178 15.9904 42.4543 15.4198 42.6318 14.8298C42.9791 14.7835 43.326 14.7344 43.6725 14.6826C44.4293 14.5694 45.0001 13.9058 45.0001 13.139V11.2179C45 10.4511 44.4293 9.78745 43.6726 9.67418ZM43.129 12.8716C42.8161 12.917 42.5029 12.9601 42.1894 13.001C41.5644 13.0826 41.0527 13.5262 40.8861 14.131C40.7262 14.711 40.495 15.2689 40.1979 15.792C39.8875 16.3379 39.9354 17.0136 40.3198 17.5135C40.5126 17.7642 40.7037 18.0162 40.8929 18.2697L39.9129 19.2498C39.6594 19.0605 39.4072 18.8695 39.1565 18.6767C38.6568 18.2921 37.981 18.2446 37.435 18.5545C36.9119 18.8517 36.3541 19.0829 35.7742 19.2429C35.1691 19.4096 34.7255 19.9213 34.6442 20.5461C34.6033 20.8597 34.5602 21.1729 34.5147 21.4859H33.1286C33.0832 21.173 33.0401 20.8599 32.9991 20.5465C32.9176 19.9214 32.4741 19.4097 31.8691 19.243C31.2891 19.083 30.7312 18.8518 30.2081 18.5547C29.6621 18.2445 28.9863 18.2922 28.4867 18.6767C28.236 18.8695 27.9838 19.0606 27.7302 19.2498L26.7502 18.2697C26.9394 18.0161 27.1305 17.7639 27.3235 17.5131C27.7076 17.0134 27.7555 16.3378 27.4453 15.7918C27.1481 15.2687 26.917 14.7108 26.757 14.1309C26.5904 13.5259 26.0788 13.0824 25.4537 13.0008C25.1378 12.9596 24.8227 12.9163 24.514 12.8713V11.4853C24.8269 11.4399 25.1401 11.3968 25.4537 11.3559C26.0787 11.2743 26.5904 10.8307 26.7569 10.2259C26.9168 9.64594 27.148 9.08802 27.4452 8.5649C27.7555 8.01894 27.7076 7.34322 27.3234 6.84349C27.1305 6.5928 26.9394 6.34071 26.7502 6.08724L27.7302 5.10712C27.9837 5.29633 28.2358 5.48735 28.4865 5.68015C28.9859 6.06472 29.6617 6.11268 30.2081 5.80236C30.7312 5.50526 31.289 5.27404 31.8689 5.114C32.4741 4.94728 32.9177 4.43561 32.999 3.81076C33.0402 3.49477 33.0837 3.1798 33.1285 2.87112H34.5146C34.56 3.18393 34.6031 3.49706 34.644 3.8105C34.7255 4.43561 35.1691 4.94728 35.7741 5.11391C36.354 5.2739 36.9119 5.50512 37.4351 5.80227C37.9812 6.11259 38.6569 6.06438 39.1564 5.68024C39.4072 5.48738 39.6593 5.29633 39.9129 5.10712L40.8929 6.08724C40.7037 6.3408 40.5126 6.59298 40.3197 6.84375C39.9355 7.34339 39.8877 8.01903 40.1978 8.56499C40.4948 9.08814 40.726 9.64605 40.8861 10.226C41.0527 10.831 41.5643 11.2745 42.1893 11.3561C42.5053 11.3973 42.8203 11.4407 43.129 11.4856V12.8716Z" fill="#508CAE"/>
<path d="M21.7765 27.8564L21.7764 27.8563C20.3601 24.437 16.4263 22.8073 13.0064 24.2237C9.58711 25.6401 7.95739 29.5743 9.37381 32.9937C10.0598 34.6502 11.3501 35.9402 13.0065 36.6264C13.8347 36.9694 14.7049 37.1409 15.5751 37.1409C16.4453 37.1409 17.3155 36.9694 18.1438 36.6264C21.5631 35.21 23.1927 31.2759 21.7765 27.8564ZM17.3901 34.8068C16.2198 35.2915 14.9308 35.2915 13.7601 34.8068C12.5898 34.322 11.6783 33.4104 11.1934 32.24C10.1925 29.8239 11.3441 27.044 13.7602 26.0433C14.3335 25.8051 14.9482 25.6823 15.569 25.6822C17.431 25.6822 19.2011 26.7856 19.9569 28.6101C20.9577 31.0261 19.8061 33.8059 17.3901 34.8068ZM43.6726 9.67418C43.326 9.62237 42.9791 9.5733 42.6318 9.52697C42.4543 8.93696 42.2178 8.36634 41.9259 7.82378C42.1388 7.54531 42.3496 7.26517 42.5581 6.9834C43.0132 6.368 42.9473 5.49522 42.4052 4.9533L41.0467 3.59497C40.5045 3.0527 39.6317 2.98696 39.0165 3.44217C38.7347 3.6507 38.4546 3.86139 38.1761 4.07424C37.6335 3.78226 37.0629 3.54574 36.4729 3.36827C36.4266 3.02099 36.3775 2.67407 36.3258 2.32756C36.2126 1.5708 35.549 1 34.7823 1H32.861C32.0943 1 31.4307 1.5708 31.3175 2.32748C31.2658 2.67399 31.2167 3.0209 31.1704 3.36818C30.5804 3.54564 30.0097 3.78216 29.4672 4.07416C29.1888 3.86121 28.9087 3.65051 28.6269 3.44209C28.0115 2.98687 27.1387 3.05262 26.5967 3.5948L25.2384 4.95304C24.6961 5.49513 24.6302 6.368 25.0854 6.98348C25.2938 7.26525 25.5045 7.54535 25.7174 7.82378C25.4255 8.36637 25.189 8.93698 25.0115 9.52697C24.6642 9.57334 24.3173 9.62241 23.9708 9.67418C23.214 9.78745 22.6432 10.451 22.6432 11.2178V13.1389C22.6432 13.9057 23.2138 14.5693 23.9706 14.6825C24.3106 14.7334 24.6598 14.7828 25.0114 14.8297C25.1889 15.4197 25.4254 15.9903 25.7173 16.5329C25.5044 16.8114 25.2936 17.0916 25.0851 17.3733C24.6301 17.9886 24.6959 18.8615 25.238 19.4033L26.5965 20.7618C27.1386 21.3041 28.0114 21.3698 28.6267 20.9146C28.9085 20.7062 29.1886 20.4955 29.467 20.2827C30.0096 20.5746 30.5803 20.8111 31.1703 20.9885C31.2171 21.3401 31.2666 21.6894 31.3174 22.0293C31.4307 22.7861 32.0943 23.3569 32.861 23.3569H34.7823C35.549 23.3569 36.2126 22.7863 36.3258 22.0292C36.3775 21.6827 36.4265 21.3358 36.4729 20.9885C37.0629 20.811 37.6336 20.5745 38.1761 20.2825C38.4545 20.4954 38.7346 20.7062 39.0164 20.9146C39.6316 21.3698 40.5046 21.3041 41.0466 20.7619L42.4051 19.4036C42.9473 18.8615 43.0131 17.9886 42.5579 17.3732C42.3495 17.0915 42.1388 16.8114 41.9259 16.533C42.2178 15.9904 42.4543 15.4198 42.6318 14.8298C42.9791 14.7835 43.326 14.7344 43.6725 14.6826C44.4293 14.5694 45.0001 13.9058 45.0001 13.139V11.2179C45 10.4511 44.4293 9.78745 43.6726 9.67418ZM43.129 12.8716C42.8161 12.917 42.5029 12.9601 42.1894 13.001C41.5644 13.0826 41.0527 13.5262 40.8861 14.131C40.7262 14.711 40.495 15.2689 40.1979 15.792C39.8875 16.3379 39.9354 17.0136 40.3198 17.5135C40.5126 17.7642 40.7037 18.0162 40.8929 18.2697L39.9129 19.2498C39.6594 19.0605 39.4072 18.8695 39.1565 18.6767C38.6568 18.2921 37.981 18.2446 37.435 18.5545C36.9119 18.8517 36.3541 19.0829 35.7742 19.2429C35.1691 19.4096 34.7255 19.9213 34.6442 20.5461C34.6033 20.8597 34.5602 21.1729 34.5147 21.4859H33.1286C33.0832 21.173 33.0401 20.8599 32.9991 20.5465C32.9176 19.9214 32.4741 19.4097 31.8691 19.243C31.2891 19.083 30.7312 18.8518 30.2081 18.5547C29.6621 18.2445 28.9863 18.2922 28.4867 18.6767C28.236 18.8695 27.9838 19.0606 27.7302 19.2498L26.7502 18.2697C26.9394 18.0161 27.1305 17.7639 27.3235 17.5131C27.7076 17.0134 27.7555 16.3378 27.4453 15.7918C27.1481 15.2687 26.917 14.7108 26.757 14.1309C26.5904 13.5259 26.0788 13.0824 25.4537 13.0008C25.1378 12.9596 24.8227 12.9163 24.514 12.8713V11.4853C24.8269 11.4399 25.1401 11.3968 25.4537 11.3559C26.0787 11.2743 26.5904 10.8307 26.7569 10.2259C26.9168 9.64594 27.148 9.08802 27.4452 8.5649C27.7555 8.01894 27.7076 7.34322 27.3234 6.84349C27.1305 6.5928 26.9394 6.34071 26.7502 6.08724L27.7302 5.10712C27.9837 5.29633 28.2358 5.48735 28.4865 5.68015C28.9859 6.06472 29.6617 6.11268 30.2081 5.80236C30.7312 5.50526 31.289 5.27404 31.8689 5.114C32.4741 4.94728 32.9177 4.43561 32.999 3.81076C33.0402 3.49477 33.0837 3.1798 33.1285 2.87112H34.5146C34.56 3.18393 34.6031 3.49706 34.644 3.8105C34.7255 4.43561 35.1691 4.94728 35.7741 5.11391C36.354 5.2739 36.9119 5.50512 37.4351 5.80227C37.9812 6.11259 38.6569 6.06438 39.1564 5.68024C39.4072 5.48738 39.6593 5.29633 39.9129 5.10712L40.8929 6.08724C40.7037 6.3408 40.5126 6.59298 40.3197 6.84375C39.9355 7.34339 39.8877 8.01903 40.1978 8.56499C40.4948 9.08814 40.726 9.64605 40.8861 10.226C41.0527 10.831 41.5643 11.2745 42.1893 11.3561C42.5053 11.3973 42.8203 11.4407 43.129 11.4856V12.8716Z" stroke="#508CAE" stroke-width="0.6" mask="url(#path-2-outside-1_13_162)"/>
<path d="M31.7565 12.1783C31.7565 13.3169 32.6832 14.2434 33.8216 14.2434C34.9601 14.2434 35.8866 13.3169 35.8866 12.1783L31.7565 12.1783ZM31.7565 12.1783C31.7565 11.0397 32.6831 10.1133 33.8216 10.1133M31.7565 12.1783L33.8216 10.1133M33.8216 10.1133C34.9601 10.1133 35.8865 11.0398 35.8866 12.1783L33.8216 10.1133ZM33.8216 8.0408C31.54 8.0408 29.684 9.89674 29.684 12.1784C29.684 14.4601 31.5399 16.3161 33.8216 16.3161C36.1032 16.3161 37.9592 14.4601 37.9592 12.1784C37.9592 9.89674 36.1032 8.0408 33.8216 8.0408Z" fill="#508CAE" stroke="#508CAE" stroke-width="0.3"/>
</svg>
