<svg width="69" height="69" viewBox="0 0 69 69" fill="none" xmlns="http://www.w3.org/2000/svg">
<path d="M67.1396 30.0116L67.1349 30.0069L38.9884 1.86152C37.7886 0.661025 36.1935 0 34.4969 0C32.8002 0 31.2052 0.660621 30.0049 1.86098L1.87301 29.9921C1.86358 30.0015 1.85414 30.0115 1.84471 30.0211C-0.619074 32.4989 -0.614762 36.5192 1.85684 38.9908C2.98591 40.1205 4.47736 40.7748 6.0719 40.8433C6.13659 40.8496 6.20195 40.8527 6.26772 40.8527H7.38951V61.5662C7.38951 65.6651 10.7244 69 14.8243 69H25.836C26.9521 69 27.8574 68.095 27.8574 66.9785V50.7393C27.8574 48.8688 29.3789 47.3475 31.2494 47.3475H37.7444C39.6149 47.3475 41.1362 48.869 41.1362 50.7393V66.9785C41.1362 68.095 42.0411 69 43.1576 69H54.1695C58.2693 69 61.6042 65.6651 61.6042 61.5663V40.8529H62.6445C64.3407 40.8529 65.9357 40.1922 67.1365 38.992C69.6108 36.5162 69.6117 32.489 67.1396 30.0116Z" fill="#508CAE"/>
</svg>
