<svg width="69" height="69" viewBox="0 0 69 69" fill="none" xmlns="http://www.w3.org/2000/svg">
<path d="M37.2207 3.62932L37.2201 3.62879C36.4891 2.89729 35.53 2.5 34.4969 2.5C33.4634 2.5 32.5042 2.89718 31.7728 3.62865L31.7727 3.62877L3.64951 31.7511L3.64504 31.7557L3.62505 31.7762L3.6175 31.7838L3.61748 31.7838C2.12478 33.285 2.12786 35.7263 3.62461 37.223L3.62513 37.2236C4.31054 37.9094 5.20881 38.3039 6.17914 38.3456L6.24744 38.3485L6.29034 38.3527H7.38951H9.88951V40.8527V61.5662C9.88951 64.2842 12.1049 66.5 14.8243 66.5H25.3574V50.7393C25.3574 47.488 27.9984 44.8475 31.2494 44.8475H37.7444C40.9958 44.8475 43.6362 47.4884 43.6362 50.7393V66.5H54.1695C56.8888 66.5 59.1042 64.2841 59.1042 61.5663V40.8529V38.3529H61.6042H62.6445C63.6769 38.3529 64.636 37.9561 65.3682 37.2248C65.3683 37.2246 65.3685 37.2245 65.3686 37.2243M37.2207 3.62932L65.3691 37.2238C65.369 37.224 65.3688 37.2242 65.3686 37.2243M37.2207 3.62932L65.3668 31.7743L65.3671 31.7747M37.2207 3.62932L65.3671 31.7747M65.3686 37.2243C66.867 35.7247 66.8679 33.2793 65.3706 31.7782M65.3686 37.2243L65.3706 31.7782M65.3706 31.7782C65.3704 31.778 65.3702 31.7777 65.3699 31.7775M65.3706 31.7782L65.3699 31.7775M65.3699 31.7775L65.3671 31.7747M65.3699 31.7775L65.3671 31.7747" fill="white" stroke="#55565A" stroke-width="5"/>
</svg>
