<svg width="41" height="41" viewBox="0 0 41 41" fill="none" xmlns="http://www.w3.org/2000/svg">
<path d="M38.8372 18.8929C39.7213 19.7791 39.7209 21.2227 38.8364 22.1082C38.8363 22.1083 38.8362 22.1084 38.8361 22.1085C38.836 22.1086 38.8359 22.1087 38.8358 22.1088C38.4035 22.5406 37.8371 22.7749 37.2273 22.7749H36.6091H35.1091V24.2749V36.5829C35.1091 38.1897 33.7992 39.5 32.1909 39.5H25.9457V30.1494C25.9457 28.2096 24.3701 26.634 22.4301 26.634H18.5704C16.6306 26.634 15.0547 28.2094 15.0547 30.1494V39.5H8.80951C7.20129 39.5 5.89131 38.1897 5.89131 36.5828V24.2748V22.7748H4.39131H3.73883L3.71364 22.7723L3.67265 22.7706C3.09955 22.746 2.56913 22.513 2.16437 22.108L2.16406 22.1077C1.28026 21.224 1.27844 19.7826 2.15986 18.8963L2.16435 18.8918L2.17637 18.8795L2.17892 18.8769L2.17995 18.8758L18.8914 2.16653L18.8915 2.16645C19.3234 1.73451 19.8898 1.5 20.5003 1.5C21.1104 1.5 21.6767 1.73458 22.1085 2.16654L22.1088 2.16685L38.8352 18.8909L38.8355 18.8912L38.8372 18.8929ZM38.8372 18.8929L38.8383 18.894L39.8986 17.833L38.8369 18.8926C38.837 18.8927 38.8371 18.8928 38.8372 18.8929Z" stroke="#55565A" stroke-width="3"/>
</svg>
