<svg width="70" height="74" viewBox="0 0 70 74" fill="none" xmlns="http://www.w3.org/2000/svg">
<circle cx="35" cy="35" r="35" fill="#FDEFC8"/>
<path d="M38.2012 11.8398C38.8848 11.8398 39.4658 12.1133 39.9443 12.6602C40.4229 13.207 40.6621 13.8451 40.6621 14.5742C40.6621 15.668 40.3089 16.625 39.6025 17.4453C38.8962 18.2656 38.0189 18.6758 36.9707 18.6758C36.2415 18.6758 35.6719 18.391 35.2617 17.8213C34.8516 17.2516 34.6465 16.5566 34.6465 15.7363C34.6465 14.6882 34.9883 13.7767 35.6719 13.002C36.3555 12.2272 37.1986 11.8398 38.2012 11.8398ZM36.2188 26.2637C36.9479 26.2637 37.5176 26.5941 37.9277 27.2549C38.3379 27.9157 38.543 28.7702 38.543 29.8184C38.543 30.7526 38.4062 31.9603 38.1328 33.4414L35.125 48.7539C34.9883 49.3008 34.9199 49.8704 34.9199 50.4629C34.9199 51.6022 35.1478 52.1719 35.6035 52.1719C36.1732 52.1719 36.8568 51.7731 37.6543 50.9756C38.4518 50.1553 39.1354 49.4603 39.7051 48.8906L40.1152 48.4121C40.2064 48.4121 40.3773 48.6286 40.6279 49.0615C40.8786 49.4945 41.0039 49.8021 41.0039 49.9844C40.6165 50.6452 39.9102 51.4883 38.8848 52.5137C37.8822 53.5391 36.7884 54.4505 35.6035 55.248C34.4186 56.0228 33.3477 56.4102 32.3906 56.4102C31.6615 56.4102 31.0918 56.0798 30.6816 55.4189C30.2715 54.7581 30.0664 53.9036 30.0664 52.8555C30.0664 52.1719 30.2259 50.9642 30.5449 49.2324L33.3477 34.9453C33.5755 33.6009 33.6895 32.6895 33.6895 32.2109C33.6895 31.0716 33.4616 30.502 33.0059 30.502C32.7324 30.502 32.3564 30.6842 31.8779 31.0488C31.4222 31.4134 30.9779 31.8236 30.5449 32.2793C30.112 32.7122 29.793 33.054 29.5879 33.3047L29.2461 33.7148C29.1549 33.7148 28.984 33.4984 28.7334 33.0654C28.4827 32.6325 28.3574 32.3249 28.3574 32.1426C28.722 31.5273 29.3828 30.764 30.3398 29.8525C31.2969 28.9183 32.3223 28.0866 33.416 27.3574C34.5098 26.6283 35.444 26.2637 36.2188 26.2637Z" fill="#C89C32"/>
</svg>
