<svg width="310" height="309" viewBox="0 0 310 309" fill="none" xmlns="http://www.w3.org/2000/svg">
<path d="M267.7 97L231.7 89.5C229.5 89.1 227.2 89.4 225.1 90.4L207.4 99.1C205.2 100.2 202.7 100.4 200.3 99.8L182.5 95C180.7 94.5 178.9 94.5 177.1 95L94.9999 118C94.7332 118.133 94.4332 118.233 94.0999 118.3L46.0999 136.8L56.9999 156.9L69.8999 164C71.5999 165 73.5999 165.4 75.5999 165.2L93.7999 163.8C96.0999 163.7 98.3999 164.2 100.3 165.5L107.7 170.5C110.2 172.2 113.4 172.7 116.3 171.8L134.5 166.3C136.1 165.8 137.9 165.7 139.6 166L160.6 170.6L162.2 167.1C163.3 164.6 165.3 162.7 167.9 161.8L189.7 153.7C191.9 152.8 193.8 151.3 195 149.2L210.4 122.2C213 117.8 218.5 115.9 223.2 118L231 121.4C234.9 123 239.4 122.1 242.3 119.1L254.5 106.6C256.4 104.6 259 103.5 261.8 103.5H295.1C296.9 103.5 298.6 103 300.1 102.2C298.7 98.3333 297.167 94.5333 295.5 90.8L272.3 96.9C270.8 97.3 269.2 97.4 267.7 97Z" fill="white"/>
<path d="M255 262.9L213.2 209.8C210.5 206.3 206.1 204.7 201.8 205.5L168.6 212.1C165.2 212.8 161.7 211.9 159 209.7L153.3 202.8C152 201.3 149.7 201 148.2 202.3C148 202.5 144.6 206.7 144.5 206.9C144.5 206.9 140.7 213.3 135.2 212.4C134.6 212.3 134 212.2 133.3 211.9L107.5 197.4C106.4 196.8 105.3 196.2 104.1 195.6C98.5 192.7 92.2 191.5 86 192.1C85.7333 192.1 85.4666 192.133 85.2 192.2C76.2 192.7 67.4 194.9 59.1 198.5L49.5 202.7C46.2 203.6 42.7 203 39.9 201.2L30.9 195.2C28.4 193.5 25.3 192.8 22.3 193.4L7.49996 196.1C6.59996 196.3 5.99996 197.2 6.29996 198.1C11.3 215.2 19.3 231.1 29.5 245.2C29.6333 245.333 29.8 245.467 30 245.6L67.8 266.3C69 266.967 70.2333 267.4 71.5 267.6L118.8 275.4C119.667 275.533 120.533 275.8 121.4 276.2L181.4 301.2C185.5 302.9 190.1 302.2 193.5 299.4L209.5 285.7C210.367 285.033 211.3 284.467 212.3 284L254.4 265.2C255.3 264.8 255.6 263.7 255 262.9Z" fill="#FEFEFE"/>
<path d="M233.5 45.2L212.2 28.4C209.7 26.5 206.4 25.8 203.3 26.6L123.4 47.8C122.533 48 121.667 48.1 120.8 48.1H58.5999H42.2999C21.9999 69.5 7.7999 96.7 2.3999 126.9L3.9999 128.2C5.7999 129.8 8.0999 130.7 10.5999 130.7H36.6999C40.3999 130.7 43.8999 132.7 45.5999 135.9L46.0999 136.8L94.0999 118.3C94.4332 118.233 94.7332 118.133 94.9999 118L177.1 95C178.9 94.5 180.7 94.5 182.5 95L200.3 99.8C202.7 100.4 205.2 100.2 207.4 99.1L225.1 90.4C227.2 89.4 229.5 89.1 231.7 89.5L267.7 97C269.2 97.4 270.8 97.3 272.3 96.9L295.5 90.8C288.9 76 279.9 62.4 269.2 50.6L238.7 47.3C236.8 47.1 235 46.4 233.5 45.2Z" fill="#508CAE"/>
<path d="M305.6 172.1L283.8 184.1C281.5 185.4 278.7 185.8 276.1 185.3L251 180.7C249.7 180.4 248.3 180.4 246.9 180.7L232.4 183.2C231.2 183.4 230.033 183.433 228.9 183.3L205.9 180.4C205.567 180.333 205.233 180.267 204.9 180.2L160.6 170.6L139.9 166.1C138 165.7 136 165.8 134.1 166.4L117 171.6C113.7 172.6 110 172.1 107.1 170.1L100.7 165.8C98.5 164.4 95.9 163.7 93.3 163.9L76.1 165.2C73.8 165.4 71.5 164.9 69.5 163.8L57 156.9L34.5 144.4C33.1 143.6 31.6 143.2 30 143.1C29.7333 143.1 29.5 143.133 29.3 143.2C26.5 144.3 5.8 152.3 1 154.1C0.4 154.4 0 155 0 155.6C0.1 169.2 2 182.5 5.4 195.1C5.6 195.8 6.4 196.3 7.2 196.2L7.5 196.1L22.3 193.4C25.3 192.8 28.4 193.5 30.9 195.2L39.9 201.2C42.7 203 46.2 203.6 49.5 202.7L59.1 198.5C67.4 194.9 76.2 192.7 85.2 192.2C85.4667 192.133 85.7333 192.1 86 192.1C92.2 191.5 98.5 192.7 104.1 195.6C105.3 196.2 106.4 196.8 107.5 197.4L133.3 211.9C134 212.2 134.6 212.3 135.2 212.4C140.7 213.3 144.5 206.9 144.5 206.9C144.6 206.7 148 202.5 148.2 202.3C149.7 201 152 201.3 153.3 202.8L159 209.7C161.7 211.9 165.2 212.8 168.6 212.1L201.8 205.5C206.1 204.7 210.5 206.3 213.2 209.8L255.5 263.5C255.9 264.1 256.7 264.2 257.3 264L259.3 263.1C260.9 262.4 262.6 262.1 264.3 262.3C264.8 262.3 265.3 262.2 265.6 261.8C288.3 238.4 303.7 207.8 307.9 173.7C308.1 172.4 306.7 171.5 305.6 172.1Z" fill="#508CAE"/>
<path d="M46.1 136.8L45.6 135.9C43.9 132.7 40.4 130.7 36.7 130.7H10.6C8.1 130.7 5.8 129.8 4 128.2L2.4 126.9C1.66667 130.967 1.1 135.067 0.7 139.2C0.233333 144.2 0 149.233 0 154.3C0 154.367 0 154.433 0 154.5L29.6 143.1C31.3 143.1 33 143.5 34.5 144.4L57 156.9L46.1 136.8Z" fill="#81B2C6"/>
<path d="M235.5 22.6C228.9 18.6 222.1 15 214.9 12C196.4 4.1 176 -0.300003 154.6 -0.300003C110.3 -0.300003 70.4 18.3 42.3 48.1H58.6H120.8C121.667 48.1 122.533 48 123.4 47.8L203.3 26.6C206.4 25.8 209.7 26.5 212.2 28.4L233.5 45.2C235 46.4 236.8 47.1 238.7 47.3L269.2 50.6C259.3 39.7 248 30.3 235.5 22.6Z" fill="#81B2C6"/>
<path d="M261.8 103.5C259 103.5 256.4 104.6 254.5 106.6L242.3 119.1C239.4 122.1 234.9 123 231 121.4L223.2 118C218.5 115.9 213 117.8 210.4 122.2L195 149.2C193.8 151.3 191.9 152.8 189.7 153.7L167.9 161.8C165.3 162.7 163.3 164.6 162.2 167.1L160.6 170.6L204.9 180.2C205.233 180.267 205.533 180.333 205.8 180.4L229.1 183.3C230.1 183.433 231.1 183.433 232.1 183.3L247.2 180.6C248.4 180.4 249.6 180.4 250.8 180.6L276.6 185.4C278.9 185.9 281.3 185.5 283.4 184.4L308.3 170.7C308.833 165.3 309.1 159.833 309.1 154.3C309.1 136 305.9 118.4 300.1 102.2C298.6 103 296.9 103.5 295.1 103.5H261.8Z" fill="#81B2C6"/>
<path d="M259.3 263.1L256.2 264.4L212.1 284.1C211.233 284.5 210.433 285 209.7 285.6L192.7 300C189.8 302.4 185.8 303.1 182.3 301.6L121.2 276.1C120.467 275.767 119.733 275.533 119 275.4L71.3 267.5C70.1666 267.367 69.0999 267 68.0999 266.4L29.7 245.4C57.9 283.9 103.3 308.9 154.6 308.9C194.9 308.9 231.6 293.4 259.1 268.1C261.167 266.233 263.167 264.333 265.1 262.4C263.1 262.1 261.1 262.3 259.3 263.1Z" fill="#81B2C6"/>
</svg>
