<svg width="774" height="246" viewBox="0 0 774 246" fill="none" xmlns="http://www.w3.org/2000/svg">
<path d="M315.754 77.7669L300.336 43.6068L294.744 50.1063V77.7669H276.908V1.28467H294.744V29.4743L315.3 1.28467H333.514L312.428 30.3812L335.025 77.7669H315.754Z" fill="#FEFEFE"/>
<path d="M341.903 77.7669V1.28467H360.116V77.7669H341.903Z" fill="#FEFEFE"/>
<path d="M373.418 77.7669V1.28467H391.631V61.5182H417.403V77.7669H373.418Z" fill="#FEFEFE"/>
<path fill-rule="evenodd" clip-rule="evenodd" d="M494.565 77.7669L491.391 62.1984H471.741L468.34 77.7669H450.656L471.061 1.28467H493.205L512.93 77.7669H494.565ZM481.944 16.7776L475.066 47.31H488.217L481.944 16.7776Z" fill="#FEFEFE"/>
<path d="M557.368 77.7669L536.812 33.8576V77.7669H520.109V1.28467H536.585L557.217 45.1939V1.28467H573.919V77.7669H557.368Z" fill="#FEFEFE"/>
<path d="M425.262 77.7669V1.28467H443.476V77.7669H425.262Z" fill="#FEFEFE"/>
<path fill-rule="evenodd" clip-rule="evenodd" d="M366.087 164.905C356.161 164.905 348.679 161.555 343.641 154.854C338.603 148.153 336.083 138.227 336.083 125.077C336.083 111.776 338.678 101.699 343.868 94.8471C349.057 87.9949 356.665 84.5688 366.692 84.5688C376.617 84.5688 384.099 87.9194 389.137 94.6204C394.176 101.372 396.695 111.297 396.695 124.397C396.695 137.698 394.1 147.775 388.911 154.627C383.721 161.479 376.113 164.905 366.087 164.905ZM366.314 148.506C370.395 148.556 373.342 146.717 375.156 142.989C376.919 139.26 377.801 133.139 377.801 124.624C377.801 116.21 376.919 110.164 375.156 106.486C373.342 102.808 370.445 100.969 366.465 100.969C362.384 100.969 359.436 102.833 357.622 106.561C355.859 110.239 354.977 116.336 354.977 124.85C354.977 133.265 355.859 139.311 357.622 142.989C359.436 146.717 362.333 148.556 366.314 148.506Z" fill="#FEFEFE"/>
<path fill-rule="evenodd" clip-rule="evenodd" d="M442.342 163.016L432.215 135.658C431.812 135.759 430.88 135.809 429.419 135.809H424.507V163.016H407.351V86.4583H431.611C440.025 86.4583 446.549 88.5744 451.185 92.8066C455.87 97.0388 458.213 102.934 458.213 110.491C458.213 114.572 457.332 118.326 455.568 121.752C453.805 125.178 451.286 128.075 448.011 130.443L461.312 163.016H442.342ZM430.628 121.223C437.581 121.223 441.058 117.797 441.058 110.945C441.058 104.344 437.632 101.044 430.779 101.044H424.658V121.223H430.628Z" fill="#FEFEFE"/>
<path d="M506.506 163.016L485.949 119.107V163.016H469.247V86.4583H485.723L506.279 130.443V86.4583H522.981V163.016H506.506Z" fill="#FEFEFE"/>
<path d="M536.282 163.016V86.4583H582.383V102.48H554.496V116.084H578.983V132.03H554.496V147.07H582.383V163.016H536.282Z" fill="#FEFEFE"/>
<path d="M604.225 163.016V102.783H587.749V86.4583H638.989V102.783H622.438V163.016H604.225Z" fill="#FEFEFE"/>
<path d="M292.099 86.4583V102.783H308.499V137.32C308.499 141.25 307.944 144.097 306.836 145.86C305.778 147.624 304.065 148.506 301.697 148.506C299.278 148.556 297.515 147.599 296.406 145.634C295.298 143.669 294.643 140.394 294.441 135.809H276.606C277.21 155.207 285.498 164.905 301.47 164.905C309.431 164.956 315.628 162.437 320.062 157.348C324.495 152.259 326.712 145.18 326.712 136.111V86.4583H292.099Z" fill="#FEFEFE"/>
<path d="M280.384 220H310.01V217.884H280.384V183.195H311.748V181.003H278.042V226.499L280.384 226.575V220Z" fill="#E6E7E8"/>
<path d="M321.951 219.32C321.951 206.824 323.891 197.378 327.77 190.979C331.599 184.53 337.293 181.305 344.85 181.305C352.357 181.305 358.025 184.53 361.855 190.979C365.684 197.378 367.598 206.824 367.598 219.32C367.598 223.174 367.372 226.575 367.069 229.825L369.488 229.9C369.866 226.65 370.092 223.174 370.092 219.32C370.092 206.119 367.951 196.118 363.668 189.316C359.386 182.514 353.113 179.114 344.85 179.114C336.436 179.114 330.113 182.514 325.881 189.316C321.598 196.118 319.457 206.119 319.457 219.32C319.457 222.443 319.583 225.366 319.835 228.086L322.329 228.162C322.077 225.391 321.951 222.443 321.951 219.32Z" fill="#E6E7E8"/>
<path d="M385.056 181.003H382.714V230.429L385.056 230.505V181.003Z" fill="#E6E7E8"/>
<path d="M425.867 232.016V181.003H423.524V231.941L425.867 232.016Z" fill="#E6E7E8"/>
<path d="M484.438 181.003H482.095V234.132L484.438 234.208V181.003Z" fill="#E6E7E8"/>
<path d="M443.703 183.95L468.945 233.679L471.439 233.755L444.685 181.003H441.36V232.621L443.703 232.696V183.95Z" fill="#E6E7E8"/>
<path d="M503.558 183.195H516.18C524.997 183.195 531.698 186.268 536.283 192.415C540.867 198.562 543.16 207.605 543.16 219.546C543.16 226.046 542.404 231.638 541.044 236.4L543.538 236.475C544.949 231.588 545.654 225.869 545.654 219.32C545.654 206.875 543.16 197.378 538.172 190.828C533.184 184.278 525.929 181.003 516.406 181.003H501.14V234.888L503.558 234.964V183.195Z" fill="#E6E7E8"/>
<path fill-rule="evenodd" clip-rule="evenodd" d="M559.862 237.08L557.519 237.004L574.221 181.003H576.866L593.946 238.365L591.452 238.289L589.79 232.696H561.222L559.862 237.08ZM575.431 183.875L561.676 230.505H589.034L575.431 183.875Z" fill="#E6E7E8"/>
<path d="M618.962 183.195H639.594V181.003H595.987V183.195H616.619V239.196L618.962 239.271V183.195Z" fill="#E6E7E8"/>
<path d="M651.837 181.003H649.494V240.405L651.837 240.556V181.003Z" fill="#E6E7E8"/>
<path d="M668.237 219.32C668.237 206.824 670.177 197.378 674.056 190.979C677.936 184.53 683.629 181.305 691.136 181.305C698.643 181.305 704.312 184.53 708.141 190.979C711.97 197.378 713.884 206.824 713.884 219.32C713.884 228.943 712.751 236.752 710.484 242.748L713.053 242.824C715.245 236.626 716.379 228.842 716.379 219.32C716.379 206.119 714.237 196.118 709.955 189.316C705.722 182.514 699.45 179.114 691.136 179.114C682.773 179.114 676.45 182.514 672.167 189.316C667.935 196.118 665.819 206.119 665.819 219.32C665.819 228.011 666.725 235.266 668.539 241.161L671.109 241.236C669.219 235.493 668.237 228.162 668.237 219.32Z" fill="#E6E7E8"/>
<path d="M773.362 181.003H771.02V245.015L773.362 245.091V181.003Z" fill="#E6E7E8"/>
<path d="M732.703 183.95L763.462 244.713L765.956 244.789L733.61 181.003H730.284V243.504L732.703 243.579V183.95Z" fill="#E6E7E8"/>
<path d="M202.315 73.5348L175.108 67.8666C173.445 67.5643 171.707 67.791 170.12 68.5468L156.743 75.1218C155.081 75.9532 153.191 76.1043 151.377 75.6509L137.925 72.0233C136.565 71.6454 135.204 71.6454 133.844 72.0233L71.7965 89.4056C71.595 89.5064 71.3683 89.5819 71.1164 89.6323L34.8402 103.614L43.0779 118.804L52.8271 124.17C54.1119 124.926 55.6234 125.228 57.1349 125.077L70.8896 124.019C72.6279 123.944 74.3661 124.321 75.802 125.304L81.3946 129.083C83.284 130.367 85.7024 130.745 87.8941 130.065L101.649 125.908C102.858 125.531 104.218 125.455 105.503 125.682L121.374 129.158L122.583 126.513C123.414 124.624 124.926 123.188 126.891 122.508L143.366 116.386C145.029 115.706 146.465 114.572 147.372 112.985L159.01 92.5797C160.975 89.2544 165.132 87.8185 168.684 89.4056L174.579 91.9751C177.526 93.1844 180.927 92.5042 183.119 90.2369L192.339 80.79C193.775 79.2785 195.74 78.4472 197.856 78.4472H223.023C224.383 78.4472 225.668 78.0693 226.802 77.4647C225.743 74.5424 224.585 71.6706 223.325 68.8491L205.792 73.4592C204.658 73.7615 203.449 73.8371 202.315 73.5348Z" fill="white"/>
<path d="M192.717 198.914L161.127 158.784C159.086 156.139 155.761 154.929 152.511 155.534L127.42 160.522C124.85 161.051 122.205 160.371 120.165 158.708L115.857 153.493C114.874 152.36 113.136 152.133 112.003 153.116C111.851 153.267 109.282 156.441 109.206 156.592C109.206 156.592 106.334 161.429 102.178 160.749C101.724 160.673 101.271 160.598 100.742 160.371L81.2435 149.412C80.4121 148.959 79.5808 148.506 78.6739 148.052C74.4417 145.86 69.6805 144.953 64.9948 145.407C64.7932 145.407 64.5917 145.432 64.3902 145.482C57.5884 145.86 50.9378 147.523 44.665 150.244L37.4098 153.418C34.9158 154.098 32.2707 153.645 30.1546 152.284L23.3528 147.75C21.4634 146.465 19.1206 145.936 16.8533 146.389L5.66815 148.43C4.98797 148.581 4.53452 149.261 4.76125 149.941C8.54001 162.865 14.586 174.881 22.2947 185.537C22.3955 185.638 22.5214 185.739 22.6726 185.84L51.2401 201.484C52.147 201.988 53.0791 202.315 54.0364 202.466L89.7835 208.361C90.4385 208.462 91.0935 208.663 91.7484 208.966L137.094 227.86C140.192 229.144 143.669 228.615 146.238 226.499L158.33 216.145C158.985 215.642 159.691 215.213 160.446 214.861L192.264 200.652C192.944 200.35 193.171 199.519 192.717 198.914Z" fill="#FEFEFE"/>
<path d="M176.468 34.3868L160.371 21.6902C158.481 20.2542 155.987 19.7252 153.645 20.3298L93.2599 36.3518C92.6049 36.5029 91.95 36.5785 91.295 36.5785H44.2871H31.9683C16.6265 52.7516 5.89485 73.3081 1.81378 96.1319L3.02299 97.1143C4.38334 98.3236 6.12158 99.0037 8.01096 99.0037H27.7361C30.5324 99.0037 33.1775 100.515 34.4623 102.934L34.8402 103.614L71.1163 89.6324C71.3683 89.582 71.595 89.5064 71.7965 89.4057L133.844 72.0233C135.204 71.6455 136.565 71.6455 137.925 72.0233L151.377 75.651C153.191 76.1044 155.081 75.9533 156.743 75.1219L170.12 68.5469C171.707 67.7911 173.445 67.5644 175.108 67.8667L202.315 73.5348C203.449 73.8372 204.658 73.7616 205.792 73.4593L223.325 68.8492C218.337 57.664 211.535 47.3858 203.449 38.4679L180.398 35.9739C178.962 35.8228 177.602 35.2937 176.468 34.3868Z" fill="#939598"/>
<path d="M230.958 130.292L214.483 139.361C212.745 140.343 210.628 140.646 208.663 140.268L189.694 136.791C188.712 136.565 187.654 136.565 186.595 136.791L175.637 138.681C174.73 138.832 173.848 138.857 172.992 138.756L155.61 136.565C155.358 136.514 155.106 136.464 154.854 136.413L121.374 129.158L105.73 125.757C104.294 125.455 102.782 125.531 101.347 125.984L88.4231 129.914C85.9291 130.67 83.1329 130.292 80.9412 128.78L76.1043 125.531C74.4417 124.473 72.4767 123.944 70.5118 124.095L57.5128 125.077C55.7746 125.228 54.0364 124.85 52.5248 124.019L43.0779 118.804L26.0735 109.357C25.0154 108.753 23.8818 108.451 22.6726 108.375C22.4711 108.375 22.2947 108.4 22.1436 108.451C20.0275 109.282 4.38337 115.328 0.755753 116.688C0.302301 116.915 0 117.368 0 117.822C0.0755753 128.1 1.51151 138.152 4.08107 147.674C4.23222 148.203 4.83682 148.581 5.44142 148.505L5.66815 148.43L16.8533 146.389C19.1206 145.936 21.4634 146.465 23.3528 147.75L30.1546 152.284C32.2707 153.645 34.9158 154.098 37.4098 153.418L44.665 150.244C50.9378 147.523 57.5884 145.86 64.3902 145.482C64.5917 145.432 64.7932 145.407 64.9948 145.407C69.6805 144.953 74.4417 145.86 78.6739 148.052C79.5808 148.506 80.4121 148.959 81.2435 149.412L100.742 160.371C101.271 160.598 101.724 160.673 102.178 160.749C106.334 161.429 109.206 156.592 109.206 156.592C109.282 156.441 111.851 153.267 112.003 153.116C113.136 152.133 114.874 152.36 115.857 153.493L120.165 158.708C122.205 160.371 124.85 161.051 127.42 160.522L152.511 155.534C155.761 154.929 159.086 156.139 161.127 158.784L193.095 199.368C193.397 199.821 194.002 199.897 194.455 199.746L195.967 199.065C197.176 198.536 198.461 198.31 199.746 198.461C200.123 198.461 200.501 198.385 200.728 198.083C217.884 180.398 229.522 157.272 232.696 131.501C232.848 130.519 231.79 129.838 230.958 130.292Z" fill="#939598"/>
<path d="M34.8402 103.614L34.4623 102.934C33.1776 100.515 30.5324 99.0037 27.7361 99.0037H8.01098C6.1216 99.0037 4.38337 98.3235 3.02301 97.1143L1.81381 96.1318C1.25959 99.2052 0.831329 102.304 0.529027 105.428C0.176342 109.206 0 113.01 0 116.839C0 116.89 0 116.94 0 116.991L22.3703 108.375C23.6551 108.375 24.9399 108.677 26.0735 109.358L43.0779 118.804L34.8402 103.614Z" fill="#BBBDBF"/>
<path d="M177.98 17.3067C172.992 14.2837 167.853 11.563 162.411 9.29576C148.43 3.32531 133.013 0 116.839 0C83.3595 0 53.205 14.057 31.9683 36.5785H44.2871H91.2949C91.9499 36.5785 92.6049 36.5029 93.2599 36.3517L153.645 20.3298C155.987 19.7252 158.481 20.2542 160.371 21.6901L176.468 34.3868C177.602 35.2937 178.962 35.8227 180.398 35.9739L203.449 38.4678C195.967 30.2301 187.427 23.126 177.98 17.3067Z" fill="#BBBDBF"/>
<path d="M197.856 78.4472C195.74 78.4472 193.775 79.2785 192.339 80.79L183.119 90.237C180.927 92.5042 177.526 93.1844 174.579 91.9752L168.684 89.4056C165.132 87.8185 160.975 89.2545 159.01 92.5798L147.372 112.985C146.465 114.572 145.029 115.706 143.366 116.386L126.891 122.508C124.926 123.188 123.414 124.624 122.583 126.513L121.374 129.158L154.854 136.413C155.106 136.464 155.332 136.514 155.534 136.565L173.143 138.756C173.899 138.857 174.655 138.857 175.41 138.756L186.822 136.716C187.729 136.565 188.636 136.565 189.543 136.716L209.041 140.343C210.78 140.721 212.593 140.419 214.18 139.588L232.999 129.234C233.402 125.153 233.603 121.021 233.603 116.839C233.603 103.009 231.185 89.7079 226.802 77.4647C225.668 78.0693 224.383 78.4472 223.023 78.4472H197.856Z" fill="#BBBDBF"/>
<path d="M195.967 199.065L193.624 200.048L160.295 214.936C159.64 215.239 159.036 215.616 158.481 216.07L145.634 226.953C143.442 228.767 140.419 229.296 137.774 228.162L91.5973 208.89C91.0431 208.638 90.4888 208.462 89.9346 208.361L53.8852 202.391C53.0287 202.29 52.2225 202.013 51.4668 201.559L22.4459 185.689C43.7581 214.785 78.0693 233.679 116.839 233.679C147.296 233.679 175.032 221.965 195.816 202.844C197.378 201.433 198.889 199.998 200.35 198.536C198.839 198.31 197.327 198.461 195.967 199.065Z" fill="#BBBDBF"/>
</svg>
