<svg width="77" height="84" viewBox="0 0 77 84" fill="none" xmlns="http://www.w3.org/2000/svg">
<path opacity="0.6" d="M27.0558 5.05714L27.057 5.05593C28.5608 3.5504 30.5796 2.71326 33.8176 2.2778C37.0985 1.83656 41.3992 1.83337 47.3333 1.83337H51.4999C57.434 1.83337 61.7347 1.83656 65.0156 2.2778C68.2535 2.71326 70.2723 3.5504 71.7762 5.05593L71.7774 5.05714C73.2829 6.56096 74.12 8.57975 74.5555 11.8177C74.9967 15.0986 74.9999 19.3993 74.9999 25.3334V58.6667C74.9999 64.6008 74.9967 68.9015 74.5555 72.1824C74.12 75.4203 73.2829 77.4391 71.7774 78.9429L71.7762 78.9442C70.2723 80.4497 68.2535 81.2868 65.0156 81.7223C61.7347 82.1635 57.434 82.1667 51.4999 82.1667H47.3333C41.3992 82.1667 37.0985 82.1635 33.8176 81.7223C30.5796 81.2868 28.5608 80.4497 27.057 78.9441L27.0558 78.9429C25.5503 77.4391 24.7131 75.4203 24.2777 72.1824C23.8364 68.9015 23.8333 64.6008 23.8333 58.6667V25.3334C23.8333 19.3993 23.8364 15.0986 24.2777 11.8177C24.7131 8.57975 25.5503 6.56096 27.0558 5.05714Z" stroke="#508CAE" stroke-width="3"/>
<path opacity="0.4" d="M22.9208 10.75H22.3333C12.5125 10.75 7.6 10.75 4.55 13.8C1.5 16.85 1.5 21.7625 1.5 31.5833V52.4167C1.5 62.2375 1.5 67.1458 4.55 70.2C7.6 73.25 12.5125 73.25 22.3333 73.25H22.9208" stroke="#508CAE" stroke-width="3"/>
<path fill-rule="evenodd" clip-rule="evenodd" d="M7.6251 39.7917C7.03989 40.3776 6.71118 41.1719 6.71118 42C6.71118 42.8282 7.03989 43.6224 7.6251 44.2084L15.9584 52.5417C16.5508 53.0937 17.3344 53.3942 18.1439 53.3799C18.9535 53.3656 19.726 53.0377 20.2985 52.4651C20.8711 51.8926 21.199 51.1201 21.2133 50.3105C21.2276 49.501 20.9271 48.7174 20.3751 48.125L17.3751 45.125H47.3334C48.1622 45.125 48.9571 44.7958 49.5431 44.2097C50.1292 43.6237 50.4584 42.8288 50.4584 42C50.4584 41.1712 50.1292 40.3764 49.5431 39.7903C48.9571 39.2043 48.1622 38.875 47.3334 38.875H17.3751L20.3751 35.875C20.6821 35.5889 20.9284 35.2439 21.0992 34.8606C21.27 34.4773 21.3618 34.0635 21.3692 33.6439C21.3766 33.2243 21.2994 32.8075 21.1423 32.4184C20.9851 32.0293 20.7512 31.6758 20.4544 31.379C20.1577 31.0823 19.8042 30.8484 19.4151 30.6912C19.026 30.534 18.6092 30.4568 18.1896 30.4642C17.77 30.4716 17.3562 30.5635 16.9729 30.7343C16.5895 30.9051 16.2445 31.1513 15.9584 31.4584L7.6251 39.7917Z" fill="#508CAE" stroke="#508CAE"/>
</svg>
