<svg width="30" height="50" viewBox="0 0 30 50" fill="none" xmlns="http://www.w3.org/2000/svg">
<path d="M14.5999 5.50003H19.3999C19.7869 5.50003 20.0999 5.81298 20.0999 6.20003C20.0999 6.58708 19.7869 6.90003 19.3999 6.90003H14.5999C14.2129 6.90003 13.8999 6.58708 13.8999 6.20003C13.8999 5.81299 14.2129 5.50003 14.5999 5.50003Z" fill="#508CAE" stroke="#508CAE"/>
<path d="M24.6 0.85H5.39998C2.67076 0.85 0.449976 3.07078 0.449976 5.8V44.2C0.449976 46.9292 2.67076 49.15 5.39998 49.15H24.6C27.3292 49.15 29.55 46.9292 29.55 44.2V5.8C29.55 3.07078 27.3292 0.85 24.6 0.85ZM26.85 44.2C26.85 45.4428 25.8428 46.45 24.6 46.45H5.39998C4.15719 46.45 3.14998 45.4428 3.14998 44.2V5.8C3.14998 4.55722 4.15719 3.55 5.39998 3.55H24.6C25.8428 3.55 26.85 4.55722 26.85 5.8V44.2Z" fill="#508CAE" stroke="#508CAE" stroke-width="0.3"/>
<path d="M16.8999 42.6C16.8999 43.6493 16.0492 44.5 14.9999 44.5C13.9505 44.5 13.0999 43.6493 13.0999 42.6C13.0999 41.5506 13.9505 40.7 14.9999 40.7C16.0492 40.7 16.8999 41.5506 16.8999 42.6Z" fill="#508CAE" stroke="#508CAE"/>
<path d="M11.2999 6.20003C11.2999 6.58663 10.9865 6.90003 10.5999 6.90003C10.2133 6.90003 9.8999 6.58663 9.8999 6.20003C9.8999 5.81343 10.2133 5.50003 10.5999 5.50003C10.9865 5.50003 11.2999 5.81343 11.2999 6.20003Z" fill="#508CAE" stroke="#508CAE"/>
</svg>
