<svg width="40" height="52" viewBox="0 0 40 52" fill="none" xmlns="http://www.w3.org/2000/svg">
<path fill-rule="evenodd" clip-rule="evenodd" d="M19.9977 3.62746C16.6971 3.6281 13.5319 4.98817 11.1983 7.40854C8.86463 9.8289 7.55364 13.1114 7.55364 16.5339V21.5955C7.55364 23.3173 7.01726 24.8553 6.37826 26.183C5.91392 27.1099 5.41048 28.0153 4.8694 28.8963C4.68284 29.2107 4.50093 29.5154 4.34002 29.7959C3.80364 30.7246 3.49813 31.8104 3.49813 32.9736C3.49813 35.9868 5.56437 38.5115 8.36287 38.9129C12.0243 39.4377 16.5205 39.9552 20 39.9552C23.4795 39.9552 27.9757 39.4377 31.6371 38.9129C34.4356 38.5091 36.5019 35.9868 36.5019 32.9736C36.5019 31.8104 36.194 30.7246 35.6623 29.7959L35.1306 28.8963C34.5895 28.0153 34.086 27.1099 33.6217 26.183C32.9827 24.8529 32.4464 23.3173 32.4464 21.5955V16.5339C32.4464 13.1109 31.1351 9.82812 28.8009 7.40768C26.4668 4.98724 23.2986 3.62746 19.9977 3.62746ZM4.0555 16.5339C4.0555 14.3627 4.46792 12.2127 5.26921 10.2067C6.07049 8.20069 7.24495 6.378 8.72554 4.84268C10.2061 3.30736 11.9638 2.08948 13.8983 1.25857C15.8328 0.427663 17.9061 0 20 0C22.0939 0 24.1672 0.427663 26.1017 1.25857C28.0362 2.08948 29.7939 3.30736 31.2745 4.84268C32.755 6.378 33.9295 8.20069 34.7308 10.2067C35.5321 12.2127 35.9445 14.3627 35.9445 16.5339V21.5955C35.9445 22.5313 36.236 23.489 36.7514 24.5627C37.1245 25.3366 37.5536 26.0572 38.0201 26.8408C38.2299 27.1914 38.4445 27.5542 38.666 27.9387C39.5149 29.4138 40 31.1381 40 32.9736C40 37.7135 36.7257 41.8415 32.1175 42.5041C28.4282 43.0361 23.7337 43.5827 20 43.5827C16.2663 43.5827 11.5742 43.0361 7.88246 42.5041C3.27425 41.8415 0 37.7135 0 32.976C0 31.1381 0.487407 29.4138 1.33396 27.9387C1.5555 27.5517 1.77239 27.189 1.97994 26.8408C2.44636 26.0572 2.87547 25.3366 3.2486 24.5627C3.76632 23.489 4.0555 22.5313 4.0555 21.5955V16.5339ZM26.0354 45.8511C25.8442 45.7191 25.6298 45.6274 25.4044 45.5814C25.179 45.5354 24.947 45.5359 24.7218 45.5828C24.4966 45.6297 24.2825 45.7222 24.0917 45.855C23.901 45.9877 23.7373 46.1581 23.6101 46.3565C22.8312 47.5705 21.5042 48.3661 19.9977 48.3661C18.4911 48.3661 17.1642 47.5705 16.3829 46.3565C16.1179 45.9771 15.7216 45.7187 15.277 45.6355C14.8324 45.5524 14.374 45.6508 13.9978 45.9102C13.6217 46.1697 13.3569 46.57 13.2589 47.0273C13.161 47.4846 13.2375 47.9635 13.4725 48.3637C14.1861 49.4816 15.1556 50.3988 16.2944 51.0333C17.4333 51.6679 18.706 52 19.9988 52C21.2917 52 22.5644 51.6679 23.7032 51.0333C24.8421 50.3988 25.8116 49.4816 26.5252 48.3637C26.6524 48.1652 26.7406 47.9427 26.7848 47.7089C26.829 47.4751 26.8283 47.2345 26.7828 47.0009C26.7374 46.7674 26.648 46.5454 26.5197 46.3477C26.3915 46.15 26.2269 45.9828 26.0354 45.8511Z" fill="#999999"/>
</svg>
