<svg width="123" height="123" viewBox="0 0 123 123" fill="none" xmlns="http://www.w3.org/2000/svg">
<path d="M61.5 0C27.5344 0 0 27.5344 0 61.5C0 95.4656 27.5344 123 61.5 123C95.4653 123 123 95.4656 123 61.5C123 27.5344 95.4653 0 61.5 0Z" fill="#FFD700"/>
<path d="M66.5658 55.5326C58.8791 52.6391 55.7134 50.7398 55.7134 47.758C55.7134 45.2252 57.6132 42.6926 63.488 42.6926C70.004 42.6926 74.1637 44.7761 76.5125 45.7701L79.1336 35.5508C76.1518 34.1004 72.0802 32.8416 66.0208 32.569V24.6099H57.1636V33.202C47.4893 35.1018 41.8789 41.3376 41.8789 49.2967C41.8789 58.0656 48.483 62.586 58.1574 65.8402C64.8501 68.1004 67.7436 70.2725 67.7436 73.7107C67.7436 77.3259 64.217 79.3135 59.0631 79.3135C53.1801 79.3135 47.8497 77.414 44.0508 75.3378L41.334 85.9181C44.7722 87.9057 50.6478 89.5328 56.707 89.8054V98.39H65.5715V89.1723C75.9675 87.3609 81.6659 80.4918 81.6659 72.4446C81.6662 64.3015 77.3225 59.3315 66.5658 55.5326Z" fill="white"/>
</svg>
