<svg width="36" height="46" viewBox="0 0 36 46" fill="none" xmlns="http://www.w3.org/2000/svg">
<path d="M16.4807 0.677044C13.4112 1.19744 10.8092 3.08498 9.4862 5.75752C8.5689 7.60978 8.48069 8.24484 8.48069 13.1754V17.1269H6.6549C5.38478 17.1269 4.62623 17.171 4.20286 17.2592C2.2183 17.6737 0.560087 19.3319 0.145535 21.3165C-0.0485115 22.2338 -0.0485115 40.5976 0.145535 41.5149C0.560087 43.4995 2.2183 45.1577 4.20286 45.5722C5.12899 45.7663 30.8842 45.7663 31.8103 45.5722C33.7949 45.1577 35.4531 43.4995 35.8676 41.5149C35.9735 40.9945 35.9999 39.4157 35.9999 31.4157C35.9999 20.8931 36.0176 21.2636 35.4178 20.0375C34.968 19.1291 33.9977 18.1588 33.0893 17.709C31.8544 17.1092 32.2425 17.1269 21.6053 17.1269H12.0088V13.2195C12.0088 10.1412 12.0353 9.18861 12.1411 8.7035C12.4851 7.04528 13.7023 5.51056 15.2723 4.75201C17.1157 3.85234 18.8798 3.85234 20.7321 4.75201C21.42 5.07836 21.6935 5.27241 22.2932 5.87218C22.8666 6.45432 23.0871 6.74539 23.3781 7.35399C23.9162 8.46535 24.0044 8.99456 24.0044 11.279V13.2459H25.7773H27.5501L27.5148 10.8821C27.4707 8.68585 27.4531 8.46535 27.2326 7.64506C26.3947 4.46976 23.9867 1.95599 20.8555 0.985756C19.4884 0.562382 17.8478 0.447716 16.4807 0.677044ZM31.6427 20.9372C31.828 21.0695 32.0837 21.3253 32.2072 21.5105L32.4277 21.8369V31.4157V40.9945L32.2072 41.3209C32.0837 41.5061 31.828 41.7619 31.6427 41.8942L31.2987 42.1323H18.0066H4.71444L4.37045 41.8942C4.18522 41.7619 3.92943 41.5061 3.80595 41.3209L3.58544 40.9945L3.55898 31.6097C3.55016 25.3915 3.5678 22.1191 3.62954 21.8898C3.73539 21.4841 4.33516 20.8667 4.72326 20.752C4.88202 20.6991 10.4212 20.6726 18.1477 20.6814L31.2987 20.6991L31.6427 20.9372Z" fill="#508CAE"/>
<path d="M17.1344 25.9119C15.7849 26.2735 14.7441 27.6583 14.7441 29.0872C14.7441 29.9251 15.3439 31.1423 15.979 31.5922L16.2348 31.7686L16.2612 34.0001L16.2877 36.2405L16.5258 36.5933C16.8875 37.1489 17.3197 37.3694 18.0076 37.3694C18.7485 37.3694 19.216 37.0784 19.5512 36.4169C19.7717 35.9758 19.7717 35.9406 19.7717 33.8766V31.7774L20.0275 31.601C20.6714 31.1423 21.2711 29.934 21.2711 29.0872C21.2711 27.6319 20.2303 26.2647 18.8456 25.9031C18.2105 25.7443 17.7607 25.7443 17.1344 25.9119Z" fill="#508CAE"/>
</svg>
