<svg width="38" height="44" viewBox="0 0 38 44" fill="none" xmlns="http://www.w3.org/2000/svg">
<path d="M4.92005 37.048C5.36005 37.048 5.44805 37.004 5.84405 36.916L13.764 35.332C14.6 35.112 15.4361 34.716 16.0961 34.056L35.2801 14.872C38.2281 11.924 38.2281 6.86401 35.2801 3.91601L33.6521 2.20001C30.7041 -0.747986 25.6 -0.747986 22.6521 2.20001L3.46805 21.428C2.85205 22.044 2.41205 22.924 2.19205 23.76L0.520049 31.768C0.300049 33.264 0.740049 34.716 1.79605 35.772C2.63205 36.608 3.86405 37.048 4.92005 37.048ZM6.41605 24.596L25.6 5.36801C26.8761 4.09201 29.208 4.09201 30.4401 5.36801L32.1121 7.04001C33.6081 8.53601 33.6081 10.648 32.1121 12.1L12.972 31.328L4.83205 32.692L6.41605 24.596ZM35.104 39.776H2.63205C1.35605 39.776 0.520049 40.612 0.520049 41.888C0.520049 43.164 1.57605 44 2.63205 44H34.9281C36.204 44 37.2601 43.164 37.2601 41.888C37.216 40.612 36.16 39.776 35.104 39.776Z" fill="white"/>
</svg>
