<svg width="62" height="77" viewBox="0 0 62 77" fill="none" xmlns="http://www.w3.org/2000/svg">
<path d="M30.7207 0.200195C20.151 0.200195 11.5207 8.83044 11.5207 19.4002C11.5207 29.9699 20.151 38.6002 30.7207 38.6002C41.2905 38.6002 49.9207 29.9699 49.9207 19.4002C49.9207 8.83044 41.2905 0.200195 30.7207 0.200195ZM30.7207 5.9602C38.1776 5.9602 44.1607 11.9434 44.1607 19.4002C44.1607 26.857 38.1776 32.8402 30.7207 32.8402C23.2639 32.8402 17.2807 26.857 17.2807 19.4002C17.2807 11.9434 23.2639 5.9602 30.7207 5.9602ZM8.64073 46.2802C3.90313 46.2802 0.000732422 50.1826 0.000732422 54.9202V57.2227C0.000732422 62.8692 3.58098 67.9339 9.04198 71.4165C14.503 74.899 21.9748 77.0002 30.7207 77.0002C39.4666 77.0002 46.9385 74.899 52.3995 71.4165C57.8605 67.9339 61.4407 62.8692 61.4407 57.2227V54.9202C61.4407 50.1826 57.5383 46.2802 52.8007 46.2802H8.64073ZM8.64073 52.0402H52.8007C54.426 52.0402 55.6807 53.2949 55.6807 54.9202V57.2227C55.6807 60.4198 53.6215 63.8056 49.302 66.5602C44.9825 69.3148 38.5329 71.2402 30.7207 71.2402C22.9086 71.2402 16.459 69.3148 12.1395 66.5602C7.82 63.8056 5.76073 60.4198 5.76073 57.2227V54.9202C5.76073 53.2949 7.01545 52.0402 8.64073 52.0402Z" fill="#55565A"/>
</svg>
