<svg width="62" height="78" viewBox="0 0 62 78" fill="none" xmlns="http://www.w3.org/2000/svg">
<path d="M31.0813 0.680176C20.5116 0.680176 11.8813 9.31042 11.8813 19.8802C11.8813 30.4499 20.5116 39.0802 31.0813 39.0802C41.6511 39.0802 50.2813 30.4499 50.2813 19.8802C50.2813 9.31042 41.6511 0.680176 31.0813 0.680176ZM9.00133 46.7602C4.26373 46.7602 0.361328 50.6626 0.361328 55.4002V57.7027C0.361328 63.3491 3.94158 68.4139 9.40258 71.8964C14.8636 75.379 22.3354 77.4802 31.0813 77.4802C39.8272 77.4802 47.2991 75.379 52.7601 71.8964C58.2211 68.4139 61.8013 63.3491 61.8013 57.7027V55.4002C61.8013 50.6626 57.8989 46.7602 53.1613 46.7602H9.00133Z" fill="#508CAE"/>
</svg>
