<svg width="41" height="41" viewBox="0 0 41 41" fill="none" xmlns="http://www.w3.org/2000/svg">
<path d="M39.7175 20.2268C38.3466 19.0969 36.1799 19.0001 34.7577 20.5263L31.2273 24.3161C30.7709 22.8492 29.4008 21.781 27.7858 21.781H21.4857C21.0076 21.781 20.8475 21.5984 20.0171 20.9587C16.851 18.1986 12.0955 18.2074 8.93896 20.9851L6.62326 23.0237C5.58233 22.4728 4.36682 22.4592 3.3202 22.9821L0.664168 24.3097C0.0707897 24.6068 -0.169365 25.3282 0.126844 25.9216L7.33347 40.3348C7.63056 40.9282 8.35199 41.1683 8.94537 40.8721L11.6014 39.5437C12.9106 38.8895 13.6392 37.5538 13.592 36.1943H27.7857C30.4178 36.1943 32.9328 34.9371 34.5119 32.8312L40.278 25.1426C41.3966 23.6524 41.2197 21.4671 39.7175 20.2268ZM10.5267 37.3953L8.94529 38.1864L2.8125 25.9216L4.39477 25.1305C4.98815 24.8342 5.70877 25.0737 6.00586 25.6678L11.0641 35.7843C11.3604 36.3776 11.1201 37.0982 10.5267 37.3953ZM38.3562 23.7012L32.5902 31.3898C31.462 32.8944 29.6659 33.792 27.7858 33.792H12.7536L8.25269 24.7894L10.5259 22.7884C12.788 20.7985 16.1992 20.7985 18.4612 22.7884C19.7936 23.9615 20.6224 24.1833 21.4856 24.1833H27.7857C28.448 24.1833 28.9868 24.7222 28.9868 25.3844C28.9868 26.0465 28.4479 26.5855 27.7857 26.5855H21.6514C20.9883 26.5855 20.4503 27.1236 20.4503 27.7865C20.4503 28.4495 20.9884 28.9876 21.6514 28.9876H28.5905C29.5874 28.9876 30.5484 28.5696 31.2273 27.8402L36.5154 22.1638C36.9991 21.6449 37.7405 21.6881 38.1953 22.0861C38.6709 22.5024 38.7223 23.2143 38.3562 23.7012ZM25.2554 8.19735C26.0778 7.33499 26.5847 6.16914 26.5847 4.88548C26.5847 2.24146 24.4483 0.0010376 21.7803 0.0010376C19.1323 0.0010376 16.8958 2.23746 16.8958 4.88548C16.8958 6.12982 17.3835 7.30448 18.2691 8.20696C16.0727 9.43849 14.4937 11.8022 14.4937 14.5744V15.7755C14.4937 16.4384 15.0318 16.9766 15.6947 16.9766H27.7858C28.4488 16.9766 28.9869 16.4384 28.9869 15.7755V14.5744C28.9868 11.8567 27.492 9.4561 25.2554 8.19735ZM21.7803 2.4033C23.0823 2.4033 24.1825 3.54033 24.1825 4.88556C24.1825 6.20997 23.1047 7.28775 21.7803 7.28775C20.4351 7.28775 19.298 6.18755 19.298 4.88556C19.298 3.56355 20.4583 2.4033 21.7803 2.4033ZM16.8958 14.5744C16.8958 11.9264 19.1323 9.68993 21.7803 9.68993C24.4291 9.68993 26.5847 11.8807 26.5847 14.5744H16.8958Z" fill="#508CAE"/>
</svg>
