<svg width="33" height="33" viewBox="0 0 33 33" fill="none" xmlns="http://www.w3.org/2000/svg">
<path d="M4.08564 14.6906C5.08134 7.92421 11.3738 3.24614 18.1401 4.24184C20.4487 4.58155 22.6143 5.5666 24.3875 7.08348L22.7912 8.67971C22.2562 9.21484 22.2564 10.0824 22.7916 10.6174C23.0484 10.8742 23.3968 11.0185 23.76 11.0186H30.0436C30.8003 11.0186 31.4137 10.4052 31.4137 9.64844V3.36483C31.4135 2.60811 30.8 1.99481 30.0433 1.99494C29.68 1.99502 29.3317 2.13931 29.0749 2.3961L27.2935 4.1773C20.5009 -1.87766 10.0859 -1.27971 4.03092 5.51289C1.88581 7.91927 0.493768 10.9021 0.0272265 14.0918C-0.156718 15.2227 0.610853 16.2885 1.74163 16.4724C1.84349 16.489 1.94638 16.4979 2.04959 16.4992C3.08415 16.4881 3.95256 15.7166 4.08564 14.6906ZM30.634 16.4992C29.5995 16.5104 28.731 17.2818 28.598 18.3078C27.6023 25.0742 21.3099 29.7523 14.5435 28.7567C12.2349 28.417 10.0693 27.4319 8.29614 25.915L9.89236 24.3188C10.4274 23.7837 10.4272 22.9161 9.89204 22.3811C9.63517 22.1243 9.28685 21.98 8.92363 21.9799H2.64016C1.88344 21.9799 1.27001 22.5934 1.27001 23.3501V29.6337C1.2702 30.3904 1.88376 31.0037 2.64048 31.0036C3.00369 31.0035 3.35202 30.8592 3.60889 30.6024L5.39008 28.8212C12.1811 34.8768 22.5954 34.2807 28.651 27.4897C30.7973 25.0828 32.19 22.099 32.6564 18.908C32.8411 17.7773 32.0742 16.711 30.9436 16.5263C30.8412 16.5095 30.7377 16.5005 30.634 16.4992Z" fill="#212121"/>
</svg>
