<svg width="1080" height="1371" viewBox="0 0 1080 1371" fill="none" xmlns="http://www.w3.org/2000/svg">
<path d="M59.429 607.797L57.2888 603.982C49.4727 589.559 34.3988 580.534 17.9291 580.534H-98.1963C-108.897 580.534 -119.225 576.719 -127.321 569.833L-134.299 563.878C-137.463 581.867 -139.944 600.105 -141.743 618.591C-143.883 640.55 -145 662.882 -145 685.4C-145 685.71 -145 686.02 -145 686.331L-13.6146 635.898C-6.07762 635.898 1.3663 637.666 7.97279 641.388L107.908 696.845L59.429 607.797Z" fill="#81B2C6"/>
<path d="M899.105 101.331C870.073 83.4651 839.739 67.7398 808.009 54.2477C725.847 19.3542 635.31 0 540.4 0C344.252 0 167.366 82.4415 42.401 214.571H114.979H390.684C394.592 214.571 398.5 214.013 402.222 212.99L756.553 119.103C770.138 115.567 784.747 118.545 795.82 127.291L890.265 201.731C896.964 206.941 904.967 210.198 913.341 211.129L1048.45 225.458C1004.9 177.352 954.655 135.48 899.105 101.331Z" fill="#81B2C6"/>
<path d="M890.265 201.731L795.82 127.291C784.747 118.545 770.138 115.567 756.553 119.103L402.222 212.99C398.5 214.013 394.592 214.571 390.684 214.571H114.979H42.401C-47.2984 309.388 -110.293 429.887 -134.299 563.878L-127.321 569.833C-119.225 576.719 -108.897 580.534 -98.1962 580.534H17.9291C34.3988 580.534 49.4727 589.56 57.2889 603.982L59.429 607.797L272.325 525.914C273.69 525.48 275.024 525.045 276.327 524.611L640.335 422.536C648.151 420.396 656.339 420.303 664.155 422.443L743.34 443.751C753.855 446.543 765.021 445.426 774.884 440.681L853.231 401.972C862.257 397.506 872.492 396.203 882.263 398.25L1042.03 431.562C1048.82 432.958 1055.89 432.772 1062.59 431.004L1165.41 403.926C1135.82 338.234 1096.18 278.124 1048.45 225.458L913.341 211.129C904.967 210.198 896.964 206.941 890.265 201.731Z" fill="#508CAE"/>
<path d="M1042.03 431.562L882.263 398.25C872.492 396.203 862.257 397.506 853.231 401.972L774.884 440.681C765.021 445.426 753.855 446.543 743.34 443.751L664.155 422.443C656.339 420.303 648.151 420.396 640.335 422.536L276.327 524.611C275.024 525.045 273.69 525.48 272.325 525.914L59.429 607.797L107.908 696.845L164.947 728.482C172.67 732.762 181.416 734.623 190.163 733.972L271.023 727.644C281.072 726.9 291.121 729.505 299.589 735.181L332.621 757.327C343.787 764.864 357.838 767.004 370.771 763.003L451.166 738.438C458.517 736.205 466.333 735.833 473.777 737.508L567.198 757.699L574.084 742.16C579.015 731.273 588.134 722.713 599.486 718.526L696.257 682.516C706.121 678.887 714.402 671.908 719.613 662.789L787.911 543.221C799.263 523.308 823.735 515.213 844.671 524.332L879.471 539.313C896.592 546.757 916.505 542.849 929.438 529.45L983.593 473.806C992.061 465.06 1003.6 460.128 1015.79 460.128H1163.55C1171.37 460.128 1179 457.988 1185.7 454.173C1179.65 437.052 1172.86 420.303 1165.41 403.926L1062.59 431.004C1055.89 432.772 1048.82 432.958 1042.03 431.562Z" fill="white"/>
<path d="M1015.79 460.128C1003.6 460.128 992.061 465.06 983.593 473.806L929.439 529.45C916.505 542.849 896.592 546.757 879.471 539.313L844.671 524.332C823.735 515.213 799.263 523.308 787.911 543.221L719.613 662.789C714.402 671.908 706.121 678.887 696.257 682.515L599.486 718.526C588.134 722.713 579.015 731.273 574.084 742.16L567.198 757.699L763.718 800.316C764.959 800.502 766.23 800.719 767.533 800.967L870.911 814.087C875.377 814.645 879.936 814.552 884.403 813.808L950.933 802.084C956.237 801.153 961.634 801.153 966.937 802.177L1081.67 823.485C1091.81 825.346 1102.32 823.671 1111.44 818.739L1221.89 758.071C1224.4 734.251 1225.8 709.965 1225.8 685.4C1225.8 604.261 1211.66 526.379 1185.7 454.173C1179 457.988 1171.37 460.128 1163.55 460.128H1015.79Z" fill="#81B2C6"/>
<path d="M985.733 1166.93L800.566 931.329C788.562 915.976 768.929 908.718 749.854 912.533L602.65 941.657C587.576 944.635 571.944 940.727 560.034 931.05L534.631 900.53C528.955 893.737 518.627 892.248 512.113 898.297C511.09 899.227 496.109 917.837 495.83 918.767C495.83 918.767 478.802 946.868 454.609 942.96C451.91 942.588 449.119 941.937 446.234 940.634L331.598 876.616C326.852 874.011 321.735 871.219 316.431 868.428C291.866 855.587 264.044 850.562 236.409 852.982C235.044 853.106 233.772 853.199 232.593 853.261C192.768 855.866 153.688 865.45 117.12 881.362L74.4099 899.971C59.8012 904.066 44.262 901.553 31.7004 893.179L-7.93857 866.66C-19.1975 859.123 -32.7827 856.331 -46.0887 858.751L-111.781 870.847C-115.783 871.591 -118.295 875.593 -117.085 879.501C-94.7534 955.429 -59.5809 1025.87 -14.0798 1088.3C-13.5215 1089.14 -12.6841 1089.79 -11.7536 1090.35L155.828 1182.1C160.946 1184.89 166.436 1186.75 172.205 1187.68L381.751 1222.39C385.659 1223.04 389.567 1224.15 393.196 1225.74L659.503 1336.93C677.368 1344.37 698.025 1341.21 712.82 1328.65L784.096 1268.17C787.911 1265 792.005 1262.4 796.564 1260.35L983.128 1177.35C987.222 1175.58 988.432 1170.37 985.733 1166.93Z" fill="#FEFEFE"/>
<path d="M1210.26 764.492L1113.58 817.53C1103.07 823.299 1090.97 825.253 1079.25 823.02L968.147 802.363C962.099 801.246 955.864 801.246 949.723 802.27L885.333 813.622C880.309 814.552 875.005 814.645 869.887 813.994L767.812 800.967C766.323 800.719 764.866 800.471 763.439 800.223L567.198 757.699L475.545 737.88C466.891 736.019 457.958 736.391 449.491 738.903L373.842 762.073C358.954 766.632 342.764 764.213 329.923 755.559L301.543 736.484C291.866 729.971 280.235 726.9 268.697 727.83L192.21 733.786C182.161 734.623 172.018 732.39 163.086 727.458L107.908 696.845L7.97279 641.388C1.83154 637.945 -5.05408 636.177 -12.1258 635.898C-13.1183 635.836 -14.0798 635.991 -15.0103 636.363C-27.2928 641.109 -119.318 676.467 -140.627 684.656C-143.325 685.679 -145 688.285 -145 691.169C-144.442 751.651 -136.16 810.272 -120.9 866.101C-119.97 869.544 -116.527 871.684 -112.991 871.033L-111.781 870.847L-46.0888 858.751C-32.7827 856.331 -19.1976 859.123 -7.93861 866.66L31.7003 893.179C44.2619 901.553 59.8012 904.066 74.4099 899.971L117.119 881.362C153.688 865.45 192.768 855.866 232.593 853.261C233.772 853.199 235.044 853.106 236.408 852.982C264.044 850.562 291.866 855.587 316.431 868.428C321.734 871.219 326.852 874.011 331.598 876.616L446.234 940.634C449.119 941.937 451.91 942.495 454.609 942.96C478.802 946.868 495.829 918.767 495.829 918.767C496.109 917.837 511.09 899.227 512.113 898.297C518.627 892.248 528.955 893.737 534.631 900.53L560.033 931.05C571.944 940.727 587.576 944.635 602.65 941.657L749.854 912.533C768.929 908.718 788.562 915.976 800.565 931.329L987.873 1169.63C989.827 1172.05 993.177 1172.88 995.969 1171.58L1004.62 1167.77C1011.79 1164.6 1019.51 1163.49 1026.95 1164.14C1029.09 1164.42 1031.23 1163.77 1032.72 1162.18C1133.4 1058.25 1201.51 922.396 1220.4 771.377C1221.05 765.888 1215.1 761.886 1210.26 764.492Z" fill="#508CAE"/>
<path d="M1004.62 1167.77L991.13 1173.82L795.634 1260.82C791.726 1262.49 788.097 1264.82 784.84 1267.52L709.656 1331.35C696.816 1342.23 678.857 1345.03 663.318 1338.51L392.452 1225.46C389.288 1224.06 385.939 1223.13 382.496 1222.57L171.088 1187.49C166.063 1186.75 161.318 1185.07 156.851 1182.65L-13.1493 1089.61C111.537 1260.07 312.988 1370.8 540.4 1370.8C719.147 1370.8 881.984 1302.32 1003.97 1190.19C1012.97 1181.88 1021.74 1173.35 1030.3 1164.6C1021.84 1163.21 1012.9 1164.14 1004.62 1167.77Z" fill="#81B2C6"/>
</svg>
