<svg width="46" height="66" viewBox="0 0 46 66" fill="none" xmlns="http://www.w3.org/2000/svg">
<path d="M22.9999 0C10.3723 0 0.0986328 10.2729 0.0986328 22.9012C0.0986328 31.3031 4.76401 39.0529 12.1059 43.0583V47.7904C12.1059 49.108 13.1739 50.176 14.4914 50.176H31.4296C32.7471 50.176 33.8151 49.1081 33.8151 47.7904V43.0647C41.2055 39.0754 45.9011 31.3223 45.9011 22.9014C45.9011 10.2729 35.6274 0 22.9999 0ZM30.4403 39.4171C30.0237 39.6067 29.6704 39.9122 29.4227 40.2972C29.1749 40.6821 29.0432 41.1302 29.0432 41.588V45.4049H16.8769V41.588C16.8769 41.132 16.7462 40.6855 16.5003 40.3015C16.2544 39.9174 15.9036 39.6119 15.4894 39.4211C9.03815 36.4495 4.86971 29.9648 4.86971 22.9012C4.86971 12.9042 13.0028 4.77108 22.9999 4.77108C32.9969 4.77108 41.13 12.9042 41.13 22.9012C41.13 29.976 36.9338 36.4591 30.4403 39.4171ZM29.5999 53.3566H16.3999C15.0823 53.3566 14.0143 54.4246 14.0143 55.7422C14.0143 57.0597 15.0822 58.1277 16.3999 58.1277H29.5999C30.9174 58.1277 31.9854 57.0597 31.9854 55.7422C31.9854 54.4246 30.9174 53.3566 29.5999 53.3566ZM25.7829 61.2289H20.2168C18.8992 61.2289 17.8312 62.2969 17.8312 63.6145C17.8312 64.932 18.8992 66 20.2168 66H25.7831C27.1006 66 28.1686 64.932 28.1686 63.6145C28.1685 62.2969 27.1006 61.2289 25.7829 61.2289Z" fill="#999999"/>
</svg>
