<svg width="43" height="42" viewBox="0 0 43 42" fill="none" xmlns="http://www.w3.org/2000/svg">
<path d="M20.0126 0.0210762C19.8813 0.0374947 19.4791 0.0949554 19.1179 0.144207C17.0986 0.415092 14.677 1.55609 13.0353 3.00902C10.9585 4.83954 9.48917 7.48272 9.04591 10.1916C8.88173 11.1766 8.90636 13.3929 9.08695 14.2959C9.66976 17.2592 11.3443 20.0009 13.6017 21.7083L14.1599 22.1351L13.93 22.2172C12.9368 22.5948 12.5099 22.7836 11.6645 23.2022C8.01983 25.0328 5.05651 27.7991 2.9469 31.3288C1.22309 34.2182 0.254467 37.4442 0.0574604 41.015L0 42H1.64993H3.30808V41.5978C3.30808 38.8151 4.46549 34.9734 6.01692 32.6093C8.40563 28.9565 11.607 26.4529 15.5061 25.1805C19.2164 23.9656 22.861 23.9656 26.5713 25.1805C30.4704 26.4529 33.6718 28.9565 36.0605 32.6093C37.6119 34.9734 38.7693 38.8151 38.7693 41.5978V42H40.4275H42.0774L42.02 41.015C41.823 37.4442 40.8543 34.2182 39.1305 31.3288C37.0209 27.7991 34.0576 25.0328 30.413 23.2022C29.5675 22.7836 29.1406 22.5948 28.1474 22.2172L27.9175 22.1351L28.4757 21.7083C30.7331 20.0009 32.4077 17.2592 32.9905 14.2959C33.1711 13.3929 33.1957 11.1766 33.0315 10.1916C32.6785 8.0327 31.5868 5.74249 30.1421 4.10077C28.3444 2.07323 25.8161 0.644932 23.1812 0.168831C22.5491 0.0539131 20.4559 -0.04459 20.0126 0.0210762ZM22.426 3.37841C27.2526 4.16644 30.5525 8.71402 29.7809 13.5079C28.9929 18.3345 24.4453 21.6344 19.6515 20.8628C14.8248 20.0748 11.5249 15.5272 12.2965 10.7333C13.0846 5.90666 17.6321 2.6068 22.426 3.37841Z" fill="#508CAE"/>
</svg>
