<svg width="44" height="44" viewBox="0 0 44 44" fill="none" xmlns="http://www.w3.org/2000/svg">
<path d="M38.96 14.602C39.9787 16.9352 40.503 19.4541 40.5 22C40.5 32.21 32.21 40.5 22 40.5C11.79 40.5 3.5 32.21 3.5 22C3.5 11.79 11.79 3.5 22 3.5C22.3978 3.5 22.7794 3.34196 23.0607 3.06066C23.342 2.77936 23.5 2.39782 23.5 2C23.5 1.60218 23.342 1.22064 23.0607 0.93934C22.7794 0.658035 22.3978 0.5 22 0.5C10.134 0.5 0.5 10.134 0.5 22C0.5 33.866 10.134 43.5 22 43.5C33.866 43.5 43.5 33.866 43.5 22C43.5 18.942 42.86 16.034 41.708 13.398C41.5483 13.0336 41.2505 12.7475 40.8799 12.6028C40.5093 12.458 40.0964 12.4663 39.732 12.626C39.3676 12.7857 39.0815 13.0835 38.9368 13.4541C38.792 13.8247 38.8003 14.2376 38.96 14.602Z" fill="#508CAE"/>
<path d="M32 0.5C30.1744 0.50053 28.4238 1.22598 27.1329 2.51686C25.842 3.80775 25.1166 5.55841 25.116 7.384C25.116 8.572 25.654 10.018 26.486 11.43C28.156 14.272 30.94 17.06 30.94 17.06C31.0792 17.1993 31.2444 17.3099 31.4263 17.3853C31.6082 17.4607 31.8031 17.4995 32 17.4995C32.1969 17.4995 32.3919 17.4607 32.5738 17.3853C32.7557 17.3099 32.9209 17.1993 33.06 17.06C33.06 17.06 35.844 14.272 37.514 11.43C38.346 10.018 38.884 8.572 38.884 7.384C38.884 3.584 35.8 0.5 32 0.5ZM32 3.5C34.144 3.5 35.884 5.24 35.884 7.384C35.884 8.44 35.098 9.738 34.254 10.962C33.5594 11.9523 32.8067 12.9006 32 13.802C31.35 13.07 30.5 12.054 29.746 10.962C28.902 9.738 28.116 8.44 28.116 7.384C28.116 5.24 29.856 3.5 32 3.5ZM1.20603 23.272L7.74603 27.36C8.93803 28.104 10.316 28.5 11.72 28.5H13.24C14.554 28.5 15.802 29.074 16.658 30.072L18.76 32.526C19.2444 33.0906 19.5812 33.7665 19.7404 34.4932C19.8995 35.2198 19.876 35.9746 19.672 36.69L18.558 40.588C18.4577 40.9676 18.5102 41.3714 18.7043 41.7128C18.8984 42.0541 19.2186 42.3057 19.5962 42.4136C19.9737 42.5214 20.3785 42.477 20.7236 42.2897C21.0687 42.1024 21.3267 41.7873 21.442 41.412L22.556 37.514C22.8967 36.3219 22.9363 35.0639 22.6714 33.8528C22.4064 32.6416 21.8452 31.515 21.038 30.574L18.934 28.12C18.2304 27.298 17.3571 26.6382 16.3742 26.1859C15.3913 25.7337 14.322 25.4996 13.24 25.5H11.72C10.878 25.5 10.052 25.264 9.33603 24.816L2.79403 20.728C2.62696 20.6175 2.43944 20.5415 2.24254 20.5046C2.04564 20.4677 1.84334 20.4706 1.64759 20.5132C1.45183 20.5558 1.26659 20.6371 1.10279 20.7524C0.938982 20.8678 0.79994 21.0147 0.693862 21.1847C0.587784 21.3546 0.516821 21.5441 0.48516 21.7419C0.4535 21.9397 0.461783 22.1418 0.509521 22.3364C0.55726 22.531 0.643486 22.714 0.763111 22.8747C0.882737 23.0354 1.03334 23.1705 1.20603 23.272Z" fill="#508CAE"/>
<path d="M8.65808 6.67L11.8501 13.054C12.1991 13.7527 12.693 14.369 13.299 14.8618C13.9049 15.3547 14.6089 15.7127 15.3641 15.912L18.8801 16.842C19.7661 17.076 20.4521 17.776 20.6681 18.666L22.1741 24.84C22.5005 26.1801 23.3186 27.3487 24.4661 28.114L25.3981 28.734C26.0465 29.1679 26.78 29.4586 27.5496 29.5868C28.3192 29.715 29.1073 29.6778 29.8614 29.4776C30.6155 29.2774 31.3183 28.9188 31.9229 28.4257C32.5276 27.9326 33.0202 27.3164 33.3681 26.618L34.5181 24.316C34.6795 23.9937 34.9088 23.71 35.1902 23.4846C35.4715 23.2592 35.7983 23.0973 36.1481 23.01L41.7301 21.614C42.1109 21.5128 42.4366 21.2658 42.6368 20.9264C42.837 20.5871 42.8956 20.1825 42.8 19.8003C42.7044 19.418 42.4622 19.0887 42.1258 18.8836C41.7893 18.6785 41.3857 18.614 41.0021 18.704L35.4201 20.098C34.6507 20.2908 33.9322 20.6477 33.3136 21.1441C32.695 21.6405 32.191 22.2647 31.8361 22.974L30.6841 25.276C30.5265 25.5939 30.3029 25.8744 30.0282 26.0989C29.7534 26.3234 29.4339 26.4866 29.0911 26.5777C28.7482 26.6688 28.3898 26.6856 28.0399 26.627C27.69 26.5684 27.3566 26.4358 27.0621 26.238L26.1301 25.618C25.6085 25.2702 25.2365 24.7391 25.0881 24.13L23.5841 17.956C23.3495 16.9945 22.8599 16.1142 22.1668 15.4077C21.4738 14.7012 20.6029 14.1949 19.6461 13.942L16.1301 13.012C15.7869 12.9214 15.4669 12.7585 15.1917 12.5343C14.9165 12.3102 14.6923 12.0298 14.5341 11.712L11.3421 5.33C11.255 5.1522 11.1337 4.99339 10.9849 4.86273C10.8362 4.73206 10.6631 4.63213 10.4756 4.56868C10.2881 4.50524 10.0898 4.47954 9.89234 4.49308C9.69484 4.50661 9.50197 4.5591 9.32485 4.64753C9.14774 4.73595 8.98987 4.85856 8.86037 5.00829C8.73086 5.15802 8.63228 5.3319 8.57029 5.51991C8.50831 5.70792 8.48416 5.90634 8.49922 6.10373C8.51429 6.30112 8.56828 6.49358 8.65808 6.67Z" fill="#508CAE"/>
</svg>
